<?xml version="1.0" encoding="utf-8"?>
<!-- Generator: Adobe Illustrator 22.1.0, SVG Export Plug-In . SVG Version: 6.00 Build 0)  -->
<svg version="1.1" id="Capa_1" xmlns="http://www.w3.org/2000/svg" xmlns:xlink="http://www.w3.org/1999/xlink" x="0px" y="0px"
	 viewBox="0 0 920 920" style="enable-background:new 0 0 920 920;" xml:space="preserve">
<style type="text/css">
.st0{display:none;}
	.st1{display:inline;fill:#474747;stroke:#B7B7B7;stroke-width:16;stroke-miterlimit:10;}
	.st2{fill:#4183D7;stroke:#4183D7;stroke-miterlimit:10;
	animation : DegradeGrfic 2.5s linear infinite;
	}
	.st3
	{
	fill:#F64747;stroke:#F64747;stroke-miterlimit:10;
	animation : CenterGrfic 2.5s linear infinite;
	}
	@keyframes CenterGrfic{
   0% {
   fill:url(#gradR1);
   stroke:url(#gradR1);
  }
  25% {
    fill:url(#gradR2);
	stroke:url(#gradR2);
  }
  50% {
     fill:url(#gradR3);
	 stroke:url(#gradR3);
  }
  100% {
   fill:url(#gradR4);
   stroke:url(#gradR4);
  }}

  @keyframes DegradeGrfic{
   0% {
   fill:url(#gradA1);
   stroke:url(#gradA1);
  }
  25% {
    fill:url(#gradA2);
	stroke:url(#gradA2);
  }
  50% {
     fill:url(#gradA3);
	 stroke:url(#gradA3);
  }
  75% {
   fill:url(#gradA4);
   stroke:url(#gradA4);
  }
  100% {
   fill:url(#gradA5);
   stroke:url(#gradA5);
  }}
	.st4{fill:#3D3D3D;}
	.st5{fill:#F64747;}
	.st6{fill:#4183D7;}
	.st7{fill:#DDDDDD;}
	.st8{fill:#9E9E9E;}
	.st9{fill:none;stroke:#9E9E9E;stroke-width:15;stroke-miterlimit:10;}
	.st10{fill:#D3D3D3;}
	.st11{fill:#303030;}
	.st12{fill:#FFFFFF;}
		.A1{
		 animation : TrasitR1 5s linear infinite;
	}
	.A2{
		 animation : TrasitR2 5s linear infinite;
	}
	.A3{
		 animation : TrasitR3 5s linear infinite;
	}
	.A4{
		 animation : TrasitR4 5s linear infinite;
	}
	@keyframes TrasitR1{
   0% {
    fill:#4183D7;
  }
  25% {
    fill:#FFFFFF;
  }
  50% {
    fill:#FFFFFF;
  }
  100% {
   fill:#FFFFFF;
  }	
}
@keyframes TrasitR2{
   0% {
    fill:#FFFFFF;
  }
  25% {
    fill:#4183D7;
  }
  50% {
    fill:#FFFFFF;
  }
  100% {
   fill:#FFFFFF;
  }
  }
	@keyframes TrasitR3{
   0% {
    fill:#FFFFFF;
  }
  25% {
    fill:#FFFFFF;
  }
  50% {
    fill:#4183D7;
  }
  100% {
   fill:#FFFFFF;
  }}
	@keyframes TrasitR4{
   0% {
    fill:#FFFFFF;
  }
  25% {
    fill:#FFFFFF;
  }
  50% {
    fill:#FFFFFF;
  }
  100% {
   fill:#4183D7;
  }}
  	.R1{
		 animation : TrasitA1 5s linear infinite;
	}
	.R2{
		 animation : TrasitA2 5s linear infinite;
	}
	.R3{
		 animation : TrasitA3 5s linear infinite;
	}
	.R4{
		 animation : TrasitA4 5s linear infinite;
	}
	@keyframes TrasitA1{
   0% {
    fill:#F64747;
  }
  25% {
    fill:#FFFFFF;
  }
  50% {
    fill:#FFFFFF;
  }
  100% {
   fill:#FFFFFF;
  }	
}
@keyframes TrasitA2{
   0% {
    fill:#FFFFFF;
  }
  25% {
    fill:#F64747;
  }
  50% {
    fill:#FFFFFF;
  }
  100% {
   fill:#FFFFFF;
  }
  }
	@keyframes TrasitA3{
   0% {
    fill:#FFFFFF;
  }
  25% {
    fill:#FFFFFF;
  }
  50% {
    fill:#F64747;
  }
  100% {
   fill:#FFFFFF;
  }}
	@keyframes TrasitA4{
   0% {
    fill:#FFFFFF;
  }
  25% {
    fill:#FFFFFF;
  }
  50% {
    fill:#FFFFFF;
  }
  100% {
   fill:#F64747;
  }}
</style>
<defs>
    <linearGradient id="gradR1" x1="100%" y1="0%" x2="0%" y2="0%">
      <stop offset="0%" style="stop-color:rgb(246, 71, 71);stop-opacity:1" />
      <stop offset="100%" style="stop-color:#f88f8f;stop-opacity:1" />
    </linearGradient>
	<linearGradient id="gradR2" x1="0%" y1="100%" x2="0%" y2="0%">
      <stop offset="0%" style="stop-color:rgb(246, 71, 71);stop-opacity:1" />
      <stop offset="100%" style="stop-color:#f88f8f;stop-opacity:1" />
    </linearGradient>
	<linearGradient id="gradR3" x1="0%" y1="0%" x2="100%" y2="0%">
      <stop offset="0%" style="stop-color:rgb(246, 71, 71);stop-opacity:1" />
      <stop offset="100%" style="stop-color:#f88f8f;stop-opacity:1" />
    </linearGradient>
	<linearGradient id="gradR4" x1="0%" y1="0%" x2="0%" y2="100%">
      <stop offset="0%" style="stop-color:rgb(246, 71, 71);stop-opacity:1" />
      <stop offset="100%" style="stop-color:#f88f8f;stop-opacity:1" />
    </linearGradient>
	<linearGradient id="gradA1" x1="0%" y1="0%" x2="0%" y2="100%">
      <stop offset="100%" style="stop-color:#4183D7;stop-opacity:1" />
      <stop offset="0%" style="stop-color:#72aaf3;stop-opacity:1" />
    </linearGradient>
	<linearGradient id="gradA2" x1="0%" y1="0%" x2="0%" y2="100%">
      <stop offset="0%" style="stop-color:#4183D7;stop-opacity:1" />
      <stop offset="25%" style="stop-color:#72aaf3;stop-opacity:1" />
    </linearGradient>
	<linearGradient id="gradA3" x1="0%" y1="0%" x2="0%" y2="100%">
      <stop offset="0%" style="stop-color:#4183D7;stop-opacity:1" />
      <stop offset="50%" style="stop-color:#72aaf3;stop-opacity:1" />
    </linearGradient>
	<linearGradient id="gradA4" x1="0%" y1="0%" x2="0%" y2="100%">
      <stop offset="0%" style="stop-color:#4183D7;stop-opacity:1" />
      <stop offset="75%" style="stop-color:#72aaf3;stop-opacity:1" />
    </linearGradient>
	<linearGradient id="gradA5" x1="0%" y1="0%" x2="0%" y2="100%">
      <stop offset="0%" style="stop-color:#4183D7;stop-opacity:1" />
      <stop offset="100%" style="stop-color:#72aaf3;stop-opacity:1" />
    </linearGradient>
  </defs>
<g id="Capa_1_1_" class="st0">
</g>
<g id="Capa_4" class="st0">
	<path class="st1" d="M833.8,910.6c-0.6,12.1-1.1,22.9-1.6,34.8c-19.7,0-38.3,0-58.6,0c-0.8-11.5-1.6-22.8-2.4-34.7
		c-20.9-5.6-41.4-11.1-63.5-17.1c-5.7,9.2-11.7,19-18.9,30.6c-17.6-10.2-34.6-20.2-52.7-30.6c6.2-11.4,11.6-21.5,16.3-30.2
		c-16.6-15.6-32.1-30.2-49.1-46.3c-6.6,3.6-16.8,9-28.5,15.4c-10-17.3-19.7-34-29.2-50.3c1-1.9,1.3-3.5,2.2-4.1
		c26.6-18,26.5-18,18.6-48.5c-2.6-10-4.7-20.2-7.5-32.1c-11.4,0-22.8,0-35.8,0c0-21.6,0-41.3,0-62.2c11.9,0,22.8,0,34.5,0
		c5.7-19.4,11.5-37.7,16.1-56.4c0.9-3.5-2.3-9.5-5.4-12.1c-6.5-5.2-14.2-8.8-23.9-14.5c10-17.6,19.8-34.6,30.3-52.9
		c11.3,6.1,21.4,11.5,31.2,16.9c14.4-16.1,28.5-31.9,42.6-47.6c1.9,1,3.7,1.9,5.6,2.9c-5.8-10.5-11.6-21.1-18.3-33.2
		c17.7-10.2,34.3-19.8,52.4-30.3c7,11,13.5,21.1,20.1,31.4c21.2-5.6,41.7-11.1,63-16.8c0.5-11.7,1-23.3,1.6-36.1c19.8,0,38.9,0,59,0
		c0.6,12.5,1.2,24,1.7,35.9c21,5.7,41.5,11.3,62.9,17.1c6.5-10.1,13-20.3,20.2-31.5c17.8,10.2,34.6,19.8,52.2,29.9
		c-6.2,12-11.8,22.7-16.5,32c15.7,15.7,30.3,30.3,46.4,46.3c8.9-4.7,19.5-10.4,31.6-16.7c10.1,17.4,19.8,34.2,30.4,52.4
		c-10.9,6.7-21.2,13.1-31.4,19.4c4.8,19.1,8.7,37.4,14.3,55.3c1.2,3.8,7.9,7.4,12.5,8.1c8.1,1.3,16.5,0.4,25.9,0.4
		c0,21.1,0,40.3,0,58.1c-11.7,11.6-35.7-9.4-38.9,15.8c-3.2,24.9-32.4,56.8,18.1,69.8c-10.9,19.1-20.4,35.8-30.7,53.8
		c-11.3-6.1-21.3-11.5-29.4-15.9c-15.5,16.1-30.3,31.4-47,48.6c3.2,6.3,8.7,17,14.6,28.7c-17.7,10.3-34.5,20-52.1,30.2
		c-6.8-10.8-13-20.5-19.3-30.6C876.5,899.2,856,904.7,833.8,910.6z M972.1,585c-35.6,20.5-69.4,39.7-102.9,59.4
		c-9.2,5.4-10.4,38.9-1.4,44.3c34,20.1,68.4,39.5,104.1,60C996.6,694,997,641.1,972.1,585z M957.6,560.1
		c-36.6-49.1-82-75.3-142.1-81.3c0,41.9-0.2,81.3,0.3,120.6c0,3.4,3.7,7.9,6.9,9.9c8,5.2,16.7,9.3,25.3,13.9
		C884.1,602.5,919.8,581.9,957.6,560.1z M815.6,854.3c60.5-6,105.9-32.3,141.4-80.8c-35.8-20.7-69.1-42.2-104.7-58.6
		c-7.9-3.6-34.3,10.4-35,17.9C813.7,772.5,815.6,812.6,815.6,854.3z M633.9,587c-26.6,46.7-26,120,1,159.2
		c34-19.6,68.3-38.9,102-59.2c10.3-6.2,8-35.7-2.7-42C701.3,625.7,668.2,606.7,633.9,587z M786.6,480.1c-56.3,3.3-114.5,38-138.1,82
		c34,19.6,68,39.6,102.3,58.8c9.5,5.3,35.5-11.2,35.6-22.8C786.9,559.4,786.6,520.6,786.6,480.1z M786.6,853.2
		c0-40.6,0.3-80-0.2-119.3c-0.1-10.3-26.1-26.3-34.6-21.5c-34.8,19.5-69.2,39.7-103.8,59.7C677.9,818.5,731.2,849.9,786.6,853.2z
		 M836.6,666.5c-0.2-18.9-16.2-34.8-34.9-34.4c-18.6,0.4-34.1,17-33.5,35.8c0.6,17.9,16.3,33.4,34,33.4
		C820.9,701.4,836.7,685.4,836.6,666.5z"/>
	<path class="st1" d="M233.8,905.6c-0.6,12.1-1.1,22.9-1.6,34.8c-19.7,0-38.3,0-58.6,0c-0.8-11.5-1.6-22.8-2.4-34.7
		c-20.9-5.6-41.4-11.1-63.5-17.1c-5.7,9.2-11.7,19-18.9,30.6C71.2,909,54.2,899,36.1,888.6c6.2-11.4,11.6-21.5,16.3-30.2
		c-16.6-15.6-32.1-30.2-49.1-46.3c-6.6,3.6-16.8,9-28.5,15.4c-10-17.3-19.7-34-29.2-50.3c1-1.9,1.3-3.5,2.2-4.1
		c26.6-18,26.5-18,18.6-48.5c-2.6-10-4.7-20.2-7.5-32.1c-11.4,0-22.8,0-35.8,0c0-21.6,0-41.3,0-62.2c11.9,0,22.8,0,34.5,0
		c5.7-19.4,11.5-37.7,16.1-56.4c0.9-3.5-2.3-9.5-5.4-12.1c-6.5-5.2-14.2-8.8-23.9-14.5c10-17.6,19.8-34.6,30.3-52.9
		c11.3,6.1,21.4,11.5,31.2,16.9c14.4-16.1,28.5-31.9,42.6-47.6c1.9,1,3.7,1.9,5.6,2.9c-5.8-10.5-11.6-21.1-18.3-33.2
		c17.7-10.2,34.3-19.8,52.4-30.3c7,11,13.5,21.1,20.1,31.4c21.2-5.6,41.7-11.1,63-16.8c0.5-11.7,1-23.3,1.6-36.1c19.8,0,38.9,0,59,0
		c0.6,12.5,1.2,24,1.7,35.9c21,5.7,41.5,11.3,62.9,17.1c6.5-10.1,13-20.3,20.2-31.5c17.8,10.2,34.6,19.8,52.2,29.9
		c-6.2,12-11.8,22.7-16.5,32c15.7,15.7,30.3,30.3,46.4,46.3c8.9-4.7,19.5-10.4,31.6-16.7c10.1,17.4,19.8,34.2,30.4,52.4
		c-10.9,6.7-21.2,13.1-31.4,19.4c4.8,19.1,8.7,37.4,14.3,55.3c1.2,3.8,7.9,7.4,12.5,8.1c8.1,1.3,16.5,0.4,25.9,0.4
		c0,21.1,0,40.3,0,58.1c-11.7,11.6-35.7-9.4-38.9,15.8c-3.2,24.9-32.4,56.8,18.1,69.8c-10.9,19.1-20.4,35.8-30.7,53.8
		c-11.3-6.1-21.3-11.5-29.4-15.9c-15.5,16.1-30.3,31.4-47,48.6c3.2,6.3,8.7,17,14.6,28.7c-17.7,10.3-34.5,20-52.1,30.2
		c-6.8-10.8-13-20.5-19.3-30.6C276.5,894.2,256,899.7,233.8,905.6z M372.1,580c-35.6,20.5-69.4,39.7-102.9,59.4
		c-9.2,5.4-10.4,38.9-1.4,44.3c34,20.1,68.4,39.5,104.1,60C396.6,689,397,636.1,372.1,580z M357.6,555.1
		c-36.6-49.1-82-75.3-142.1-81.3c0,41.9-0.2,81.3,0.3,120.6c0,3.4,3.7,7.9,6.9,9.9c8,5.2,16.7,9.3,25.3,13.9
		C284.1,597.5,319.8,576.9,357.6,555.1z M215.6,849.3c60.5-6,105.9-32.3,141.4-80.8c-35.8-20.7-69.1-42.2-104.7-58.6
		c-7.9-3.6-34.3,10.4-35,17.9C213.7,767.5,215.6,807.6,215.6,849.3z M33.9,582c-26.6,46.7-26,120,1,159.2
		c34-19.6,68.3-38.9,102-59.2c10.3-6.2,8-35.7-2.7-42C101.3,620.7,68.2,601.7,33.9,582z M186.6,475.1c-56.3,3.3-114.5,38-138.1,82
		c34,19.6,68,39.6,102.3,58.8c9.5,5.3,35.5-11.2,35.6-22.8C186.9,554.4,186.6,515.6,186.6,475.1z M186.6,848.2
		c0-40.6,0.3-80-0.2-119.3c-0.1-10.3-26.1-26.3-34.6-21.5C117,726.9,82.6,747.1,48,767.1C77.9,813.5,131.2,844.9,186.6,848.2z
		 M236.6,661.5c-0.2-18.9-16.2-34.8-34.9-34.4c-18.6,0.4-34.1,17-33.5,35.8c0.6,17.9,16.3,33.4,34,33.4
		C220.9,696.4,236.7,680.4,236.6,661.5z"/>
	<path class="st1" d="M534,486.2c-0.6,12.1-1.1,22.9-1.6,34.8c-19.7,0-38.3,0-58.6,0c-0.8-11.5-1.6-22.8-2.4-34.7
		c-20.9-5.6-41.4-11.1-63.5-17.1c-5.7,9.2-11.7,19-18.9,30.6c-17.6-10.2-34.6-20.2-52.7-30.6c6.2-11.4,11.6-21.5,16.3-30.2
		c-16.6-15.6-32.1-30.2-49.1-46.3c-6.6,3.6-16.8,9-28.5,15.4c-10-17.3-19.7-34-29.2-50.3c1-1.9,1.3-3.5,2.2-4.1
		c26.6-18,26.5-18,18.6-48.5c-2.6-10-4.7-20.2-7.5-32.1c-11.4,0-22.8,0-35.8,0c0-21.6,0-41.3,0-62.2c11.9,0,22.8,0,34.5,0
		c5.7-19.4,11.5-37.7,16.1-56.4c0.9-3.5-2.3-9.5-5.4-12.1c-6.5-5.2-14.2-8.8-23.9-14.5c10-17.6,19.8-34.6,30.3-52.9
		c11.3,6.1,21.4,11.5,31.2,16.9c14.4-16.1,28.5-31.9,42.6-47.6c1.9,1,3.7,1.9,5.6,2.9C348.5,36.7,342.7,26.1,336,14
		c17.7-10.2,34.3-19.8,52.4-30.3c7,11,13.5,21.1,20.1,31.4c21.2-5.6,41.7-11.1,63-16.8c0.5-11.7,1-23.3,1.6-36.1c19.8,0,38.9,0,59,0
		c0.6,12.5,1.2,24,1.7,35.9c21,5.7,41.5,11.3,62.9,17.1c6.5-10.1,13-20.3,20.2-31.5c17.8,10.2,34.6,19.8,52.2,29.9
		c-6.2,12-11.8,22.7-16.5,32c15.7,15.7,30.3,30.3,46.4,46.3c8.9-4.7,19.5-10.4,31.6-16.7c10.1,17.4,19.8,34.2,30.4,52.4
		c-10.9,6.7-21.2,13.1-31.4,19.4c4.8,19.1,8.7,37.4,14.3,55.3c1.2,3.8,7.9,7.4,12.5,8.1c8.1,1.3,16.5,0.4,25.9,0.4
		c0,21.1,0,40.3,0,58.1c-11.7,11.6-35.7-9.4-38.9,15.8c-3.2,24.9-32.4,56.8,18.1,69.8c-10.9,19.1-20.4,35.8-30.7,53.8
		c-11.3-6.1-21.3-11.5-29.4-15.9c-15.5,16.1-30.3,31.4-47,48.6c3.2,6.3,8.7,17,14.6,28.7c-17.7,10.3-34.5,20-52.1,30.2
		c-6.8-10.8-13-20.5-19.3-30.6C576.7,474.8,556.1,480.3,534,486.2z M672.2,160.6c-35.6,20.5-69.4,39.7-102.9,59.4
		c-9.2,5.4-10.4,38.9-1.4,44.3c34,20.1,68.4,39.5,104.1,60C696.7,269.5,697.2,216.7,672.2,160.6z M657.8,135.7
		c-36.6-49.1-82-75.3-142.1-81.3c0,41.9-0.2,81.3,0.3,120.6c0,3.4,3.7,7.9,6.9,9.9c8,5.2,16.7,9.3,25.3,13.9
		C584.2,178.1,620,157.5,657.8,135.7z M515.7,429.9c60.5-6,105.9-32.3,141.4-80.8c-35.8-20.7-69.1-42.2-104.7-58.6
		c-7.9-3.6-34.3,10.4-35,17.9C513.8,348.1,515.7,388.2,515.7,429.9z M334.1,162.6c-26.6,46.7-26,120,1,159.2
		c34-19.6,68.3-38.9,102-59.2c10.3-6.2,8-35.7-2.7-42C401.5,201.2,368.3,182.3,334.1,162.6z M486.7,55.7
		c-56.3,3.3-114.5,38-138.1,82c34,19.6,68,39.6,102.3,58.8c9.5,5.3,35.5-11.2,35.6-22.8C487,135,486.7,96.2,486.7,55.7z
		 M486.7,428.8c0-40.6,0.3-80-0.2-119.3c-0.1-10.3-26.1-26.3-34.6-21.5c-34.8,19.5-69.2,39.7-103.8,59.7
		C378.1,394.1,431.4,425.5,486.7,428.8z M536.7,242.1c-0.2-18.9-16.2-34.8-34.9-34.4c-18.6,0.4-34.1,17-33.5,35.8
		c0.6,17.9,16.3,33.4,34,33.4C521.1,277,536.9,261,536.7,242.1z"/>
</g>
<g id="Capa_6">
	<g>
		<path class="st2" d="M465.3,635.7c-3.5-5.8-8.8-8.9-15.5-9.9c-1.2-6.2-2.4-12.3-3.6-18.3c10.2-7.5,13.3-18,8.1-27.5
			c-2.5-4.5-6.1-7.8-11-9.5c-6.3-2.2-12.4-1.3-18.2,2.1c-4.7-3.9-9.4-7.6-14-11.5c2.3-5.9,2-11.7-0.5-17.3
			c5.5-5.3,10.7-10.3,15.9-15.4c12.3,4.6,22.6,1.4,27.8-8.4c2.4-4.6,3-9.4,1.8-14.4c-1.7-6.8-6.2-11.4-12.5-14.2
			c0.1-1.1,0.1-1.9,0.1-2.8c0.4-7.1,1-14.2,1.2-21.3c0.1-2.2,0.8-3.2,2.9-4c9.6-3.6,14.6-14,12.1-23.8c-2.6-10.2-12.6-16.4-22.2-15
			c-1.3,0.2-2.5,0.4-3.9,0.6c-5.3-7.4-10.6-14.8-15.8-22.2c0.2-0.4,0.3-0.6,0.4-0.8c3.7-5.5,4.5-11.5,2.6-17.9
			c-0.4-1.3,0.1-2.1,0.9-2.9c3.9-4,7.8-8,11.7-12c1-1,1.9-2.1,2.8-3.2c5.8,2.6,11.3,3,16.9,0.7c5.6-2.2,9.4-6.2,11.5-11.9
			c3.4-9.2-0.1-22-13.7-26.6c-0.2-6.3-0.4-12.7-0.6-19.1c5.1-2.1,9-5.2,11.4-10c2.4-4.9,2.9-9.9,1.3-15.1c-1.4-4.6-4.1-8.3-8.1-10.9
			c-5.2-3.4-10.8-4-16.9-2.7c-4.2-6.4-8.4-12.7-12.6-19.1c3.6-4.7,5.1-9.9,4.4-15.6c-0.8-5.8-3.8-10.4-8.4-13.9
			c2.8-11.7,5.5-23.1,8.2-34.6c3.8-0.4,7.2-1.5,10.2-3.6c2.9-2.1,5.2-4.7,6.8-8c1.6-3.3,2.1-6.9,1.8-10.5c-0.4-4.7-2.3-8.8-5.5-12.2
			c-4.2-4.4-9.5-6.3-15.7-6.3c-3.7-8.6-7.4-17.1-11.1-25.6c10.5-10.5,7.4-23,1.8-29.1c-3.6-3.9-8-6.2-13.2-6.6
			c-7-0.6-12.8,2-17.5,7.1c-12.8-5.4-25.5-10.7-38.2-16c0-0.9,0-1.7,0-2.5c0-9.3-6.1-17.1-15.1-19.5c-1.1-0.3-2.1-0.6-3.2-0.9
			c-1.3,0-2.6,0-3.8,0c-0.4,0.2-0.9,0.4-1.3,0.5c-10.3,1.7-17.4,10.9-16.9,20.5c0,0.8,0,1.6,0,2.6c-12.6,6.1-25.2,12.2-37.9,18.4
			c-7.9-6.5-16.5-8-25.3-2.5c-8.5,5.3-10.7,13.5-8.6,23.2c-9,4.9-18,9.7-26.9,14.5c-9.8-6.2-18.1-6.5-25.5-1.1s-9.8,13.5-7,24.3
			c-5.8,5.2-11.7,10.4-17.6,15.6c-1.5-0.6-2.9-1.2-4.3-1.7c-8.8-2.9-18.6,0.7-23.4,8.6c-4.9,8-3.8,18.2,2.7,24.8
			c1.2,1.2,1.5,2.3,1.1,4c-1.4,5.2-2.6,10.4-3.9,15.6c-0.1,0.4-0.2,0.7-0.3,1.1c-10.8,1.8-19.2,10.1-17.9,23.9
			c-3.8,1.8-7.6,3.6-11.5,5.5c-0.6-0.5-1.1-0.9-1.6-1.3c-12.1-9.5-29.5-3.2-32.6,11.9c-1.8,8.8,2.7,17.9,10.9,22
			c1.4,0.7,2.3,1.4,2.5,3.1c0.2,1.6,0.6,3.1,1,4.7c0.4,1.3,0.1,2.2-1,3.1c-5.9,5-8,11.4-6.9,18.9c0.3,1.8,0.9,3.5,1.4,5.4
			c-0.4,0.3-0.9,0.7-1.4,1.1c-9,5.8-18,11.6-27,17.4c-1.1,0.7-2,0.8-3.3,0.2c-10.4-4.6-22.5,0.1-26.9,10.4
			c-4.5,10.6,0.4,22.4,11.1,26.8c0.6,0.2,1.2,0.5,1.9,0.8c0.8,3.8,1.6,7.6,2.3,11.5c1.1,5.3,2.1,10.7,3.2,16c0.3,1.4,0,2.1-1.1,3.1
			c-9,8-9.6,20.9-1.2,29.6c0.9,0.9,1.1,1.7,0.7,2.9c-3.1,10.2-6.1,20.3-9.1,30.5c-0.4,1.3-1,1.9-2.3,2.3
			c-7.6,2.3-12.3,7.4-14.2,15.1c-0.2,0.8-0.6,1.5-0.9,2.2c0,1.4,0,2.9,0,4.3c0.3,0.7,0.7,1.4,0.9,2.2c2.5,10.2,11.2,16.5,21.6,15.8
			c0.6,0,1.1-0.1,1.8-0.1c5.6,8,11.2,15.9,16.8,23.8c-7,10.8-4.2,21.1,2.3,27.5c-0.3,0.6-0.6,1.4-0.9,2.1
			c-2.6,5.5-5.3,10.9-7.8,16.5c-0.8,1.7-1.8,2.3-3.6,2.4c-8.2,0.7-14,4.9-17.1,12.4c-3.1,7.7-1.9,15,3.7,21.2
			c5.7,6.3,13,8.1,21.2,5.7c0.4-0.1,0.8-0.3,1.1-0.4c0.4-0.1,0.7-0.3,1.3-0.4c4.7,3.9,9.5,7.8,14.2,11.6c-0.4,2.8-0.9,5.4-1,8
			c-0.1,8.4,4.9,15.7,12.8,18.8c1.5,0.6,2.2,1.3,2.5,3c1.7,9.5,3.6,19,5.4,28.5c0.1,0.5,0.1,1.1,0.2,1.8c-5.2,3.1-8.8,7.6-10.1,13.6
			c-1,4.6-0.4,9.1,1.7,13.3c4.4,9,13.1,12.6,25.1,10.3c5.4,6.3,10.9,12.7,16.3,19.1c-4.1,12.3-0.7,22.3,9.2,27.3
			c7.7,3.9,19.7,3.2,27-8.3c10.5,2.4,21.2,4.8,31.7,7.3c1.7,10.7,7.8,16.9,18.3,18.8c0.9,4.3,1.7,8.6,2.6,12.8
			c-9.4,8.4-11.8,17.4-7.1,26.6c2.4,4.7,6.1,7.9,11.1,9.7c4.8,1.8,9.7,1.5,14.7-0.2c3.4,4.1,6.7,8.1,10,12.1
			c-6.8,12.7-1,23.6,6.2,28.1c9.1,5.8,19.4,3.8,28.1-5.7c11.3,2.2,22.8,4.4,34.3,6.6c1,3.5,2.6,6.5,5,9c2.8,2.9,6.1,4.8,10,5.8
			c0.5,0.1,1,0.3,1.6,0.5c2.1,0,4.2,0,6.2,0c0.6-0.2,1.2-0.4,1.8-0.6c8.5-2.5,13.7-8,15.1-16.8c0.2-1.5,0.9-2.2,2.2-2.7
			c8.5-3.5,16.9-7.2,25.4-10.7c0.6-0.3,1.3-0.5,1.9-0.7c9.1,9.5,20.5,8.1,27.1,3.4c3.9-2.8,6.6-6.5,7.9-11.1c1.6-6,0.7-11.7-2.7-17
			c3.9-4.9,7.8-9.7,11.5-14.6c1.1-1.4,2-1.7,3.8-1.3c9.8,2.5,19.5-2.3,23.6-11.5c4-8.9,0.9-19.4-7.4-25c-0.5-0.4-1-0.7-1.6-1.1
			c0.8-4.2,1.6-8.4,2.5-12.7c5.1-0.4,9.5-2.3,13.1-5.8c3.7-3.6,5.7-8.1,6-13.2c0.2-4.5-0.8-8.7-3.4-12.5c-3.7-5.5-9.1-8.3-15.6-9
			c-1.6-6.5-3.1-12.9-4.7-19.2c5.6-3.7,8.9-8.8,9.7-15.3c0.7-6.6-1.6-12.2-6.1-17c3.3-6.7,6.5-13.2,9.7-19.5
			c7.9,0,11.3-0.9,15.2-3.8c4.4-3.3,7.2-7.7,8-13.2C468.7,644.5,467.9,639.9,465.3,635.7z"/>
		<path class="st3" d="M910.7,469.2c-0.3-2.1-0.4-4.1-0.8-6.2c-2.6-14.1-8.4-26.8-17-38.2c-2-2.7-2.3-5.2-0.9-8.2
			c5.6-12.8,8.5-26.1,8.2-40.1c-0.2-13.3-3.4-25.9-9.5-37.8c-6.5-12.7-15.7-23.1-27-31.7c-2.6-2-4.3-4.5-5-7.6
			c-0.2-1.1-0.5-2.2-0.8-3.3c-6.6-24.9-20.8-43.8-43.8-55.8c-1.4-0.7-2.8-1.5-4.2-2.3c-2.7-1.5-3.8-3.8-3.9-7c0-2.7-0.1-5.5-0.6-8.1
			c-2.6-12.7-6.8-24.8-13.2-36.1c-10.6-18.8-25.4-33.4-44.7-43.2c-12.3-6.3-25.4-10.1-39.1-11.3c-6-0.5-10.5-3-13.3-8.4
			c-0.4-0.8-0.9-1.5-1.3-2.3c-6.6-11.6-14.9-21.8-25.3-30.2c-24-19.4-51.3-27.6-81.9-23C563,72,542.8,82.7,526,99.5
			c-12.9,12.9-22,28.2-27.4,45.6c-5,16.1-6.2,32.6-3.7,49.3c1.8,11.9,5.7,23.1,10.9,33.9c2,4.2,4,8.3,6.3,13c-0.9,0.8-2,1.5-2.9,2.4
			c-9.4,9.6-17,20.6-22.4,33c-4.9,11.2-7.7,23-8.7,35.2c-1.1,13.4-0.2,26.7,3.3,39.7c4.3,16.2,12.1,30.6,22.7,43.4
			c0.6,0.7,1.2,1.5,1.7,2.1c-18.1,23.6-26.3,50-24.3,79.4c1.9,29.5,14.1,54.3,34.9,75c-0.1,0.2-0.1,0.4-0.2,0.5
			c-1.3,1.3-2.6,2.6-3.8,4c-23,25.3-32.3,55.2-29.1,89c1.8,18.8,8.2,36.1,18.9,51.7c2,3,2.2,5.8,0.9,9c-5.1,12.4-8.4,25.3-9.7,38.7
			c-1.7,18.1-0.2,36,5,53.4c11.4,37.9,35.1,65.3,70.7,82.5c17,8.2,35,12,53.8,12.1c7.8,0.1,15.5-0.7,23.1-2.2
			c27.3-5.3,50.3-18.2,69.4-38.2c17.9-18.8,29.2-41,34.1-66.5c0.8-4,2-5.1,6-5.7c12.2-1.9,23.8-5.7,34.7-11.3
			c18.5-9.4,33.9-22.5,46.4-39.1c10.8-14.4,18.5-30.2,22.6-47.8c1.8-7.7,2.5-15.6,3.1-23.5c0.7-9,3.9-16.7,10.8-22.8
			c6-5.4,10.3-12,13.3-19.4c4.9-12.5,5.4-25.4,3.5-38.5c-1.4-9.7-5.1-18.6-10.3-26.9c-0.5-0.8-1-1.6-1.3-2.2
			c3.2-3.2,6.4-6.1,9.3-9.2c12.1-13.3,20-28.8,22.8-46.7c0.3-2,0.5-3.9,0.8-5.9c0-5.1,0-10.2,0-15.4
			C911,470.6,910.8,469.9,910.7,469.2z"/>
	</g>
</g>
<g id="Capa_2_1_">
	<g>
		<path class="st4" d="M341.8,455c-7.6,7.5-9.1,16.1-4.5,25.8c-7.6,8.5-15.1,16.9-22.8,25.5c-3.8-1.6-7.7-2-11.7-1.3
			c-4.1,0.6-7.5,2.5-10.8,5.5c-7.6-6.1-15.1-12.3-22.8-18.4c2.8-6.5,2.8-13-0.8-19.2s-9.2-9.4-16.3-10.1c-0.8-16.6-1.7-33-2.5-49.5
			c10.4-2.3,16.3-8.7,17.6-19.3c9.9-0.6,19.8-1.3,29.6-1.9c4.2,10.2,11.6,14.8,22.7,14.1C327,422.5,334.4,438.8,341.8,455z"/>
		<path class="st4" d="M360.2,450.9c-3.8-0.6-7.4-0.9-11.3,0.3c-7.3-16-14.5-31.8-21.7-47.8c7.9-5.8,11.3-13.5,8.6-22.9
			c-2.7-9.5-9.8-14.2-19.7-14.8c-2.8-17.9-5.5-35.7-8.2-53.6c4.4-1.5,7.9-4,10.7-7.8c12,3.7,24,7.3,36,11c0.1,5.5,1.9,10.4,5.7,14.4
			s8.6,5.9,14.2,6.3c4.4,13.2,8.7,26.3,13.1,39.4c-4.9,4.1-7.7,9.1-7.9,15.4c-0.3,6.3,2.1,11.5,6.7,16.1
			C377.7,421.5,369,436.2,360.2,450.9z"/>
		<path class="st4" d="M174.9,456.2c-0.1-15.3-13.8-24.8-28.2-20c-7.3-12.9-14.7-25.9-22.2-39c3.4-3,5.8-6.5,7.1-11
			c31.9,3.9,63.7,7.8,95.5,11.7c2.2,7.6,7,12.4,14.4,14.9c0.8,17,1.7,34,2.6,51.2c-5.6,2.2-9.7,6-12.1,11.8
			C212.9,469.2,194,462.7,174.9,456.2z"/>
		<path class="st4" d="M172.8,464c19.4,6.7,38.6,13.2,57.9,19.9c0.6,7.4,3.9,13.1,10.6,17.1c-1.8,16.5-3.9,33.1-5.9,50
			c-5.5,1-10.1,3.5-13.7,8.1c-21.3-7-42.6-14-63.9-21c0.3-9.8-4-16.7-13-21c2.9-13.8,5.7-27.6,8.6-41.6
			C162,475.4,168.5,471.8,172.8,464z"/>
		<path class="st4" d="M239,374.4c-6.6,3.1-10.5,8.2-12.1,15.3c-31.6-3.9-63.1-7.7-94.8-11.6c-0.9-4.2-2.6-8.1-5.8-11.3
			c0.6-0.8,1.1-1.4,1.6-2c11.9-13.6,23.8-27.2,35.6-40.9c0.9-1.1,1.8-1.5,3.3-1.3c9.4,1.4,18.5-4.3,21.7-13.3
			c0.3-0.7,0.5-1.5,0.8-2.5c8.9,0.6,17.9,1.2,26.8,1.7c2.9,9.1,9.1,14.1,18.6,15.3C236.1,340.8,237.5,357.5,239,374.4z"/>
		<path class="st4" d="M327.9,584.9c-4.7-13.8-9.3-27.3-13.9-40.9c14.4-7,15.7-23.2,7.2-33c7.1-8,14.3-16,21.5-24.1
			c4.6,3,9.4,4.5,14.8,3.8c5.4-0.7,9.8-3.3,13.4-7.5c14.6,7.4,29.2,14.9,43.8,22.3c-0.1,2.7-0.5,5.2-0.3,7.7s1,5,1.6,7.9
			c-5,4.9-10.3,10-15.6,15.1c-9.2-3.8-17.6-3.2-24.6,4.1c-6.4,6.8-7,14.7-3.3,23.4c-8.5,8.3-17.2,16.7-25.9,25.3
			C341.1,584.8,335,583.3,327.9,584.9z"/>
		<path class="st4" d="M148.9,592.6c-8.4,4.6-12.3,11.6-11.7,21.2c-13.1,6-26.3,11.9-39.6,17.9c-3.2-4.6-7.4-7.8-12.9-8.9
			c-5.4-1.1-10.5-0.2-15.5,2.8c-2.2-1.8-4.4-3.6-6.6-5.4c-2.2-1.8-4.3-3.5-6.6-5.4c4.6-10.1,3-19-5.4-26.6c3.1-6.5,6.2-13,9.3-19.6
			c6,0.6,11.4-0.7,15.9-4.6c4.6-3.9,6.9-8.9,7.2-15.1c11.6-2.1,23.3-4.1,34.8-6.2c4.3,9.3,10.8,13.4,20.5,13.7
			C142,568.5,145.4,580.4,148.9,592.6z"/>
		<path class="st4" d="M44.2,482.3c-2.3-3.9-5.4-6.6-9.5-8.6c3-10.2,6.1-20.3,9.1-30.6c7.9,0.2,14.5-2.4,19-9.2
			c4.4-6.7,4.3-13.8,0.8-21.2c10.6-6.5,21.1-13,31.8-19.5c5.6,7,12.8,9.5,21.8,7.7c7.6,13.3,15.1,26.6,22.8,40
			c-4.2,4.5-6.2,9.8-5.8,16.3C104.3,465.5,74.3,473.8,44.2,482.3z"/>
		<path class="st4" d="M323.7,222c-12.7-0.2-25.4-0.4-38.2-0.6c-3.8-9.9-11.1-14.8-21.7-14.5c-1.4-5.4-2.7-10.6-4.1-16
			c11.1-3.4,17.4-10.6,16.3-22.5c-0.9-9.7-7.1-15.3-16.5-17.8c0-6.5,0-13,0-19.7c4.3-1.2,8-3.5,11-7.2c16.8,9,33.5,17.9,50.2,26.8
			c-0.4,10.7,4.1,18.2,14.5,22.2c1.2,10.5,2.4,21.1,3.6,31.7C330.3,207.3,325.3,212.9,323.7,222z"/>
		<path class="st4" d="M136.8,515.8c-5.4,0.4-9.9,2.2-13.5,5.9c-3.6,3.6-5.5,8-6.1,13.2c-11.8,2.1-23.4,4.1-35.2,6.2
			c-5.4-10.3-13.6-14.3-25.2-11.9c-5.2-7.4-10.5-15-15.9-22.6c4.3-4.6,6.3-10,5.8-16.6c30-8.4,59.9-16.7,90-25.1
			c2.2,3.8,5.1,6.6,9,8.6C142.6,487.5,139.7,501.6,136.8,515.8z"/>
		<path class="st4" d="M332.3,726.4c-8.3,1.3-13.8,5.7-17,13.2c-17.3-5-34.5-10.1-51.8-15.1c0.6-11.6-4.5-19.2-15.6-23
			c2.7-10.7,5.3-21.3,8-32c7-0.3,12.8-2.9,17-8.6c17.8,3.7,35.5,7.4,53.4,11.2c0.8,3.3,2,6.4,4.1,9.1c2.1,2.7,4.8,4.6,8.2,6.2
			C336.6,700.4,334.4,713.4,332.3,726.4z"/>
		<path class="st4" d="M155.3,545.8c21,6.9,41.8,13.7,62.8,20.6c-1,6.4-0.1,12.3,4.1,17.4c4.2,5.1,9.6,7.5,16.4,7.6
			c3.2,13,6.3,26,9.3,38.6c-3,2.6-5.9,5-9.1,7.7c-20.1-8.2-40.6-16.6-61.2-25c0.3-6-1.4-11.3-5.6-15.6c-4.1-4.3-9.2-6.3-15.3-6.3
			c-3.5-12.1-6.9-24.2-10.4-36.5C150.2,552.4,153.1,549.6,155.3,545.8z"/>
		<path class="st4" d="M300.8,873.9c-10.6-2-21-4.1-31.5-6.1c-0.5-7.3-3.7-13.1-9.9-17.2c5.8-13.5,11.5-26.9,17.3-40.3
			c18.6,3.5,30.5-13.7,23.5-29c7.9-5.7,15.8-11.5,23.5-17.1c3.3,1,6.3,2,9.7,3.1c1.5,8.3,3.2,16.9,4.7,25.5c-1.3,1-2.5,1.8-3.5,2.7
			c-6.8,6.1-8.7,15.8-4.7,24.1c0.7,1.4,0.7,2.6,0.2,4c-4.4,11.7-8.7,23.5-13,35.3c-0.6,1.5-1.2,2.4-3,2.9
			c-5.5,1.6-9.5,5.1-12.1,10.2C301.6,872.6,301.2,873.2,300.8,873.9z"/>
		<path class="st4" d="M413.6,259.2c4.2,6.3,8.3,12.6,12.3,18.6c-1.2,2.7-2.6,5.2-3.5,7.8c-0.6,1.7-0.8,3.6-0.7,5.4
			c0,1.6-0.8,2-2,2.5c-7.5,2.9-14.9,5.8-22.3,8.7c-1.8,0.7-3.6,1.4-5.5,2.1c-5.4-7.3-12.6-10.1-21.7-8.6c-5.4-18-10.8-36-16.2-54.1
			c4.9-3.1,8.2-7.3,9.5-12.8s0.4-10.6-2.5-15.7c16.7-10.6,33.2-21.2,49.8-31.8c1.7,1.4,3.3,2.8,5.1,4.3c-2.6,11.1-5.3,22.2-7.9,33.4
			c-14.8,1-21.9,12.6-20.2,23.8C389.4,252.6,398.8,262.4,413.6,259.2z"/>
		<path class="st4" d="M93.2,692.4c-2-10.3-3.9-20.4-5.9-30.6c9.6-4.4,14.1-11.8,13.2-22.5c13-5.9,26.1-11.8,39.3-17.8
			c4.6,7,11,10.2,19.4,9.9c3.3,13.1,6.7,26.1,10,39.2c-7.8,4.2-11.8,10.7-11.7,19.7c-2.2,0.4-4.2,0.8-6.2,1.2
			c-14.6,2.5-29.1,5.1-43.7,7.6c-0.8,0.1-1.5,0.3-2.2-0.4C102.3,695.2,98.2,693.2,93.2,692.4z"/>
		<path class="st4" d="M189.5,298.8c-2.6-11.1-13.1-19.6-27.8-15.2c-5-8.8-9.9-17.6-14.9-26.3c9.5-11.5,5.7-25.7-5.1-32.2
			c1.4-5.5,2.7-11,4.1-16.8c6.4,0.2,11.9-1.7,16.4-6.3c7.1,4.6,14.2,9.2,21.1,13.7c-5.1,16.1,7.4,29.9,23.3,27.5
			c6,14.4,12,28.8,18.2,43.4c-4.7,3.4-7.8,7.9-8.9,14C207.1,300,198.3,299.4,189.5,298.8z"/>
		<path class="st4" d="M295.1,775c-7.6-5.4-15.5-6.5-23.5-1.8s-10.8,12.2-9.7,21.5c-3.1,1.5-6.3,3-9.4,4.5
			c-7.7,3.6-15.3,7.2-23,10.8c-1.5,0.7-2.5,0.7-3.9-0.4c-2.9-2.3-5.5-3.1-11-3.9c-0.8-3.9-1.7-7.9-2.5-12.2
			c5.9-3.6,9.7-8.8,10.4-15.7s-1.7-12.7-6.8-17.6c5.3-7.4,10.6-14.7,15.9-21.9c11.1,6.4,22.4,3.3,29.1-6.2
			c17.7,5.2,35.6,10.4,53.4,15.6c0.3,3.9,1.5,7.3,3.7,10.7C310.2,764,302.6,769.5,295.1,775z"/>
		<path class="st4" d="M308.2,367.5c-6.9,3.4-10.9,8.9-12,16.6c-10,0.6-20,1.3-30.1,1.9c-3.7-8.3-10-12.8-19.2-13.3
			c-1.4-16.7-2.8-33.2-4.2-49.9c7.3-3.1,11.9-8.5,13.3-16.4c9.1-1.8,18.2-3.5,27.3-5.3c3.5,6.8,9,10.7,16.4,11.8
			C302.6,331.2,305.4,349.3,308.2,367.5z"/>
		<path class="st4" d="M336.6,650.8c-5.1,3.1-8.4,7.3-10,13.1c-16.8-3.5-33.4-7-50.3-10.5c0.9-6.5-0.2-12.3-4.4-17.3
			c-4.1-4.9-9.5-7.1-16-7.4c-3.1-13-6.3-26.1-9.4-39.2c4-2,7.1-4.8,9.3-8.8c19.1,8.2,38,16.3,57.1,24.5c1.4,10.8,7.3,17.4,18.2,19.5
			C332.9,633.4,334.7,642,336.6,650.8z"/>
		<path class="st4" d="M258.3,573.1c0.1-10.7-4.8-17.8-14.9-21.6c1.9-15.9,3.8-31.9,5.7-48c5.7,0.2,10.8-1.3,15.1-4.9
			c7.8,6.3,15.5,12.5,23.1,18.7c-4.7,14.5,4.5,27.2,18.7,28.2c4.8,14.3,9.7,28.6,14.6,43c-1.3,1.4-2.5,2.6-3.6,4
			c-1,1.4-1.8,3-2.8,4.6C295.5,589,276.9,581,258.3,573.1z"/>
		<path class="st4" d="M100.3,330c11.1-5.6,13.5-15.6,12-23.1c-1.8-8.9-8.5-14.4-20-16.3c-0.3-1.4-0.6-2.8-0.9-4.2
			c11.8-5.8,14.9-10.7,14.6-23.6c1.8-0.9,3.7-1.8,5.6-2.7c1.9-0.9,3.7-1.8,5.6-2.6c9.5,6.5,11.2,6.9,22.8,4.6
			c4.9,8.7,9.9,17.4,14.9,26.3c-4,4.5-6.1,9.7-5.7,15.8c0.4,6.1,3.3,10.9,8,14.9c-12.6,14.5-25.1,28.8-37.4,42.9
			c-3.7-0.4-7.2-0.8-11-1.3C106,350.7,103.2,340.4,100.3,330z"/>
		<path class="st4" d="M236.4,645.5c-1,10.1,2.9,17.4,11.6,22.2c-0.1,0.6-0.2,1.2-0.3,1.8c-2.5,10.1-5.1,20.1-7.5,30.2
			c-0.3,1.2-0.8,1.9-2.1,2.2c-3.5,0.8-6.5,2.7-9.2,5.3c-10.2-5.2-20.3-10.4-30.6-15.6c0.3-6.1-1.1-11.6-5.3-16.1
			c-4.1-4.5-9.3-6.6-15.6-6.5c-3.4-13.3-6.8-26.5-10.2-39.9c3.5-2,6.3-4.8,8.4-8.5C195.8,628.9,216,637.2,236.4,645.5z"/>
		<path class="st4" d="M377.6,570c8.1,5.5,15.7,5.6,23.7,1.4c4.6,3.8,9.4,7.6,14.2,11.6c-2.4,7.4-1.6,14.2,3.1,20.4
			c-1,1.6-53.6,46.2-58.8,49.9c-4.4-3.6-9.5-5.3-15.4-4.9c-1.8-8.2-3.5-16.3-5.2-24.5c6-2.1,10.3-5.8,12.8-11.5
			c2.4-5.7,2.1-11.4-0.4-17.1C360.2,586.9,368.9,578.5,377.6,570z"/>
		<path class="st4" d="M274.2,116.5c0.2-1.9,0.4-3.4,0.4-4.9c0.1-1.4,0-2.9,0-4.5c12.4-6,24.8-12,37.4-18.1c4.3,4,9.3,6.5,15.3,6.3
			c5.9-0.1,10.8-2.5,14.9-6.8c12.8,5.4,25.5,10.7,38.3,16c0.2,2,0.3,3.9,0.6,5.8c0.3,1.8,0.9,3.5,1.5,5.5
			c-8.7,7.8-17.5,15.7-26.4,23.7c-4.7-4.8-10.4-7.3-17.1-6.6c-6.7,0.6-11.9,4-15.7,9.9C307,134,290.6,125.3,274.2,116.5z"/>
		<path class="st4" d="M324.4,230c4,10.1,11.3,14.8,22.1,14.3c5.5,18.3,11,36.6,16.3,54.5c-2.3,2.8-4.4,5.4-6.8,8.4
			c-11-3.2-22.4-6.8-34-10.3c1-7.6-0.8-14.3-6.6-19.4s-12.6-6.1-20.3-4c-5.2-10.3-10.5-20.5-15.7-30.6c1.6-2.2,3.2-4.1,4.3-6.2
			c1.1-2.2,1.8-4.6,2.8-7.2C298.9,229.6,311.6,229.8,324.4,230z"/>
		<path class="st4" d="M211.8,157.7c8.2,2.9,16.2,5.7,24.2,8.5c-0.6,3.4-0.6,6.6,0.3,9.7c1.9,6.8,6.2,11.5,12.8,13.8
			c1.6,0.6,2.3,1.3,2.7,2.9c1.2,5.1,2.5,10.1,3.8,15.1c0.1,0.5,0.2,1.1,0.3,1.8c-4.4,2.5-7.4,6.2-9.2,11c-8.1-0.2-16.1-0.4-24.2-0.5
			c-1.8-8-6.2-13.6-14-16.1c-7.8-2.4-14.7-0.5-20.8,5.1c-7.1-4.6-14.1-9.1-21.2-13.7c1.5-5.2,1.6-10.3-0.7-15.6
			c5.8-5.1,11.5-10.2,17.4-15.5c4.9,2.8,10.1,4,15.7,2.7C204.4,165.6,208.6,162.5,211.8,157.7z"/>
		<path class="st4" d="M393.4,410.9c4.4,1.3,8.6,1.3,12.9,0c5.3,7.5,10.6,14.9,16,22.4c-3.7,5.5-5.1,11.4-3.3,17.8
			c1.8,6.4,6,10.8,12.3,13.6c-0.5,9-1.1,18.1-1.6,27.2c-4.2,1.3-7.8,3.3-10.7,6.8c-14.8-7.5-29.5-15-44.3-22.6
			c1.7-8.4-0.3-15.6-7.1-21.4C376.1,440.1,384.7,425.6,393.4,410.9z"/>
		<path class="st4" d="M195.7,699.4c9.5,4.8,18.9,9.7,28.6,14.6c-1.9,6.3-1.7,12.3,1.7,18.2c-5.8,8-11.5,15.9-17.3,24
			c-10-2.4-18.1,0.6-23.9,9.2c-10.7-2.5-21.4-4.9-31.9-7.3c-2.2-7.6-1.6-7.5-8.2-14.5c3.3-4.1,6.7-8.2,10-12.2
			c5.7-7,11.4-14,17.2-21c0.7-0.9,1.3-1.6,2.7-1.4c8.3,1.3,15-1.6,20.1-8.4c0.2-0.3,0.5-0.6,0.7-1
			C195.4,699.7,195.5,699.6,195.7,699.4z"/>
		<path class="st4" d="M355.7,207.2c-3.1-1.2-5.9-2.3-9-3.5c-1.1-9.9-2.3-19.9-3.4-30.2c0.8-0.2,1.5-0.5,2.3-0.6
			c10.7-2.6,17.4-13,15.2-23.7c-0.4-1.7-0.1-2.7,1.2-3.9c8-7.1,16-14.3,23.9-21.4c0.6-0.5,1.2-1,1.9-1.6c4.5,3.5,9.4,5.1,15.3,4.6
			c3.6,8.3,7.2,16.6,10.9,25.1c-6.8,6-9.3,13.4-7,22.5C389.9,185.4,372.6,196.3,355.7,207.2z"/>
		<path class="st4" d="M412.7,760c0.8,6.9,3.9,12.2,9.7,15.9c-0.9,4.5-1.7,8.9-2.6,13.4c-9.1,1.5-14.9,6.7-17.6,15.4
			c-11.5,0.2-22.9,0.4-34.5,0.7c-1.5-4.8-4.1-8.7-8.1-11.5c-4.1-2.9-8.7-3.8-13.7-3.5c-1.5-8.2-3-16.3-4.6-24.5c3-1.3,5.7-2.9,8-5.2
			c2.2-2.3,3.7-5.2,4.9-8.3C373.6,754.9,393,757.4,412.7,760z"/>
		<path class="st4" d="M272.3,246.6c5.3,10.4,10.6,20.7,15.9,31.1c-4.3,4.2-6.4,9.3-6.5,15.5c-8.6,1.7-17.2,3.4-25.9,5.1
			c-4.1-10.8-11.9-15.8-23.4-14.7c-6.1-14.5-12.1-29-18.3-43.7c4-3,6.9-6.9,8.1-11.9c7.9,0.2,15.6,0.4,23.3,0.6
			C247.4,242.2,259,249.9,272.3,246.6z"/>
		<path class="st4" d="M92.1,385.6c-11.3,6.9-22.5,13.8-33.9,20.8c-3.6-2.5-7.7-4-12.5-4c-1.7-8.6-3.5-17.2-5.2-26
			c5.6-2.3,9.8-5.9,12.1-11.4c2.2-5.4,2.1-10.9-0.3-16.5c0.5-0.4,1-0.9,1.6-1.2c9-5.8,18-11.6,27-17.4c1.1-0.7,2-0.8,3.3-0.3
			c2.5,0.9,5.2,1.5,8.2,2.3c2.9,10.4,5.8,21.1,8.8,31.9C93.6,369.1,90.6,376.4,92.1,385.6z"/>
		<path class="st4" d="M426.1,358.9c-5.1,5.3-10,10.4-15.1,15.6c-4.9-2.9-10.1-3.9-16-2.6c-4.1-12.4-8.3-24.8-12.5-37.4
			c9.3-4.6,13.5-12.1,12.4-22.6c9.6-3.8,19.2-7.5,28.8-11.3c0.4,0.5,0.7,0.8,0.9,1.2c2.5,3.9,5.9,6.7,10.3,8.3
			c1,0.3,1.7,0.7,1.7,1.9c0.1,5.9,0.3,11.8,0.5,17.8c-5.7,2.3-10,6.1-12.2,11.8C422.9,347.5,423.3,353.2,426.1,358.9z"/>
		<path class="st4" d="M399.5,709c-16.5,8-33.1,16-49.9,24.1c-2.6-2.7-5.5-4.7-9.3-5.9c2.1-12.8,4.2-25.5,6.2-38.3
			c5.6-0.2,10.3-2.2,14.3-6c12.6,5.3,25.2,10.6,37.5,15.8C398.8,702.1,399.2,705.4,399.5,709z"/>
		<path class="st4" d="M122.6,742.3c-5.1-6-10.1-11.8-14.9-17.4c1.1-3,2.3-5.8,3-8.7c0.7-3,0.4-6-0.4-9.4c8.3-1.6,16.5-2.9,24.7-4.4
			c8.2-1.4,16.3-2.9,24.2-4.2c2.1,2.5,3.9,4.8,5.9,7.2c-0.5,0.7-1.2,1.6-1.9,2.4c-8.4,10.2-16.7,20.4-25,30.7c-1,1.3-2,1.8-3.6,1.5
			C130.6,739.4,126.7,740.4,122.6,742.3z"/>
		<path class="st4" d="M354.7,744.2c-0.3-1.4-0.6-2.6-1-4.1c16.8-8.1,33.6-16.2,50.5-24.4c3.7,3.6,8.1,5.7,13.5,6.2
			c1.6,6.4,3.2,12.8,4.8,19.3c-4.1,2.6-7,6.2-8.8,10.8C394,749.4,374.4,746.9,354.7,744.2z"/>
		<path class="st4" d="M436,629.3c-6.9,4.9-9.4,9-10.4,17.1c-19.7,5.2-39.6,10.5-59.7,15.9c-0.4-0.8-0.7-1.5-1.1-2.4
			c2.2-1.8,4.2-3.6,6.3-5.3c17.5-14.8,35.1-29.5,52.6-44.4c1.3-1.1,2.3-1.3,3.8-0.6s3.2,0.9,4.9,1.4
			C433.6,617.1,434.8,623.2,436,629.3z"/>
		<path class="st4" d="M426.6,654.5c1.8,2.7,3.4,5,5.1,7.6c-3.1,6.3-6.3,12.7-9.6,19.4c-8.7-0.9-15.7,2.1-20.7,9.6
			c-12-5-23.9-10-36-15.1c0.4-1.8,0.8-3.6,1.2-5.6C386.7,665.1,406.8,659.8,426.6,654.5z"/>
		<path class="st4" d="M324.6,861.4c4.2-11.3,8.2-22.3,12.4-33.5c6,3.4,12.2,4,18.7,1.5c4.1,5.1,8.3,10.2,12.6,15.5
			c-2.7,4.1-3.9,8.7-3.5,13.7c-9.2,3.9-18.3,7.8-27.6,11.7C334.1,865.9,330.1,862.8,324.6,861.4z"/>
		<path class="st4" d="M251.9,847.6c-3.8,0.5-7.3,0.9-11.2,1.4c-3-3.6-6.3-7.6-9.7-11.7c3.6-6.2,4.2-12.8,1.4-19.7
			c11-5.1,21.8-10.2,32.7-15.3c1.5,1.5,2.8,2.9,4.3,4.5C263.5,820.5,257.6,834.2,251.9,847.6z"/>
		<path class="st4" d="M368,813.6c11.4-0.2,22.5-0.4,33.5-0.6c1.2,3,2.3,5.6,3.4,8.5c-4.1,5.2-8.4,10.7-12.8,16.2
			c-6.2-2-12.2-1.6-18,1.7c-3.9-4.8-7.7-9.6-11.7-14.5C365.4,821.7,367.2,818,368,813.6z"/>
		<path class="st4" d="M239.1,158.7c-8-2.8-16.2-5.7-24.4-8.5c-0.1-2.6-0.2-5.2-0.4-8c9.1-4.9,18.3-9.9,27.2-14.7
			c3.3,1.4,6.3,2.7,9.4,4.1c0.4,1.4,0.5,16.3,0.1,19.1c-2.2,1.1-4.4,1.9-6.4,3.3C242.7,155.2,241.1,156.9,239.1,158.7z"/>
		<path class="st4" d="M516.1,715.5c1,0.9,1.9,1.6,2.7,2.3c12.5,10.3,26.2,18.2,41.9,22.5c12.8,3.5,25.8,4.4,39,2.9
			c10.5-1.2,20.6-3.8,30.5-7.4c0.7-0.2,1.4-0.5,2.3-0.8c0.6,0.9,1.2,1.8,1.8,2.7c5.6,8.3,11.2,16.6,16.7,24.9c2.1,3.1,5,4.8,8.4,6.1
			c3.3,1.2,9-2.4,8.9-6.5c0-3.2-0.6-6-2.4-8.6c-3.7-5.4-7.4-10.8-11-16.3c-4.7-7.1-8.1-14.9-9.7-23.3c-2.2-11.4-0.8-22.4,3.6-33.1
			c2-4.8,4.2-9.5,7.4-13.7c0.7-1,1.3-2.3,1.3-3.5c-0.1-4-0.6-7.9-0.9-12.1c-3.7,0.7-7,1.4-10.4,2.1c-1.3,0.3-2.4,1.2-3.1,2.5
			c-4.2,8.4-8.6,16.8-11.8,25.7c-2.7,7.4-3.3,14.9-3,22.7c0.1,2.7,0.2,5.4,0.2,8.2c0,0.8-0.1,1.6-0.1,2.4c-0.2,1.7-1,2.9-2.7,3.6
			c-7.7,3.2-15.7,5.5-23.9,6.8c-14,2.1-27.7,1.2-41.2-3.1c-12.8-4.1-24-10.8-33.8-20c-15.5-14.8-24.8-32.9-28.2-54.1
			c-2.8-17.4-1.4-34.3,5.4-50.6c4.6-11.1,11.2-20.8,19.5-29.5c3.4-3.5,6.9-6.9,10.4-10.3c0.6-0.6,1.1-1.2,1.5-1.8c2-2.9,2-6-0.3-8.6
			c-1.9-2.2-4.2-4.2-6.5-6.1c-5-4.2-9.6-8.9-13.6-14.2c-9.7-12.7-15.6-27.1-17.8-42.9c-3-20.9,0-40.8,9.7-59.6
			c11.2-21.7,28.4-36.3,52.2-42.8c19-5.1,35.7-0.7,50.2,12.6c1.2,1.1,2.5,2.3,3.8,3.3c3.4,2.4,7,2,10-0.9c3.5-3.3,4.4-7.1,2-10.5
			c-1.9-2.7-4.2-5.1-6.6-7.2c-9.9-8.8-21.7-13.7-34.8-15.5c-18.8-2.5-36.2,1.7-52.3,11.5c-4.5,2.7-8.9,5.6-13.4,8.4
			c-0.8,0.5-1.6,1-2.6,1.6c-1.9-2.4-3.9-4.7-5.6-7.1c-9.2-12.5-14.5-26.6-16.3-42c-1.7-14.4-0.8-28.6,3.5-42.4
			c4.2-13.4,11.4-25.1,21-35.4c5.3-5.8,11.1-10.8,18.1-14.4c20.6-10.7,46.3-8.2,63.7,7.3c4.3,3.8,7.7,8.3,9.8,13.7
			c2,5.2,4.2,10.4,6.3,15.6c0.4,0.9,0.8,1.8,1.2,2.6c1.4,2.9,3.7,4.2,7,4c3.2-0.1,5.4-1.4,6.7-4.5c1.2-3.1,1.6-6.2,1-9.4
			c-2.3-12.1-7.5-22.7-16.1-31.6c-4.9-5-10.6-9-16.7-12.3c-2.1-1.1-4.2-2.3-6.5-3.6c0.3-1.4,0.5-2.8,0.9-4.2
			c2.3-8.1,6.4-15.2,11.5-21.7c7.5-9.6,16.4-17.5,27.2-23.1c6.9-3.6,14.4-5.2,22.1-5.9c7.2-0.7,14.4,0,21.4,1.7
			c1.8,0.5,3.8,0.6,5.7,0.6c3.6,0,6.3-2.3,7.3-5.8c1.1-4,0.1-7.6-3.1-9.5c-1.8-1.1-3.9-1.8-6-2.3c-18.9-4.1-37.4-2.7-55,5.7
			c-14.1,6.7-25.3,16.9-34.2,29.7c-4.9,7.2-8.5,15-12.1,22.9c-1,2.3-2,4.5-3.2,7c-8.6-0.5-17.3-0.6-25.9,1s-16.7,4.6-24.5,9.1
			c-0.9-1.3-1.7-2.5-2.5-3.7c-5.4-8.5-8.7-17.8-10.8-27.5c-4.5-21.5-2.6-42.4,7.2-62.2c12.5-25.5,33-41.8,60.2-49.3
			c25.8-7.1,49.6-1.9,71.4,13.1c13.5,9.3,23.4,21.6,30.4,36.4c0.4,0.9,0.9,1.9,1.4,2.8c3,5.8,7.8,8.6,14.2,9.1
			c4.9,0.3,9.9,0.6,14.8,1.4c17.5,2.7,32.8,9.9,45.9,21.8c14.2,13,23.5,29,28,47.7c1.4,6,1.9,12.1,2.8,18.2c0.2,1.5,0.3,3,0.5,4.5
			c0.6,4.4,2.9,7.4,7.1,9.2c3.7,1.5,7.4,3.2,10.8,5.1c15.9,8.8,26.1,22.3,31.9,39.3c0.4,1.1,0.7,2.1,1,3.2c0.1,0.2,0,0.5,0,0.8
			c-0.8,0-1.6,0.1-2.4,0c-7.4-1-14.7-0.1-21.9,1.3c-4.4,0.8-8.8,1.7-13.2,2.7c-1.8,0.4-3.7,1-5.4,2c-5.2,3-5.2,11.6-0.1,14.8
			c2.2,1.4,4.6,1.2,7,0.6c3.6-1,7.1-2.4,10.8-3.2c15.5-3.7,30-1.2,43.2,7.9c5.3,3.7,9.7,8.4,12.9,14c7.2,12.3,11.1,25.6,11.4,39.9
			c0.2,12.5-3.1,24-9.3,34.8c-0.1,0.2-0.2,0.4-0.4,0.6c-3.4,5.8-2.9,9.9,1.5,15.1c2.5,2.9,4.9,5.9,7.1,9.1
			c19.1,28.5,15,67.3-9.7,91.3c-1.8,1.8-3.9,3.3-6,5.1c-0.8-0.6-1.6-1.1-2.4-1.7c-7.6-5.6-15.8-9.9-25.1-12c-6-1.4-12.1-1.8-18.1-1
			c-9.4,1.2-18.8,2.7-28.2,4.3c-2.1,0.3-4.1,1.3-5.9,2.4c-2.7,1.7-3.6,4.4-3,7.5c0.5,3,2.3,4.9,5.2,5.6c3.7,1,7.5,0.9,11.2,0.3
			c5.6-0.8,11.2-2,16.8-2.7c20-2.6,35.8,4.6,47.4,20.9c7.1,9.9,10.5,21,9.6,33.2c-1.2,15.7-7.5,28.8-20.5,38.3
			c-6.1,4.4-8.5,10.2-8.1,17.6c0.4,8.7-0.5,17.4-2.3,26c-4.6,21.5-14.3,40.3-29.5,56.1c-16.3,17.1-36.1,27.7-59.2,32.3
			c-2.7,0.5-5.5,1.2-8.1,2.1c-5.9,1.9-10,5.9-11.9,11.9c-0.9,2.9-1.6,5.8-2.3,8.8c-4.8,22.2-14.9,41.4-31,57.4
			c-16.5,16.3-36.3,26.5-59.1,30.7c-23.7,4.3-46.3,1.2-67.9-9.4c-17.5-8.6-31.7-21.2-42.7-37.3c-9.3-13.6-15.9-28.4-19.3-44.6
			c-2.6-12.2-3-24.6-1.4-37c1.2-9.6,3.6-19,6.9-28.1C515.3,717.3,515.7,716.5,516.1,715.5z M716.4,559c-1-0.4-1.7-0.7-2.4-1
			c-15.9-7-32.4-8.8-49.5-5.1c-11.7,2.5-22.5,7.1-32.9,12.9c-3.2,1.8-4.6,4.8-5.1,8.3c-0.1,0.7,0.1,1.6,0.4,2.3
			c1.3,3,3.9,5.9,8.2,5.1c1.3-0.2,2.5-0.5,3.7-0.9c7.1-2.5,14.2-5,21.3-7.5c7-2.5,14.2-4.3,21.7-4.6c11.4-0.4,22,2.4,31.8,8.2
			c8.6,5,15.8,11.7,22.3,19.1c12,13.6,21.1,29.1,28.6,45.6c5.4,12,9.8,24.5,13.8,37c0.6,1.9,1.4,3.8,2.5,5.4
			c2.5,3.7,7.7,4.2,10.6,1.1c3-3.1,4.3-7,3.1-11.3c-5.3-18.2-11.7-35.9-20.5-52.6c-7.9-15.1-17.5-29-29.5-41.2
			c-2.3-2.3-4.6-4.6-6.9-7c-1.2-1.2-2-2.7-2.3-4.4c-0.5-2.9-1.1-5.8-1.6-8.7c-2-12.7-2-25.3,0.7-37.9c3.6-16.7,11.6-30.9,24.5-42.2
			c6.1-5.3,12.8-9.5,20.1-13c1.5-0.7,3-1.6,4.3-2.6c3.3-2.6,4-6.3,2.2-10.1s-5.2-5.7-9.2-4.8c-1.6,0.3-3.2,0.9-4.7,1.7
			c-11.4,5.5-21.5,12.9-30.1,22.2c-9.9,10.7-17.1,22.8-21.4,36.8c-4.3,13.9-5.1,28.1-4.1,42.5C716.1,554.3,716.2,556.5,716.4,559z
			 M751.9,281c-1.6,3.1-3.3,6-4.8,9.1c-0.7,1.4-0.7,2.9-0.5,4.5c0.7,4.7,1.5,9.3,1.9,14c0.7,7.8,0.2,15.5-2,23
			c-4.8,16.9-15.1,29.4-30.3,37.9c-9.9,5.6-20.7,8.7-31.8,11c-3.4,0.7-6.9,1.4-10.2,2.4c-3.3,1-4.8,3.3-4.6,6.7
			c0.1,2.1,0.4,4.1,0.8,6.2c2.1,9.5,2.8,19.1,1.1,28.8c-2.3,12.9-8,23.9-18,32.5c-12.1,10.4-26.5,15.6-42.3,16.7
			c-8.8,0.6-16.6-2.2-22.9-8.4c-2.7-2.6-5.8-2.7-9.2-2c-2.1,0.5-3.6,1.9-4.1,4c-0.4,1.7-0.5,3.5-0.6,5.2c-0.1,1.5,0.6,2.8,1.8,3.8
			c2.5,2.1,5,4.3,7.6,6.3s5.4,3.7,8.6,4.7c13.1,4.1,26.4,4.6,39.7,0.9c12.4-3.4,23.1-10,32.8-18.3c14.9-12.8,22.5-29.1,23.9-48.5
			c0.5-7,0.3-13.9-0.5-20.8c-0.1-0.9-0.1-1.9-0.2-2.9c3.8-1,7.3-1.8,10.9-2.8c12.2-3.3,23.8-8.1,34.1-15.5
			c19.4-14,30.4-32.9,32.3-56.8c0.8-10.7-0.2-21.4-2.3-32c-0.3-1.7-1.3-3.1-2.7-4.1C757.7,284.7,754.8,282.9,751.9,281z"/>
	</g>
</g>
<g id="Capa_5">
	<g>
		<circle class="st5 	R1" cx="647.3" cy="227.7" r="53.8"/>
	</g>
	<g>
		<circle class="st6 A1" cx="270" cy="224.6" r="54"/>
	</g>
	<g>
		<circle class="st6 A2" cx="116.5" cy="432.1" r="54"/>
	</g>
	<g>
		<circle class="st6 A3" cx="161.5" cy="661.6" r="54"/>
	</g>
	<g>
		<circle class="st6 A4" cx="305" cy="799.5" r="54"/>
	</g>
	<g>
		<circle class="st5 R2" cx="802.3" cy="435.2" r="53.8"/>
	</g>
	<g>
		<circle class="st5 R3" cx="760.3" cy="667.7" r="53.8"/>
	</g>
	<g>
		<circle class="st5 R4" cx="614.8" cy="802.7" r="53.8"/>
	</g>
</g>
<g id="Capa_3">
	<g>
		<path class="st7" d="M272,167c-31.5,0-57,25.5-57,57s25.5,57,57,57s57-25.5,57-57S303.5,167,272,167z M272,254
			c-16.6,0-30-13.4-30-30s13.4-30,30-30s30,13.4,30,30S288.6,254,272,254z"/>
		<ellipse class="st8" cx="272" cy="224" rx="24" ry="23"/>
	</g>
	<g>
		<path class="st7" d="M304,743c-31.5,0-57,25.5-57,57s25.5,57,57,57s57-25.5,57-57S335.5,743,304,743z M304,830
			c-16.6,0-30-13.4-30-30s13.4-30,30-30s30,13.4,30,30S320.6,830,304,830z"/>
		<ellipse class="st8" cx="304" cy="800" rx="24" ry="23"/>
	</g>
	<g>
		<path class="st7" d="M802.7,379c-31.5,0-57,25.5-57,57s25.5,57,57,57s57-25.5,57-57S834.1,379,802.7,379z M802.7,466
			c-16.6,0-30-13.4-30-30s13.4-30,30-30s30,13.4,30,30C832.7,452.6,819.2,466,802.7,466z"/>
		<ellipse class="st8" cx="802.7" cy="436" rx="24" ry="23"/>
	</g>
	<g>
		<path class="st7" d="M760,610c-31.5,0-57,25.5-57,57s25.5,57,57,57s57-25.5,57-57S791.5,610,760,610z M760,697
			c-16.6,0-30-13.4-30-30s13.4-30,30-30s30,13.4,30,30S776.6,697,760,697z"/>
		<ellipse class="st8" cx="760" cy="667" rx="24" ry="23"/>
	</g>
	<g>
		<path class="st7" d="M616.7,747c-31.5,0-57,25.5-57,57s25.5,57,57,57s57-25.5,57-57S648.1,747,616.7,747z M616.7,834
			c-16.6,0-30-13.4-30-30s13.4-30,30-30s30,13.4,30,30S633.2,834,616.7,834z"/>
		<ellipse class="st8" cx="616.7" cy="804" rx="24" ry="23"/>
	</g>
	<path class="st9" d="M810.7,436c0,0-40.7,47-100.7,3s-72-16-72-16"/>
	<path class="st9" d="M639.1,573.2c0,0,82.9-70.2,136.9-2.2s-16,96-16,96"/>
	<g>
		<path class="st7" d="M118,375c-31.5,0-57,25.5-57,57s25.5,57,57,57s57-25.5,57-57S149.5,375,118,375z M118,462
			c-16.6,0-30-13.4-30-30s13.4-30,30-30s30,13.4,30,30C148,448.6,134.6,462,118,462z"/>
		<ellipse class="st8" cx="118" cy="432" rx="24" ry="23"/>
	</g>
	<path class="st9" d="M110,432c0,0,40.7,47,100.7,3s72-16,72-16"/>
	<path class="st9" d="M283.1,344.1c0,0-122.4,24.9-116.4-45.1S272,224,272,224"/>
	<g>
		<path class="st7" d="M160.7,606c-31.5,0-57,25.5-57,57s25.5,57,57,57s57-25.5,57-57S192.1,606,160.7,606z M160.7,693
			c-16.6,0-30-13.4-30-30s13.4-30,30-30s30,13.4,30,30S177.2,693,160.7,693z"/>
		<ellipse class="st8" cx="160.7" cy="663" rx="24" ry="23"/>
	</g>
	<path class="st9" d="M281.6,569.2c10.6,6.4-80.1-68.5-136.9-2.2c-56.5,65.9,16,96,16,96"/>
	<path class="st9" d="M281.3,644.7c0,0-54.6,8.3-62.6,56.3s84,106,84,106"/>
	<rect x="632.7" y="554.7" class="st10" width="12.8" height="37.1"/>
	<rect x="632.4" y="403.4" class="st10" width="12.8" height="37.1"/>
	<path class="st9" d="M639.4,648.7c0,0,54.6,8.3,62.6,56.3s-84,106-84,106"/>
	<rect x="292.7" y="327.4" class="st11" width="341.2" height="339.8"/>
	<path class="st12" d="M558.6,348.6H368.1c-29.5,0-53.4,23.9-53.4,53.4v190.5c0,29.5,23.9,53.4,53.4,53.4h61.7v-19.3h65h0.1V646
		h63.7c29.5,0,53.4-23.9,53.4-53.4V402.1C612,372.6,588.1,348.6,558.6,348.6z"/>
	
		<rect x="292.2" y="314.5" transform="matrix(1 -6.649063e-03 6.649063e-03 1 -2.127 2.0731)" class="st10" width="37.1" height="12.8"/>
	
		<rect x="367.7" y="314.8" transform="matrix(1 -6.649063e-03 6.649063e-03 1 -2.1268 2.5754)" class="st10" width="37.1" height="12.8"/>
	
		<rect x="518" y="314.6" transform="matrix(1 -6.649063e-03 6.649063e-03 1 -2.1223 3.5747)" class="st10" width="37.1" height="12.8"/>
	
		<rect x="596.3" y="315" transform="matrix(1 -6.649063e-03 6.649063e-03 1 -2.1236 4.0952)" class="st10" width="37.1" height="12.8"/>
	<rect x="280.7" y="629.9" class="st10" width="12.8" height="37.1"/>
	<rect x="280.5" y="554.4" class="st10" width="12.8" height="37.1"/>
	<rect x="280.2" y="403.1" class="st10" width="12.8" height="37.1"/>
	<rect x="279.9" y="327.4" class="st10" width="12.8" height="37.1"/>
	<rect x="293" y="667.9" class="st10" width="37.1" height="12.8"/>
	<rect x="368.6" y="667.6" class="st10" width="37.1" height="12.8"/>
	<rect x="519.8" y="667.3" class="st10" width="37.1" height="12.8"/>
	<rect x="595.6" y="666.9" class="st10" width="37.1" height="12.8"/>
	<g>
		<path class="st7" d="M648.7,171c-31.5,0-57,25.5-57,57s25.5,57,57,57s57-25.5,57-57S680.1,171,648.7,171z M648.7,258
			c-16.6,0-30-13.4-30-30s13.4-30,30-30s30,13.4,30,30S665.2,258,648.7,258z"/>
		<ellipse class="st8" cx="648.7" cy="228" rx="24" ry="23"/>
	</g>
	<path class="st9" d="M637.6,348.1c0,0,122.4,24.9,116.4-45.1s-105.3-75-105.3-75"/>
	<rect x="633.7" y="327.1" class="st10" width="12.8" height="37.1"/>
	<rect x="632.9" y="630.2" class="st10" width="12.8" height="37.1"/>
</g>
</svg>
