<?xml version="1.0" encoding="utf-8"?>
<!-- Generator: Adobe Illustrator 22.1.0, SVG Export Plug-In . SVG Version: 6.00 Build 0)  -->
<svg version="1.1" xmlns="http://www.w3.org/2000/svg" xmlns:xlink="http://www.w3.org/1999/xlink" x="0px" y="0px"
	 viewBox="0 0 1279 1280" style="enable-background:new 0 0 1279 1280;" xml:space="preserve">
<style type="text/css">
	.st0{fill:#474747;stroke:#B7B7B7;stroke-width:16;stroke-miterlimit:10;}
	.st1{fill:#4183D7;stroke:#4183D7;stroke-miterlimit:10;
	animation : DegradeGrfic 2.5s linear infinite;
	}
	.st2{fill:#4183D7;stroke:#4183D7;stroke-miterlimit:10;
	animation : CenterGrfic 2.5s linear infinite;
	}
	.st3{fill:#3D3D3D;}
	.st4{fill:#F64747;}
	.st5{fill:#4183D7;}
	.st6{fill:#DDDDDD;}
	.st7{fill:#9E9E9E;}
	.st8{fill:none;stroke:#9E9E9E;stroke-width:15;stroke-miterlimit:10;}
	.st9{fill:#D3D3D3;}
	.st10{fill:#303030;}
	.st11{fill:#FFFFFF;}
	#Capa_2
	{
		animation : FrotateInv 5s linear infinite;
		transform-origin: 50.6% 32.6% 0;
	}
	#Capa_3
	{
		animation : Frotate 5s linear infinite;
		transform-origin: 74% 66% 0;
	}
	#Capa_4
	{
		animation : Frotate 5s linear infinite;
		transform-origin: 26% 66% 0;
	}

		@keyframes CenterGrfic{
   0% {
   fill:url(#gradR1);
   stroke:url(#gradR1);
  }
  25% {
    fill:url(#gradR2);
	stroke:url(#gradR2);
  }
  50% {
     fill:url(#gradR3);
	 stroke:url(#gradR3);
  }
  100% {
   fill:url(#gradR4);
   stroke:url(#gradR4);
  }}

	 @keyframes DegradeGrfic{
   0% {
   fill:url(#gradA1);
   stroke:url(#gradA1);
  }
  25% {
    fill:url(#gradA2);
	stroke:url(#gradA2);
  }
  50% {
     fill:url(#gradA3);
	 stroke:url(#gradA3);
  }
  75% {
   fill:url(#gradA4);
   stroke:url(#gradA4);
  }
  100% {
   fill:url(#gradA5);
   stroke:url(#gradA5);
  }}

	@keyframes Frotate{
   0% {
    transform: rotate(0);
  }
  100% {
    transform: rotate(360deg);
  }
}
@keyframes FrotateInv{
   0% {
    transform: rotate(360deg);
  }
  100% {
    transform: rotate(0);
  }
}
		.A1{
		 animation : TrasitR1 5s linear infinite;
	}
	.A2{
		 animation : TrasitR2 5s linear infinite;
	}
	.A3{
		 animation : TrasitR3 5s linear infinite;
	}
	.A4{
		 animation : TrasitR4 5s linear infinite;
	}
	@keyframes TrasitR1{
   0% {
    fill:#4183D7;
  }
  25% {
    fill:#FFFFFF;
  }
  50% {
    fill:#FFFFFF;
  }
  100% {
   fill:#FFFFFF;
  }	
}
@keyframes TrasitR2{
   0% {
    fill:#FFFFFF;
  }
  25% {
    fill:#4183D7;
  }
  50% {
    fill:#FFFFFF;
  }
  100% {
   fill:#FFFFFF;
  }
  }
	@keyframes TrasitR3{
   0% {
    fill:#FFFFFF;
  }
  25% {
    fill:#FFFFFF;
  }
  50% {
    fill:#4183D7;
  }
  100% {
   fill:#FFFFFF;
  }}
	@keyframes TrasitR4{
   0% {
    fill:#FFFFFF;
  }
  25% {
    fill:#FFFFFF;
  }
  50% {
    fill:#FFFFFF;
  }
  100% {
   fill:#4183D7;
  }}
  	.R1{
		 animation : TrasitA1 5s linear infinite;
	}
	.R2{
		 animation : TrasitA2 5s linear infinite;
	}
	.R3{
		 animation : TrasitA3 5s linear infinite;
	}
	.R4{
		 animation : TrasitA4 5s linear infinite;
	}
	@keyframes TrasitA1{
   0% {
    fill:#F64747;
  }
  25% {
    fill:#FFFFFF;
  }
  50% {
    fill:#FFFFFF;
  }
  100% {
   fill:#FFFFFF;
  }	
}
@keyframes TrasitA2{
   0% {
    fill:#FFFFFF;
  }
  25% {
    fill:#F64747;
  }
  50% {
    fill:#FFFFFF;
  }
  100% {
   fill:#FFFFFF;
  }
  }
	@keyframes TrasitA3{
   0% {
    fill:#FFFFFF;
  }
  25% {
    fill:#FFFFFF;
  }
  50% {
    fill:#F64747;
  }
  100% {
   fill:#FFFFFF;
  }}
	@keyframes TrasitA4{
   0% {
    fill:#FFFFFF;
  }
  25% {
    fill:#FFFFFF;
  }
  50% {
    fill:#FFFFFF;
  }
  100% {
   fill:#F64747;
  }}
</style>
<defs>
    <linearGradient id="gradR1" x1="100%" y1="0%" x2="0%" y2="0%">
      <stop offset="0%" style="stop-color:rgb(246, 71, 71);stop-opacity:1" />
      <stop offset="100%" style="stop-color:#f88f8f;stop-opacity:1" />
    </linearGradient>
	<linearGradient id="gradR2" x1="0%" y1="100%" x2="0%" y2="0%">
      <stop offset="0%" style="stop-color:rgb(246, 71, 71);stop-opacity:1" />
      <stop offset="100%" style="stop-color:#f88f8f;stop-opacity:1" />
    </linearGradient>
	<linearGradient id="gradR3" x1="0%" y1="0%" x2="100%" y2="0%">
      <stop offset="0%" style="stop-color:rgb(246, 71, 71);stop-opacity:1" />
      <stop offset="100%" style="stop-color:#f88f8f;stop-opacity:1" />
    </linearGradient>
	<linearGradient id="gradR4" x1="0%" y1="0%" x2="0%" y2="100%">
      <stop offset="0%" style="stop-color:rgb(246, 71, 71);stop-opacity:1" />
      <stop offset="100%" style="stop-color:#f88f8f;stop-opacity:1" />
    </linearGradient>
	<linearGradient id="gradA1" x1="0%" y1="0%" x2="0%" y2="100%">
      <stop offset="100%" style="stop-color:#4183D7;stop-opacity:1" />
      <stop offset="0%" style="stop-color:#72aaf3;stop-opacity:1" />
    </linearGradient>
	<linearGradient id="gradA2" x1="0%" y1="0%" x2="0%" y2="100%">
      <stop offset="0%" style="stop-color:#4183D7;stop-opacity:1" />
      <stop offset="25%" style="stop-color:#72aaf3;stop-opacity:1" />
    </linearGradient>
	<linearGradient id="gradA3" x1="0%" y1="0%" x2="0%" y2="100%">
      <stop offset="0%" style="stop-color:#4183D7;stop-opacity:1" />
      <stop offset="50%" style="stop-color:#72aaf3;stop-opacity:1" />
    </linearGradient>
	<linearGradient id="gradA4" x1="0%" y1="0%" x2="0%" y2="100%">
      <stop offset="0%" style="stop-color:#4183D7;stop-opacity:1" />
      <stop offset="75%" style="stop-color:#72aaf3;stop-opacity:1" />
    </linearGradient>
	<linearGradient id="gradA5" x1="0%" y1="0%" x2="0%" y2="100%">
      <stop offset="0%" style="stop-color:#4183D7;stop-opacity:1" />
      <stop offset="100%" style="stop-color:#72aaf3;stop-opacity:1" />
    </linearGradient>
  </defs>
<g id="Capa_4_1_">
	<g id="Capa_4">
		<path class="st0" d="M368.3,1082.3c-0.6,12.1-1.1,22.9-1.6,34.8c-19.7,0-38.3,0-58.6,0c-0.8-11.5-1.6-22.8-2.4-34.7
			c-20.9-5.6-41.4-11.1-63.5-17.1c-5.7,9.2-11.7,19-18.9,30.6c-17.6-10.2-34.6-20.2-52.7-30.6c6.2-11.4,11.6-21.5,16.3-30.2
			c-16.6-15.6-32.1-30.2-49.1-46.3c-6.6,3.6-16.8,9-28.5,15.4c-10-17.3-19.7-34-29.2-50.3c1-1.9,1.3-3.5,2.2-4.1
			c26.6-18,26.5-18,18.6-48.5c-2.6-10-4.7-20.2-7.5-32.1c-11.4,0-22.8,0-35.8,0c0-21.6,0-41.3,0-62.2c11.9,0,22.8,0,34.5,0
			c5.7-19.4,11.5-37.7,16.1-56.4c0.9-3.5-2.3-9.5-5.4-12.1c-6.5-5.2-14.2-8.8-23.9-14.5c10-17.6,19.8-34.6,30.3-52.9
			c11.3,6.1,21.4,11.5,31.2,16.9c14.4-16.1,28.5-31.9,42.6-47.6c1.9,1,3.7,1.9,5.6,2.9c-5.8-10.5-11.6-21.1-18.3-33.2
			c17.7-10.2,34.3-19.8,52.4-30.3c7,11,13.5,21.1,20.1,31.4c21.2-5.6,41.7-11.1,63-16.8c0.5-11.7,1-23.3,1.6-36.1
			c19.8,0,38.9,0,59,0c0.6,12.5,1.2,24,1.7,35.9c21,5.7,41.5,11.3,62.9,17.1c6.5-10.1,13-20.3,20.2-31.5
			c17.8,10.2,34.6,19.8,52.2,29.9c-6.2,12-11.8,22.7-16.5,32c15.7,15.7,30.3,30.3,46.4,46.3c8.9-4.7,19.5-10.4,31.6-16.7
			c10.1,17.4,19.8,34.2,30.4,52.4c-10.9,6.7-21.2,13.1-31.4,19.4c4.8,19.1,8.7,37.4,14.3,55.3c1.2,3.8,7.9,7.4,12.5,8.1
			c8.1,1.3,16.5,0.4,25.9,0.4c0,21.1,0,40.3,0,58.1c-11.7,11.6-35.7-9.4-38.9,15.8c-3.2,24.9-32.4,56.8,18.1,69.8
			c-10.9,19.1-20.4,35.8-30.7,53.8c-11.3-6.1-21.3-11.5-29.4-15.9c-15.5,16.1-30.3,31.4-47,48.6c3.2,6.3,8.7,17,14.6,28.7
			c-17.7,10.3-34.5,20-52.1,30.2c-6.8-10.8-13-20.5-19.3-30.6C411,1071,390.5,1076.4,368.3,1082.3z M506.5,756.7
			c-35.6,20.5-69.4,39.7-102.9,59.4c-9.2,5.4-10.4,38.9-1.4,44.3c34,20.1,68.4,39.5,104.1,60C531.1,865.7,531.5,812.8,506.5,756.7z
			 M492.1,731.8c-36.6-49.1-82-75.3-142.1-81.3c0,41.9-0.2,81.3,0.3,120.6c0,3.4,3.7,7.9,6.9,9.9c8,5.2,16.7,9.3,25.3,13.9
			C418.5,774.3,454.3,753.6,492.1,731.8z M350,1026.1c60.5-6,105.9-32.3,141.4-80.8c-35.8-20.7-69.1-42.2-104.7-58.6
			c-7.9-3.6-34.3,10.4-35,17.9C348.1,944.2,350,984.3,350,1026.1z M168.4,758.7c-26.6,46.7-26,120,1,159.2
			c34-19.6,68.3-38.9,102-59.2c10.3-6.2,8-35.7-2.7-42C235.8,797.4,202.6,778.5,168.4,758.7z M321,651.8
			c-56.3,3.3-114.5,38-138.1,82c34,19.6,68,39.6,102.3,58.8c9.5,5.3,35.5-11.2,35.6-22.8C321.3,731.2,321,692.3,321,651.8z
			 M321,1024.9c0-40.6,0.3-80-0.2-119.3c-0.1-10.3-26.1-26.3-34.6-21.5c-34.8,19.5-69.2,39.7-103.8,59.7
			C212.4,990.2,265.7,1021.7,321,1024.9z M371.1,838.2c-0.2-18.9-16.2-34.8-34.9-34.4c-18.6,0.4-34.1,17-33.5,35.8
			c0.6,17.9,16.3,33.4,34,33.4C355.4,873.2,371.2,857.1,371.1,838.2z"/>
	</g>
</g>
<g id="Capa_3">
	<g id="Capa_3_1_">
		<path class="st0" d="M972.5,1088.7c-0.6,12.1-1.1,22.9-1.6,34.8c-19.7,0-38.3,0-58.6,0c-0.8-11.5-1.6-22.8-2.4-34.7
			c-20.9-5.6-41.4-11.1-63.5-17.1c-5.7,9.2-11.7,19-18.9,30.6c-17.6-10.2-34.6-20.2-52.7-30.6c6.2-11.4,11.6-21.5,16.3-30.2
			c-16.6-15.6-32.1-30.2-49.1-46.3c-6.6,3.6-16.8,9-28.5,15.4c-10-17.3-19.7-34-29.2-50.3c1-1.9,1.3-3.5,2.2-4.1
			c26.6-18,26.5-18,18.6-48.5c-2.6-10-4.7-20.2-7.5-32.1c-11.4,0-22.8,0-35.8,0c0-21.6,0-41.3,0-62.2c11.9,0,22.8,0,34.5,0
			c5.7-19.4,11.5-37.7,16.1-56.4c0.9-3.5-2.3-9.5-5.4-12.1c-6.5-5.2-14.2-8.8-23.9-14.5c10-17.6,19.8-34.6,30.3-52.9
			c11.3,6.1,21.4,11.5,31.2,16.9c14.4-16.1,28.5-31.9,42.6-47.6c1.9,1,3.7,1.9,5.6,2.9c-5.8-10.5-11.6-21.1-18.3-33.2
			c17.7-10.2,34.3-19.8,52.4-30.3c7,11,13.5,21.1,20.1,31.4c21.2-5.6,41.7-11.1,63-16.8c0.5-11.7,1-23.3,1.6-36.1
			c19.8,0,38.9,0,59,0c0.6,12.5,1.2,24,1.7,35.9c21,5.7,41.5,11.3,62.9,17.1c6.5-10.1,13-20.3,20.2-31.5
			c17.8,10.2,34.6,19.8,52.2,29.9c-6.2,12-11.8,22.7-16.5,32c15.7,15.7,30.3,30.3,46.4,46.3c8.9-4.7,19.5-10.4,31.6-16.7
			c10.1,17.4,19.8,34.2,30.4,52.4c-10.9,6.7-21.2,13.1-31.4,19.4c4.8,19.1,8.7,37.4,14.3,55.3c1.2,3.8,7.9,7.4,12.5,8.1
			c8.1,1.3,16.5,0.4,25.9,0.4c0,21.1,0,40.3,0,58.1c-11.7,11.6-35.7-9.4-38.9,15.8c-3.2,24.9-32.4,56.8,18.1,69.8
			c-10.9,19.1-20.4,35.8-30.7,53.8c-11.3-6.1-21.3-11.5-29.4-15.9c-15.5,16.1-30.3,31.4-47,48.6c3.2,6.3,8.7,17,14.6,28.7
			c-17.7,10.3-34.5,20-52.1,30.2c-6.8-10.8-13-20.5-19.3-30.6C1015.2,1077.4,994.7,1082.8,972.5,1088.7z M1110.7,763.1
			c-35.6,20.5-69.4,39.7-102.9,59.4c-9.2,5.4-10.4,38.9-1.4,44.3c34,20.1,68.4,39.5,104.1,60
			C1135.3,872.1,1135.7,819.2,1110.7,763.1z M1096.3,738.2c-36.6-49.1-82-75.3-142.1-81.3c0,41.9-0.2,81.3,0.3,120.6
			c0,3.4,3.7,7.9,6.9,9.9c8,5.2,16.7,9.3,25.3,13.9C1022.7,780.7,1058.5,760,1096.3,738.2z M954.2,1032.5
			c60.5-6,105.9-32.3,141.4-80.8c-35.8-20.7-69.1-42.2-104.7-58.6c-7.9-3.6-34.3,10.4-35,17.9C952.3,950.6,954.2,990.7,954.2,1032.5
			z M772.6,765.1c-26.6,46.7-26,120,1,159.2c34-19.6,68.3-38.9,102-59.2c10.3-6.2,8-35.7-2.7-42C840,803.8,806.8,784.9,772.6,765.1z
			 M925.2,658.2c-56.3,3.3-114.5,38-138.1,82c34,19.6,68,39.6,102.3,58.8c9.5,5.3,35.5-11.2,35.6-22.8
			C925.5,737.6,925.2,698.7,925.2,658.2z M925.2,1031.3c0-40.6,0.3-80-0.2-119.3c-0.1-10.3-26.1-26.3-34.6-21.5
			c-34.8,19.5-69.2,39.7-103.8,59.7C816.6,996.6,869.9,1028.1,925.2,1031.3z M975.3,844.6c-0.2-18.9-16.2-34.8-34.9-34.4
			c-18.6,0.4-34.1,17-33.5,35.8c0.6,17.9,16.3,33.4,34,33.4C959.6,879.6,975.4,863.5,975.3,844.6z"/>
	</g>
</g>
<g id="Capa_2">
	<g id="Capa_2_1_">
		<path class="st0" d="M676.5,663.7c-0.6,12.1-1.1,22.9-1.6,34.8c-19.7,0-38.3,0-58.6,0c-0.8-11.5-1.6-22.8-2.4-34.7
			c-20.9-5.6-41.4-11.1-63.5-17.1c-5.7,9.2-11.7,19-18.9,30.6c-17.6-10.2-34.6-20.2-52.7-30.6c6.2-11.4,11.6-21.5,16.3-30.2
			c-16.6-15.6-32.1-30.2-49.1-46.3c-6.6,3.6-16.8,9-28.5,15.4c-10-17.3-19.7-34-29.2-50.3c1-1.9,1.3-3.5,2.2-4.1
			c26.6-18,26.5-18,18.6-48.5c-2.6-10-4.7-20.2-7.5-32.1c-11.4,0-22.8,0-35.8,0c0-21.6,0-41.3,0-62.2c11.9,0,22.8,0,34.5,0
			c5.7-19.4,11.5-37.7,16.1-56.4c0.9-3.5-2.3-9.5-5.4-12.1c-6.5-5.2-14.2-8.8-23.9-14.5c10-17.6,19.8-34.6,30.3-52.9
			c11.3,6.1,21.4,11.5,31.2,16.9c14.4-16.1,28.5-31.9,42.6-47.6c1.9,1,3.7,1.9,5.6,2.9c-5.8-10.5-11.6-21.1-18.3-33.2
			c17.7-10.2,34.3-19.8,52.4-30.3c7,11,13.5,21.1,20.1,31.4c21.2-5.6,41.7-11.1,63-16.8c0.5-11.7,1-23.3,1.6-36.1
			c19.8,0,38.9,0,59,0c0.6,12.5,1.2,24,1.7,35.9c21,5.7,41.5,11.3,62.9,17.1c6.5-10.1,13-20.3,20.2-31.5
			c17.8,10.2,34.6,19.8,52.2,29.9c-6.2,12-11.8,22.7-16.5,32c15.7,15.7,30.3,30.3,46.4,46.3c8.9-4.7,19.5-10.4,31.6-16.7
			c10.1,17.4,19.8,34.2,30.4,52.4c-10.9,6.7-21.2,13.1-31.4,19.4c4.8,19.1,8.7,37.4,14.3,55.3c1.2,3.8,7.9,7.4,12.5,8.1
			c8.1,1.3,16.5,0.4,25.9,0.4c0,21.1,0,40.3,0,58.1c-11.7,11.6-35.7-9.4-38.9,15.8c-3.2,24.9-32.4,56.8,18.1,69.8
			c-10.9,19.1-20.4,35.8-30.7,53.8c-11.3-6.1-21.3-11.5-29.4-15.9c-15.5,16.1-30.3,31.4-47,48.6c3.2,6.3,8.7,17,14.6,28.7
			c-17.7,10.3-34.5,20-52.1,30.2c-6.8-10.8-13-20.5-19.3-30.6C719.2,652.4,698.7,657.8,676.5,663.7z M814.7,338.1
			c-35.6,20.5-69.4,39.7-102.9,59.4c-9.2,5.4-10.4,38.9-1.4,44.3c34,20.1,68.4,39.5,104.1,60C839.3,447.1,839.7,394.2,814.7,338.1z
			 M800.3,313.2c-36.6-49.1-82-75.3-142.1-81.3c0,41.9-0.2,81.3,0.3,120.6c0,3.4,3.7,7.9,6.9,9.9c8,5.2,16.7,9.3,25.3,13.9
			C726.7,355.7,762.5,335,800.3,313.2z M658.2,607.5c60.5-6,105.9-32.3,141.4-80.8c-35.8-20.7-69.1-42.2-104.7-58.6
			c-7.9-3.6-34.3,10.4-35,17.9C656.3,525.6,658.2,565.7,658.2,607.5z M476.6,340.1c-26.6,46.7-26,120,1,159.2
			c34-19.6,68.3-38.9,102-59.2c10.3-6.2,8-35.7-2.7-42C544,378.8,510.8,359.9,476.6,340.1z M629.2,233.2
			c-56.3,3.3-114.5,38-138.1,82c34,19.6,68,39.6,102.3,58.8c9.5,5.3,35.5-11.2,35.6-22.8C629.5,312.6,629.2,273.7,629.2,233.2z
			 M629.2,606.3c0-40.6,0.3-80-0.2-119.3c-0.1-10.3-26.1-26.3-34.6-21.5c-34.8,19.5-69.2,39.7-103.8,59.7
			C520.6,571.6,573.9,603.1,629.2,606.3z M679.3,419.6c-0.2-18.9-16.2-34.8-34.9-34.4c-18.6,0.4-34.1,17-33.5,35.8
			c0.6,17.9,16.3,33.4,34,33.4C663.6,454.6,679.4,438.5,679.3,419.6z"/>
	</g>
</g>
<g id="Capa_1">
	<g id="Capa_1_1_">
		<g id="Capa_6_2_">
			<g>
				<path class="st1" d="M641.9,812.6c-3.5-5.8-8.8-8.9-15.5-9.9c-1.2-6.2-2.4-12.3-3.6-18.3c10.2-7.5,13.3-18,8.1-27.5
					c-2.5-4.5-6.1-7.8-11-9.5c-6.3-2.2-12.4-1.3-18.2,2.1c-4.7-3.9-9.4-7.6-14-11.5c2.3-5.9,2-11.7-0.5-17.3
					c5.5-5.3,10.7-10.3,15.9-15.4c12.3,4.6,22.6,1.4,27.8-8.4c2.4-4.6,3-9.4,1.8-14.4c-1.7-6.8-6.2-11.4-12.5-14.2
					c0.1-1.1,0.1-1.9,0.1-2.8c0.4-7.1,1-14.2,1.2-21.3c0.1-2.2,0.8-3.2,2.9-4c9.6-3.6,14.6-14,12.1-23.8
					c-2.6-10.2-12.6-16.4-22.2-15c-1.3,0.2-2.5,0.4-3.9,0.6c-5.3-7.4-10.6-14.8-15.8-22.2c0.2-0.4,0.3-0.6,0.4-0.8
					c3.7-5.5,4.5-11.5,2.6-17.9c-0.4-1.3,0.1-2.1,0.9-2.9c3.9-4,7.8-8,11.7-12c1-1,1.9-2.1,2.8-3.2c5.8,2.6,11.3,3,16.9,0.7
					c5.6-2.2,9.4-6.2,11.5-11.9c3.4-9.2-0.1-22-13.7-26.6c-0.2-6.3-0.4-12.7-0.6-19.1c5.1-2.1,9-5.2,11.4-10
					c2.4-4.9,2.9-9.9,1.3-15.1c-1.4-4.6-4.1-8.3-8.1-10.9c-5.2-3.4-10.8-4-16.9-2.7c-4.2-6.4-8.4-12.7-12.6-19.1
					c3.6-4.7,5.1-9.9,4.4-15.6c-0.8-5.8-3.8-10.4-8.4-13.9c2.8-11.7,5.5-23.1,8.2-34.6c3.8-0.4,7.2-1.5,10.2-3.6
					c2.9-2.1,5.2-4.7,6.8-8s2.1-6.9,1.8-10.5c-0.4-4.7-2.3-8.8-5.5-12.2c-4.2-4.4-9.5-6.3-15.7-6.3c-3.7-8.6-7.4-17.1-11.1-25.6
					c10.5-10.5,7.4-23,1.8-29.1c-3.6-3.9-8-6.2-13.2-6.6c-7-0.6-12.8,2-17.5,7.1c-12.8-5.4-25.5-10.7-38.2-16c0-0.9,0-1.7,0-2.5
					c0-9.3-6.1-17.1-15.1-19.5c-1.1-0.3-2.1-0.6-3.2-0.9c-1.3,0-2.6,0-3.8,0c-0.4,0.2-0.9,0.4-1.3,0.5
					c-10.3,1.7-17.4,10.9-16.9,20.5c0,0.8,0,1.6,0,2.6c-12.6,6.1-25.2,12.2-37.9,18.4c-7.9-6.5-16.5-8-25.3-2.5
					c-8.5,5.3-10.7,13.5-8.6,23.2c-9,4.9-18,9.7-26.9,14.5c-9.8-6.2-18.1-6.5-25.5-1.1s-9.8,13.5-7,24.3
					c-5.8,5.2-11.7,10.4-17.6,15.6c-1.5-0.6-2.9-1.2-4.3-1.7c-8.8-2.9-18.6,0.7-23.4,8.6c-4.9,8-3.8,18.2,2.7,24.8
					c1.2,1.2,1.5,2.3,1.1,4c-1.4,5.2-2.6,10.4-3.9,15.6c-0.1,0.4-0.2,0.7-0.3,1.1c-10.8,1.8-19.2,10.1-17.9,23.9
					c-3.8,1.8-7.6,3.6-11.5,5.5c-0.6-0.5-1.1-0.9-1.6-1.3c-12.1-9.5-29.5-3.2-32.6,11.9c-1.8,8.8,2.7,17.9,10.9,22
					c1.4,0.7,2.3,1.4,2.5,3.1c0.2,1.6,0.6,3.1,1,4.7c0.4,1.3,0.1,2.2-1,3.1c-5.9,5-8,11.4-6.9,18.9c0.3,1.8,0.9,3.5,1.4,5.4
					c-0.4,0.3-0.9,0.7-1.4,1.1c-9,5.8-18,11.6-27,17.4c-1.1,0.7-2,0.8-3.3,0.2c-10.4-4.6-22.5,0.1-26.9,10.4
					c-4.5,10.6,0.4,22.4,11.1,26.8c0.6,0.2,1.2,0.5,1.9,0.8c0.8,3.8,1.6,7.6,2.3,11.5c1.1,5.3,2.1,10.7,3.2,16
					c0.3,1.4,0,2.1-1.1,3.1c-9,8-9.6,20.9-1.2,29.6c0.9,0.9,1.1,1.7,0.7,2.9c-3.1,10.2-6.1,20.3-9.1,30.5c-0.4,1.3-1,1.9-2.3,2.3
					c-7.6,2.3-12.3,7.4-14.2,15.1c-0.2,0.8-0.6,1.5-0.9,2.2c0,1.4,0,2.9,0,4.3c0.3,0.7,0.7,1.4,0.9,2.2
					c2.5,10.2,11.2,16.5,21.6,15.8c0.6,0,1.1-0.1,1.8-0.1c5.6,8,11.2,15.9,16.8,23.8c-7,10.8-4.2,21.1,2.3,27.5
					c-0.3,0.6-0.6,1.4-0.9,2.1c-2.6,5.5-5.3,10.9-7.8,16.5c-0.8,1.7-1.8,2.3-3.6,2.4c-8.2,0.7-14,4.9-17.1,12.4
					c-3.1,7.7-1.9,15,3.7,21.2c5.7,6.3,13,8.1,21.2,5.7c0.4-0.1,0.8-0.3,1.1-0.4c0.4-0.1,0.7-0.3,1.3-0.4c4.7,3.9,9.5,7.8,14.2,11.6
					c-0.4,2.8-0.9,5.4-1,8c-0.1,8.4,4.9,15.7,12.8,18.8c1.5,0.6,2.2,1.3,2.5,3c1.7,9.5,3.6,19,5.4,28.5c0.1,0.5,0.1,1.1,0.2,1.8
					c-5.2,3.1-8.8,7.6-10.1,13.6c-1,4.6-0.4,9.1,1.7,13.3c4.4,9,13.1,12.6,25.1,10.3c5.4,6.3,10.9,12.7,16.3,19.1
					c-4.1,12.3-0.7,22.3,9.2,27.3c7.7,3.9,19.7,3.2,27-8.3c10.5,2.4,21.2,4.8,31.7,7.3c1.7,10.7,7.8,16.9,18.3,18.8
					c0.9,4.3,1.7,8.6,2.6,12.8c-9.4,8.4-11.8,17.4-7.1,26.6c2.4,4.7,6.1,7.9,11.1,9.7c4.8,1.8,9.7,1.5,14.7-0.2
					c3.4,4.1,6.7,8.1,10,12.1c-6.8,12.7-1,23.6,6.2,28.1c9.1,5.8,19.4,3.8,28.1-5.7c11.3,2.2,22.8,4.4,34.3,6.6c1,3.5,2.6,6.5,5,9
					c2.8,2.9,6.1,4.8,10,5.8c0.5,0.1,1,0.3,1.6,0.5c2.1,0,4.2,0,6.2,0c0.6-0.2,1.2-0.4,1.8-0.6c8.5-2.5,13.7-8,15.1-16.8
					c0.2-1.5,0.9-2.2,2.2-2.7c8.5-3.5,16.9-7.2,25.4-10.7c0.6-0.3,1.3-0.5,1.9-0.7c9.1,9.5,20.5,8.1,27.1,3.4
					c3.9-2.8,6.6-6.5,7.9-11.1c1.6-6,0.7-11.7-2.7-17c3.9-4.9,7.8-9.7,11.5-14.6c1.1-1.4,2-1.7,3.8-1.3c9.8,2.5,19.5-2.3,23.6-11.5
					c4-8.9,0.9-19.4-7.4-25c-0.5-0.4-1-0.7-1.6-1.1c0.8-4.2,1.6-8.4,2.5-12.7c5.1-0.4,9.5-2.3,13.1-5.8c3.7-3.6,5.7-8.1,6-13.2
					c0.2-4.5-0.8-8.7-3.4-12.5c-3.7-5.5-9.1-8.3-15.6-9c-1.6-6.5-3.1-12.9-4.7-19.2c5.6-3.7,8.9-8.8,9.7-15.3
					c0.7-6.6-1.6-12.2-6.1-17c3.3-6.7,6.5-13.2,9.7-19.5c7.9,0,11.3-0.9,15.2-3.8c4.4-3.3,7.2-7.7,8-13.2
					C645.3,821.4,644.5,816.8,641.9,812.6z"/>
				<path class="st2" d="M1087.3,646.1c-0.3-2.1-0.4-4.1-0.8-6.2c-2.6-14.1-8.4-26.8-17-38.2c-2-2.7-2.3-5.2-0.9-8.2
					c5.6-12.8,8.5-26.1,8.2-40.1c-0.2-13.3-3.4-25.9-9.5-37.8c-6.5-12.7-15.7-23.1-27-31.7c-2.6-2-4.3-4.5-5-7.6
					c-0.2-1.1-0.5-2.2-0.8-3.3c-6.6-24.9-20.8-43.8-43.8-55.8c-1.4-0.7-2.8-1.5-4.2-2.3c-2.7-1.5-3.8-3.8-3.9-7
					c0-2.7-0.1-5.5-0.6-8.1c-2.6-12.7-6.8-24.8-13.2-36.1c-10.6-18.8-25.4-33.4-44.7-43.2c-12.3-6.3-25.4-10.1-39.1-11.3
					c-6-0.5-10.5-3-13.3-8.4c-0.4-0.8-0.9-1.5-1.3-2.3c-6.6-11.6-14.9-21.8-25.3-30.2c-24-19.4-51.3-27.6-81.9-23
					c-23.6,3.6-43.8,14.3-60.6,31.1c-12.9,12.9-22,28.2-27.4,45.6c-5,16.1-6.2,32.6-3.7,49.3c1.8,11.9,5.7,23.1,10.9,33.9
					c2,4.2,4,8.3,6.3,13c-0.9,0.8-2,1.5-2.9,2.4c-9.4,9.6-17,20.6-22.4,33c-4.9,11.2-7.7,23-8.7,35.2c-1.1,13.4-0.2,26.7,3.3,39.7
					c4.3,16.2,12.1,30.6,22.7,43.4c0.6,0.7,1.2,1.5,1.7,2.1c-18.1,23.6-26.3,50-24.3,79.4c1.9,29.5,14.1,54.3,34.9,75
					c-0.1,0.2-0.1,0.4-0.2,0.5c-1.3,1.3-2.6,2.6-3.8,4c-23,25.3-32.3,55.2-29.1,89c1.8,18.8,8.2,36.1,18.9,51.7c2,3,2.2,5.8,0.9,9
					c-5.1,12.4-8.4,25.3-9.7,38.7c-1.7,18.1-0.2,36,5,53.4c11.4,37.9,35.1,65.3,70.7,82.5c17,8.2,35,12,53.8,12.1
					c7.8,0.1,15.5-0.7,23.1-2.2c27.3-5.3,50.3-18.2,69.4-38.2c17.9-18.8,29.2-41,34.1-66.5c0.8-4,2-5.1,6-5.7
					c12.2-1.9,23.8-5.7,34.7-11.3c18.5-9.4,33.9-22.5,46.4-39.1c10.8-14.4,18.5-30.2,22.6-47.8c1.8-7.7,2.5-15.6,3.1-23.5
					c0.7-9,3.9-16.7,10.8-22.8c6-5.4,10.3-12,13.3-19.4c4.9-12.5,5.4-25.4,3.5-38.5c-1.4-9.7-5.1-18.6-10.3-26.9
					c-0.5-0.8-1-1.6-1.3-2.2c3.2-3.2,6.4-6.1,9.3-9.2c12.1-13.3,20-28.8,22.8-46.7c0.3-2,0.5-3.9,0.8-5.9c0-5.1,0-10.2,0-15.4
					C1087.6,647.5,1087.4,646.8,1087.3,646.1z"/>
			</g>
		</g>
		<g id="Capa_2_2_">
			<g>
				<path class="st3" d="M514.7,631.9c-7.6,7.5-9.1,16.1-4.5,25.8c-7.6,8.5-15.1,16.9-22.8,25.5c-3.8-1.6-7.7-2-11.7-1.3
					c-4.1,0.6-7.5,2.5-10.8,5.5c-7.6-6.1-15.1-12.3-22.8-18.4c2.8-6.5,2.8-13-0.8-19.2s-9.2-9.4-16.3-10.1
					c-0.8-16.6-1.7-33-2.5-49.5c10.4-2.3,16.3-8.7,17.6-19.3c9.9-0.6,19.8-1.3,29.6-1.9c4.2,10.2,11.6,14.8,22.7,14.1
					C499.9,599.4,507.3,615.7,514.7,631.9z"/>
				<path class="st3" d="M533.1,627.8c-3.8-0.6-7.4-0.9-11.3,0.3c-7.3-16-14.5-31.8-21.7-47.8c7.9-5.8,11.3-13.5,8.6-22.9
					c-2.7-9.5-9.8-14.2-19.7-14.8c-2.8-17.9-5.5-35.7-8.2-53.6c4.4-1.5,7.9-4,10.7-7.8c12,3.7,24,7.3,36,11
					c0.1,5.5,1.9,10.4,5.7,14.4s8.6,5.9,14.2,6.3c4.4,13.2,8.7,26.3,13.1,39.4c-4.9,4.1-7.7,9.1-7.9,15.4
					c-0.3,6.3,2.1,11.5,6.7,16.1C550.6,598.4,541.9,613.1,533.1,627.8z"/>
				<path class="st3" d="M347.8,633.1c-0.1-15.3-13.8-24.8-28.2-20c-7.3-12.9-14.7-25.9-22.2-39c3.4-3,5.8-6.5,7.1-11
					c31.9,3.9,63.7,7.8,95.5,11.7c2.2,7.6,7,12.4,14.4,14.9c0.8,17,1.7,34,2.6,51.2c-5.6,2.2-9.7,6-12.1,11.8
					C385.8,646.1,366.9,639.6,347.8,633.1z"/>
				<path class="st3" d="M345.7,640.9c19.4,6.7,38.6,13.2,57.9,19.9c0.6,7.4,3.9,13.1,10.6,17.1c-1.8,16.5-3.9,33.1-5.9,50
					c-5.5,1-10.1,3.5-13.7,8.1c-21.3-7-42.6-14-63.9-21c0.3-9.8-4-16.7-13-21c2.9-13.8,5.7-27.6,8.6-41.6
					C334.9,652.3,341.4,648.7,345.7,640.9z"/>
				<path class="st3" d="M411.9,551.3c-6.6,3.1-10.5,8.2-12.1,15.3c-31.6-3.9-63.1-7.7-94.8-11.6c-0.9-4.2-2.6-8.1-5.8-11.3
					c0.6-0.8,1.1-1.4,1.6-2c11.9-13.6,23.8-27.2,35.6-40.9c0.9-1.1,1.8-1.5,3.3-1.3c9.4,1.4,18.5-4.3,21.7-13.3
					c0.3-0.7,0.5-1.5,0.8-2.5c8.9,0.6,17.9,1.2,26.8,1.7c2.9,9.1,9.1,14.1,18.6,15.3C409,517.7,410.4,534.4,411.9,551.3z"/>
				<path class="st3" d="M500.8,761.8c-4.7-13.8-9.3-27.3-13.9-40.9c14.4-7,15.7-23.2,7.2-33c7.1-8,14.3-16,21.5-24.1
					c4.6,3,9.4,4.5,14.8,3.8c5.4-0.7,9.8-3.3,13.4-7.5c14.6,7.4,29.2,14.9,43.8,22.3c-0.1,2.7-0.5,5.2-0.3,7.7s1,5,1.6,7.9
					c-5,4.9-10.3,10-15.6,15.1c-9.2-3.8-17.6-3.2-24.6,4.1c-6.4,6.8-7,14.7-3.3,23.4c-8.5,8.3-17.2,16.7-25.9,25.3
					C514,761.7,507.9,760.2,500.8,761.8z"/>
				<path class="st3" d="M321.8,769.5c-8.4,4.6-12.3,11.6-11.7,21.2c-13.1,6-26.3,11.9-39.6,17.9c-3.2-4.6-7.4-7.8-12.9-8.9
					c-5.4-1.1-10.5-0.2-15.5,2.8c-2.2-1.8-4.4-3.6-6.6-5.4c-2.2-1.8-4.3-3.5-6.6-5.4c4.6-10.1,3-19-5.4-26.6
					c3.1-6.5,6.2-13,9.3-19.6c6,0.6,11.4-0.7,15.9-4.6c4.6-3.9,6.9-8.9,7.2-15.1c11.6-2.1,23.3-4.1,34.8-6.2
					c4.3,9.3,10.8,13.4,20.5,13.7C314.9,745.4,318.3,757.3,321.8,769.5z"/>
				<path class="st3" d="M217.1,659.2c-2.3-3.9-5.4-6.6-9.5-8.6c3-10.2,6.1-20.3,9.1-30.6c7.9,0.2,14.5-2.4,19-9.2
					c4.4-6.7,4.3-13.8,0.8-21.2c10.6-6.5,21.1-13,31.8-19.5c5.6,7,12.8,9.5,21.8,7.7c7.6,13.3,15.1,26.6,22.8,40
					c-4.2,4.5-6.2,9.8-5.8,16.3C277.2,642.4,247.2,650.7,217.1,659.2z"/>
				<path class="st3" d="M496.6,398.9c-12.7-0.2-25.4-0.4-38.2-0.6c-3.8-9.9-11.1-14.8-21.7-14.5c-1.4-5.4-2.7-10.6-4.1-16
					c11.1-3.4,17.4-10.6,16.3-22.5c-0.9-9.7-7.1-15.3-16.5-17.8c0-6.5,0-13,0-19.7c4.3-1.2,8-3.5,11-7.2c16.8,9,33.5,17.9,50.2,26.8
					c-0.4,10.7,4.1,18.2,14.5,22.2c1.2,10.5,2.4,21.1,3.6,31.7C503.2,384.2,498.2,389.8,496.6,398.9z"/>
				<path class="st3" d="M309.7,692.7c-5.4,0.4-9.9,2.2-13.5,5.9c-3.6,3.6-5.5,8-6.1,13.2c-11.8,2.1-23.4,4.1-35.2,6.2
					c-5.4-10.3-13.6-14.3-25.2-11.9c-5.2-7.4-10.5-15-15.9-22.6c4.3-4.6,6.3-10,5.8-16.6c30-8.4,59.9-16.7,90-25.1
					c2.2,3.8,5.1,6.6,9,8.6C315.5,664.4,312.6,678.5,309.7,692.7z"/>
				<path class="st3" d="M505.2,903.3c-8.3,1.3-13.8,5.7-17,13.2c-17.3-5-34.5-10.1-51.8-15.1c0.6-11.6-4.5-19.2-15.6-23
					c2.7-10.7,5.3-21.3,8-32c7-0.3,12.8-2.9,17-8.6c17.8,3.7,35.5,7.4,53.4,11.2c0.8,3.3,2,6.4,4.1,9.1c2.1,2.7,4.8,4.6,8.2,6.2
					C509.5,877.3,507.3,890.3,505.2,903.3z"/>
				<path class="st3" d="M328.2,722.7c21,6.9,41.8,13.7,62.8,20.6c-1,6.4-0.1,12.3,4.1,17.4c4.2,5.1,9.6,7.5,16.4,7.6
					c3.2,13,6.3,26,9.3,38.6c-3,2.6-5.9,5-9.1,7.7c-20.1-8.2-40.6-16.6-61.2-25c0.3-6-1.4-11.3-5.6-15.6c-4.1-4.3-9.2-6.3-15.3-6.3
					c-3.5-12.1-6.9-24.2-10.4-36.5C323.1,729.3,326,726.5,328.2,722.7z"/>
				<path class="st3" d="M473.7,1050.8c-10.6-2-21-4.1-31.5-6.1c-0.5-7.3-3.7-13.1-9.9-17.2c5.8-13.5,11.5-26.9,17.3-40.3
					c18.6,3.5,30.5-13.7,23.5-29c7.9-5.7,15.8-11.5,23.5-17.1c3.3,1,6.3,2,9.7,3.1c1.5,8.3,3.2,16.9,4.7,25.5
					c-1.3,1-2.5,1.8-3.5,2.7c-6.8,6.1-8.7,15.8-4.7,24.1c0.7,1.4,0.7,2.6,0.2,4c-4.4,11.7-8.7,23.5-13,35.3c-0.6,1.5-1.2,2.4-3,2.9
					c-5.5,1.6-9.5,5.1-12.1,10.2C474.5,1049.5,474.1,1050.1,473.7,1050.8z"/>
				<path class="st3" d="M586.5,436.1c4.2,6.3,8.3,12.6,12.3,18.6c-1.2,2.7-2.6,5.2-3.5,7.8c-0.6,1.7-0.8,3.6-0.7,5.4
					c0,1.6-0.8,2-2,2.5c-7.5,2.9-14.9,5.8-22.3,8.7c-1.8,0.7-3.6,1.4-5.5,2.1c-5.4-7.3-12.6-10.1-21.7-8.6
					c-5.4-18-10.8-36-16.2-54.1c4.9-3.1,8.2-7.3,9.5-12.8s0.4-10.6-2.5-15.7c16.7-10.6,33.2-21.2,49.8-31.8c1.7,1.4,3.3,2.8,5.1,4.3
					c-2.6,11.1-5.3,22.2-7.9,33.4c-14.8,1-21.9,12.6-20.2,23.8C562.3,429.5,571.7,439.3,586.5,436.1z"/>
				<path class="st3" d="M266.1,869.3c-2-10.3-3.9-20.4-5.9-30.6c9.6-4.4,14.1-11.8,13.2-22.5c13-5.9,26.1-11.8,39.3-17.8
					c4.6,7,11,10.2,19.4,9.9c3.3,13.1,6.7,26.1,10,39.2c-7.8,4.2-11.8,10.7-11.7,19.7c-2.2,0.4-4.2,0.8-6.2,1.2
					c-14.6,2.5-29.1,5.1-43.7,7.6c-0.8,0.1-1.5,0.3-2.2-0.4C275.2,872.1,271.1,870.1,266.1,869.3z"/>
				<path class="st3" d="M362.4,475.7c-2.6-11.1-13.1-19.6-27.8-15.2c-5-8.8-9.9-17.6-14.9-26.3c9.5-11.5,5.7-25.7-5.1-32.2
					c1.4-5.5,2.7-11,4.1-16.8c6.4,0.2,11.9-1.7,16.4-6.3c7.1,4.6,14.2,9.2,21.1,13.7c-5.1,16.1,7.4,29.9,23.3,27.5
					c6,14.4,12,28.8,18.2,43.4c-4.7,3.4-7.8,7.9-8.9,14C380,476.9,371.2,476.3,362.4,475.7z"/>
				<path class="st3" d="M468,951.9c-7.6-5.4-15.5-6.5-23.5-1.8s-10.8,12.2-9.7,21.5c-3.1,1.5-6.3,3-9.4,4.5
					c-7.7,3.6-15.3,7.2-23,10.8c-1.5,0.7-2.5,0.7-3.9-0.4c-2.9-2.3-5.5-3.1-11-3.9c-0.8-3.9-1.7-7.9-2.5-12.2
					c5.9-3.6,9.7-8.8,10.4-15.7s-1.7-12.7-6.8-17.6c5.3-7.4,10.6-14.7,15.9-21.9c11.1,6.4,22.4,3.3,29.1-6.2
					c17.7,5.2,35.6,10.4,53.4,15.6c0.3,3.9,1.5,7.3,3.7,10.7C483.1,940.9,475.5,946.4,468,951.9z"/>
				<path class="st3" d="M481.1,544.4c-6.9,3.4-10.9,8.9-12,16.6c-10,0.6-20,1.3-30.1,1.9c-3.7-8.3-10-12.8-19.2-13.3
					c-1.4-16.7-2.8-33.2-4.2-49.9c7.3-3.1,11.9-8.5,13.3-16.4c9.1-1.8,18.2-3.5,27.3-5.3c3.5,6.8,9,10.7,16.4,11.8
					C475.5,508.1,478.3,526.2,481.1,544.4z"/>
				<path class="st3" d="M509.5,827.7c-5.1,3.1-8.4,7.3-10,13.1c-16.8-3.5-33.4-7-50.3-10.5c0.9-6.5-0.2-12.3-4.4-17.3
					c-4.1-4.9-9.5-7.1-16-7.4c-3.1-13-6.3-26.1-9.4-39.2c4-2,7.1-4.8,9.3-8.8c19.1,8.2,38,16.3,57.1,24.5
					c1.4,10.8,7.3,17.4,18.2,19.5C505.8,810.3,507.6,818.9,509.5,827.7z"/>
				<path class="st3" d="M431.2,750c0.1-10.7-4.8-17.8-14.9-21.6c1.9-15.9,3.8-31.9,5.7-48c5.7,0.2,10.8-1.3,15.1-4.9
					c7.8,6.3,15.5,12.5,23.1,18.7c-4.7,14.5,4.5,27.2,18.7,28.2c4.8,14.3,9.7,28.6,14.6,43c-1.3,1.4-2.5,2.6-3.6,4
					c-1,1.4-1.8,3-2.8,4.6C468.4,765.9,449.8,757.9,431.2,750z"/>
				<path class="st3" d="M273.2,506.9c11.1-5.6,13.5-15.6,12-23.1c-1.8-8.9-8.5-14.4-20-16.3c-0.3-1.4-0.6-2.8-0.9-4.2
					c11.8-5.8,14.9-10.7,14.6-23.6c1.8-0.9,3.7-1.8,5.6-2.7c1.9-0.9,3.7-1.8,5.6-2.6c9.5,6.5,11.2,6.9,22.8,4.6
					c4.9,8.7,9.9,17.4,14.9,26.3c-4,4.5-6.1,9.7-5.7,15.8c0.4,6.1,3.3,10.9,8,14.9c-12.6,14.5-25.1,28.8-37.4,42.9
					c-3.7-0.4-7.2-0.8-11-1.3C278.9,527.6,276.1,517.3,273.2,506.9z"/>
				<path class="st3" d="M409.3,822.4c-1,10.1,2.9,17.4,11.6,22.2c-0.1,0.6-0.2,1.2-0.3,1.8c-2.5,10.1-5.1,20.1-7.5,30.2
					c-0.3,1.2-0.8,1.9-2.1,2.2c-3.5,0.8-6.5,2.7-9.2,5.3c-10.2-5.2-20.3-10.4-30.6-15.6c0.3-6.1-1.1-11.6-5.3-16.1
					c-4.1-4.5-9.3-6.6-15.6-6.5c-3.4-13.3-6.8-26.5-10.2-39.9c3.5-2,6.3-4.8,8.4-8.5C368.7,805.8,388.9,814.1,409.3,822.4z"/>
				<path class="st3" d="M550.5,746.9c8.1,5.5,15.7,5.6,23.7,1.4c4.6,3.8,9.4,7.6,14.2,11.6c-2.4,7.4-1.6,14.2,3.1,20.4
					c-1,1.6-53.6,46.2-58.8,49.9c-4.4-3.6-9.5-5.3-15.4-4.9c-1.8-8.2-3.5-16.3-5.2-24.5c6-2.1,10.3-5.8,12.8-11.5
					c2.4-5.7,2.1-11.4-0.4-17.1C533.1,763.8,541.8,755.4,550.5,746.9z"/>
				<path class="st3" d="M447.1,293.4c0.2-1.9,0.4-3.4,0.4-4.9c0.1-1.4,0-2.9,0-4.5c12.4-6,24.8-12,37.4-18.1
					c4.3,4,9.3,6.5,15.3,6.3c5.9-0.1,10.8-2.5,14.9-6.8c12.8,5.4,25.5,10.7,38.3,16c0.2,2,0.3,3.9,0.6,5.8c0.3,1.8,0.9,3.5,1.5,5.5
					c-8.7,7.8-17.5,15.7-26.4,23.7c-4.7-4.8-10.4-7.3-17.1-6.6c-6.7,0.6-11.9,4-15.7,9.9C479.9,310.9,463.5,302.2,447.1,293.4z"/>
				<path class="st3" d="M497.3,406.9c4,10.1,11.3,14.8,22.1,14.3c5.5,18.3,11,36.6,16.3,54.5c-2.3,2.8-4.4,5.4-6.8,8.4
					c-11-3.2-22.4-6.8-34-10.3c1-7.6-0.8-14.3-6.6-19.4s-12.6-6.1-20.3-4c-5.2-10.3-10.5-20.5-15.7-30.6c1.6-2.2,3.2-4.1,4.3-6.2
					c1.1-2.2,1.8-4.6,2.8-7.2C471.8,406.5,484.5,406.7,497.3,406.9z"/>
				<path class="st3" d="M384.7,334.6c8.2,2.9,16.2,5.7,24.2,8.5c-0.6,3.4-0.6,6.6,0.3,9.7c1.9,6.8,6.2,11.5,12.8,13.8
					c1.6,0.6,2.3,1.3,2.7,2.9c1.2,5.1,2.5,10.1,3.8,15.1c0.1,0.5,0.2,1.1,0.3,1.8c-4.4,2.5-7.4,6.2-9.2,11
					c-8.1-0.2-16.1-0.4-24.2-0.5c-1.8-8-6.2-13.6-14-16.1c-7.8-2.4-14.7-0.5-20.8,5.1c-7.1-4.6-14.1-9.1-21.2-13.7
					c1.5-5.2,1.6-10.3-0.7-15.6c5.8-5.1,11.5-10.2,17.4-15.5c4.9,2.8,10.1,4,15.7,2.7C377.3,342.5,381.5,339.4,384.7,334.6z"/>
				<path class="st3" d="M566.3,587.8c4.4,1.3,8.6,1.3,12.9,0c5.3,7.5,10.6,14.9,16,22.4c-3.7,5.5-5.1,11.4-3.3,17.8
					c1.8,6.4,6,10.8,12.3,13.6c-0.5,9-1.1,18.1-1.6,27.2c-4.2,1.3-7.8,3.3-10.7,6.8c-14.8-7.5-29.5-15-44.3-22.6
					c1.7-8.4-0.3-15.6-7.1-21.4C549,617,557.6,602.5,566.3,587.8z"/>
				<path class="st3" d="M368.6,876.3c9.5,4.8,18.9,9.7,28.6,14.6c-1.9,6.3-1.7,12.3,1.7,18.2c-5.8,8-11.5,15.9-17.3,24
					c-10-2.4-18.1,0.6-23.9,9.2c-10.7-2.5-21.4-4.9-31.9-7.3c-2.2-7.6-1.6-7.5-8.2-14.5c3.3-4.1,6.7-8.2,10-12.2
					c5.7-7,11.4-14,17.2-21c0.7-0.9,1.3-1.6,2.7-1.4c8.3,1.3,15-1.6,20.1-8.4c0.2-0.3,0.5-0.6,0.7-1
					C368.3,876.6,368.4,876.5,368.6,876.3z"/>
				<path class="st3" d="M528.6,384.1c-3.1-1.2-5.9-2.3-9-3.5c-1.1-9.9-2.3-19.9-3.4-30.2c0.8-0.2,1.5-0.5,2.3-0.6
					c10.7-2.6,17.4-13,15.2-23.7c-0.4-1.7-0.1-2.7,1.2-3.9c8-7.1,16-14.3,23.9-21.4c0.6-0.5,1.2-1,1.9-1.6c4.5,3.5,9.4,5.1,15.3,4.6
					c3.6,8.3,7.2,16.6,10.9,25.1c-6.8,6-9.3,13.4-7,22.5C562.8,362.3,545.5,373.2,528.6,384.1z"/>
				<path class="st3" d="M585.6,936.9c0.8,6.9,3.9,12.2,9.7,15.9c-0.9,4.5-1.7,8.9-2.6,13.4c-9.1,1.5-14.9,6.7-17.6,15.4
					c-11.5,0.2-22.9,0.4-34.5,0.7c-1.5-4.8-4.1-8.7-8.1-11.5c-4.1-2.9-8.7-3.8-13.7-3.5c-1.5-8.2-3-16.3-4.6-24.5
					c3-1.3,5.7-2.9,8-5.2c2.2-2.3,3.7-5.2,4.9-8.3C546.5,931.8,565.9,934.3,585.6,936.9z"/>
				<path class="st3" d="M445.2,423.5c5.3,10.4,10.6,20.7,15.9,31.1c-4.3,4.2-6.4,9.3-6.5,15.5c-8.6,1.7-17.2,3.4-25.9,5.1
					c-4.1-10.8-11.9-15.8-23.4-14.7c-6.1-14.5-12.1-29-18.3-43.7c4-3,6.9-6.9,8.1-11.9c7.9,0.2,15.6,0.4,23.3,0.6
					C420.3,419.1,431.9,426.8,445.2,423.5z"/>
				<path class="st3" d="M265,562.5c-11.3,6.9-22.5,13.8-33.9,20.8c-3.6-2.5-7.7-4-12.5-4c-1.7-8.6-3.5-17.2-5.2-26
					c5.6-2.3,9.8-5.9,12.1-11.4c2.2-5.4,2.1-10.9-0.3-16.5c0.5-0.4,1-0.9,1.6-1.2c9-5.8,18-11.6,27-17.4c1.1-0.7,2-0.8,3.3-0.3
					c2.5,0.9,5.2,1.5,8.2,2.3c2.9,10.4,5.8,21.1,8.8,31.9C266.5,546,263.5,553.3,265,562.5z"/>
				<path class="st3" d="M599,535.8c-5.1,5.3-10,10.4-15.1,15.6c-4.9-2.9-10.1-3.9-16-2.6c-4.1-12.4-8.3-24.8-12.5-37.4
					c9.3-4.6,13.5-12.1,12.4-22.6c9.6-3.8,19.2-7.5,28.8-11.3c0.4,0.5,0.7,0.8,0.9,1.2c2.5,3.9,5.9,6.7,10.3,8.3
					c1,0.3,1.7,0.7,1.7,1.9c0.1,5.9,0.3,11.8,0.5,17.8c-5.7,2.3-10,6.1-12.2,11.8C595.8,524.4,596.2,530.1,599,535.8z"/>
				<path class="st3" d="M572.4,885.9c-16.5,8-33.1,16-49.9,24.1c-2.6-2.7-5.5-4.7-9.3-5.9c2.1-12.8,4.2-25.5,6.2-38.3
					c5.6-0.2,10.3-2.2,14.3-6c12.6,5.3,25.2,10.6,37.5,15.8C571.7,879,572.1,882.3,572.4,885.9z"/>
				<path class="st3" d="M295.5,919.2c-5.1-6-10.1-11.8-14.9-17.4c1.1-3,2.3-5.8,3-8.7c0.7-3,0.4-6-0.4-9.4
					c8.3-1.6,16.5-2.9,24.7-4.4c8.2-1.4,16.3-2.9,24.2-4.2c2.1,2.5,3.9,4.8,5.9,7.2c-0.5,0.7-1.2,1.6-1.9,2.4
					c-8.4,10.2-16.7,20.4-25,30.7c-1,1.3-2,1.8-3.6,1.5C303.5,916.3,299.6,917.3,295.5,919.2z"/>
				<path class="st3" d="M527.6,921.1c-0.3-1.4-0.6-2.6-1-4.1c16.8-8.1,33.6-16.2,50.5-24.4c3.7,3.6,8.1,5.7,13.5,6.2
					c1.6,6.4,3.2,12.8,4.8,19.3c-4.1,2.6-7,6.2-8.8,10.8C566.9,926.3,547.3,923.8,527.6,921.1z"/>
				<path class="st3" d="M608.9,806.2c-6.9,4.9-9.4,9-10.4,17.1c-19.7,5.2-39.6,10.5-59.7,15.9c-0.4-0.8-0.7-1.5-1.1-2.4
					c2.2-1.8,4.2-3.6,6.3-5.3c17.5-14.8,35.1-29.5,52.6-44.4c1.3-1.1,2.3-1.3,3.8-0.6s3.2,0.9,4.9,1.4
					C606.5,794,607.7,800.1,608.9,806.2z"/>
				<path class="st3" d="M599.5,831.4c1.8,2.7,3.4,5,5.1,7.6c-3.1,6.3-6.3,12.7-9.6,19.4c-8.7-0.9-15.7,2.1-20.7,9.6
					c-12-5-23.9-10-36-15.1c0.4-1.8,0.8-3.6,1.2-5.6C559.6,842,579.7,836.7,599.5,831.4z"/>
				<path class="st3" d="M497.5,1038.3c4.2-11.3,8.2-22.3,12.4-33.5c6,3.4,12.2,4,18.7,1.5c4.1,5.1,8.3,10.2,12.6,15.5
					c-2.7,4.1-3.9,8.7-3.5,13.7c-9.2,3.9-18.3,7.8-27.6,11.7C507,1042.8,503,1039.7,497.5,1038.3z"/>
				<path class="st3" d="M424.8,1024.5c-3.8,0.5-7.3,0.9-11.2,1.4c-3-3.6-6.3-7.6-9.7-11.7c3.6-6.2,4.2-12.8,1.4-19.7
					c11-5.1,21.8-10.2,32.7-15.3c1.5,1.5,2.8,2.9,4.3,4.5C436.4,997.4,430.5,1011.1,424.8,1024.5z"/>
				<path class="st3" d="M540.9,990.5c11.4-0.2,22.5-0.4,33.5-0.6c1.2,3,2.3,5.6,3.4,8.5c-4.1,5.2-8.4,10.7-12.8,16.2
					c-6.2-2-12.2-1.6-18,1.7c-3.9-4.8-7.7-9.6-11.7-14.5C538.3,998.6,540.1,994.9,540.9,990.5z"/>
				<path class="st3" d="M412,335.6c-8-2.8-16.2-5.7-24.4-8.5c-0.1-2.6-0.2-5.2-0.4-8c9.1-4.9,18.3-9.9,27.2-14.7
					c3.3,1.4,6.3,2.7,9.4,4.1c0.4,1.4,0.5,16.3,0.1,19.1c-2.2,1.1-4.4,1.9-6.4,3.3C415.6,332.1,414,333.8,412,335.6z"/>
				<path class="st3" d="M689,892.4c1,0.9,1.9,1.6,2.7,2.3c12.5,10.3,26.2,18.2,41.9,22.5c12.8,3.5,25.8,4.4,39,2.9
					c10.5-1.2,20.6-3.8,30.5-7.4c0.7-0.2,1.4-0.5,2.3-0.8c0.6,0.9,1.2,1.8,1.8,2.7c5.6,8.3,11.2,16.6,16.7,24.9
					c2.1,3.1,5,4.8,8.4,6.1c3.3,1.2,9-2.4,8.9-6.5c0-3.2-0.6-6-2.4-8.6c-3.7-5.4-7.4-10.8-11-16.3c-4.7-7.1-8.1-14.9-9.7-23.3
					c-2.2-11.4-0.8-22.4,3.6-33.1c2-4.8,4.2-9.5,7.4-13.7c0.7-1,1.3-2.3,1.3-3.5c-0.1-4-0.6-7.9-0.9-12.1c-3.7,0.7-7,1.4-10.4,2.1
					c-1.3,0.3-2.4,1.2-3.1,2.5c-4.2,8.4-8.6,16.8-11.8,25.7c-2.7,7.4-3.3,14.9-3,22.7c0.1,2.7,0.2,5.4,0.2,8.2
					c0,0.8-0.1,1.6-0.1,2.4c-0.2,1.7-1,2.9-2.7,3.6c-7.7,3.2-15.7,5.5-23.9,6.8c-14,2.1-27.7,1.2-41.2-3.1
					c-12.8-4.1-24-10.8-33.8-20c-15.5-14.8-24.8-32.9-28.2-54.1c-2.8-17.4-1.4-34.3,5.4-50.6c4.6-11.1,11.2-20.8,19.5-29.5
					c3.4-3.5,6.9-6.9,10.4-10.3c0.6-0.6,1.1-1.2,1.5-1.8c2-2.9,2-6-0.3-8.6c-1.9-2.2-4.2-4.2-6.5-6.1c-5-4.2-9.6-8.9-13.6-14.2
					c-9.7-12.7-15.6-27.1-17.8-42.9c-3-20.9,0-40.8,9.7-59.6c11.2-21.7,28.4-36.3,52.2-42.8c19-5.1,35.7-0.7,50.2,12.6
					c1.2,1.1,2.5,2.3,3.8,3.3c3.4,2.4,7,2,10-0.9c3.5-3.3,4.4-7.1,2-10.5c-1.9-2.7-4.2-5.1-6.6-7.2c-9.9-8.8-21.7-13.7-34.8-15.5
					c-18.8-2.5-36.2,1.7-52.3,11.5c-4.5,2.7-8.9,5.6-13.4,8.4c-0.8,0.5-1.6,1-2.6,1.6c-1.9-2.4-3.9-4.7-5.6-7.1
					c-9.2-12.5-14.5-26.6-16.3-42c-1.7-14.4-0.8-28.6,3.5-42.4c4.2-13.4,11.4-25.1,21-35.4c5.3-5.8,11.1-10.8,18.1-14.4
					c20.6-10.7,46.3-8.2,63.7,7.3c4.3,3.8,7.7,8.3,9.8,13.7c2,5.2,4.2,10.4,6.3,15.6c0.4,0.9,0.8,1.8,1.2,2.6c1.4,2.9,3.7,4.2,7,4
					c3.2-0.1,5.4-1.4,6.7-4.5c1.2-3.1,1.6-6.2,1-9.4c-2.3-12.1-7.5-22.7-16.1-31.6c-4.9-5-10.6-9-16.7-12.3
					c-2.1-1.1-4.2-2.3-6.5-3.6c0.3-1.4,0.5-2.8,0.9-4.2c2.3-8.1,6.4-15.2,11.5-21.7c7.5-9.6,16.4-17.5,27.2-23.1
					c6.9-3.6,14.4-5.2,22.1-5.9c7.2-0.7,14.4,0,21.4,1.7c1.8,0.5,3.8,0.6,5.7,0.6c3.6,0,6.3-2.3,7.3-5.8c1.1-4,0.1-7.6-3.1-9.5
					c-1.8-1.1-3.9-1.8-6-2.3c-18.9-4.1-37.4-2.7-55,5.7c-14.1,6.7-25.3,16.9-34.2,29.7c-4.9,7.2-8.5,15-12.1,22.9
					c-1,2.3-2,4.5-3.2,7c-8.6-0.5-17.3-0.6-25.9,1s-16.7,4.6-24.5,9.1c-0.9-1.3-1.7-2.5-2.5-3.7c-5.4-8.5-8.7-17.8-10.8-27.5
					c-4.5-21.5-2.6-42.4,7.2-62.2c12.5-25.5,33-41.8,60.2-49.3c25.8-7.1,49.6-1.9,71.4,13.1c13.5,9.3,23.4,21.6,30.4,36.4
					c0.4,0.9,0.9,1.9,1.4,2.8c3,5.8,7.8,8.6,14.2,9.1c4.9,0.3,9.9,0.6,14.8,1.4c17.5,2.7,32.8,9.9,45.9,21.8
					c14.2,13,23.5,29,28,47.7c1.4,6,1.9,12.1,2.8,18.2c0.2,1.5,0.3,3,0.5,4.5c0.6,4.4,2.9,7.4,7.1,9.2c3.7,1.5,7.4,3.2,10.8,5.1
					c15.9,8.8,26.1,22.3,31.9,39.3c0.4,1.1,0.7,2.1,1,3.2c0.1,0.2,0,0.5,0,0.8c-0.8,0-1.6,0.1-2.4,0c-7.4-1-14.7-0.1-21.9,1.3
					c-4.4,0.8-8.8,1.7-13.2,2.7c-1.8,0.4-3.7,1-5.4,2c-5.2,3-5.2,11.6-0.1,14.8c2.2,1.4,4.6,1.2,7,0.6c3.6-1,7.1-2.4,10.8-3.2
					c15.5-3.7,30-1.2,43.2,7.9c5.3,3.7,9.7,8.4,12.9,14c7.2,12.3,11.1,25.6,11.4,39.9c0.2,12.5-3.1,24-9.3,34.8
					c-0.1,0.2-0.2,0.4-0.4,0.6c-3.4,5.8-2.9,9.9,1.5,15.1c2.5,2.9,4.9,5.9,7.1,9.1c19.1,28.5,15,67.3-9.7,91.3
					c-1.8,1.8-3.9,3.3-6,5.1c-0.8-0.6-1.6-1.1-2.4-1.7c-7.6-5.6-15.8-9.9-25.1-12c-6-1.4-12.1-1.8-18.1-1
					c-9.4,1.2-18.8,2.7-28.2,4.3c-2.1,0.3-4.1,1.3-5.9,2.4c-2.7,1.7-3.6,4.4-3,7.5c0.5,3,2.3,4.9,5.2,5.6c3.7,1,7.5,0.9,11.2,0.3
					c5.6-0.8,11.2-2,16.8-2.7c20-2.6,35.8,4.6,47.4,20.9c7.1,9.9,10.5,21,9.6,33.2c-1.2,15.7-7.5,28.8-20.5,38.3
					c-6.1,4.4-8.5,10.2-8.1,17.6c0.4,8.7-0.5,17.4-2.3,26c-4.6,21.5-14.3,40.3-29.5,56.1c-16.3,17.1-36.1,27.7-59.2,32.3
					c-2.7,0.5-5.5,1.2-8.1,2.1c-5.9,1.9-10,5.9-11.9,11.9c-0.9,2.9-1.6,5.8-2.3,8.8c-4.8,22.2-14.9,41.4-31,57.4
					c-16.5,16.3-36.3,26.5-59.1,30.7c-23.7,4.3-46.3,1.2-67.9-9.4c-17.5-8.6-31.7-21.2-42.7-37.3c-9.3-13.6-15.9-28.4-19.3-44.6
					c-2.6-12.2-3-24.6-1.4-37c1.2-9.6,3.6-19,6.9-28.1C688.2,894.2,688.6,893.4,689,892.4z M889.3,735.9c-1-0.4-1.7-0.7-2.4-1
					c-15.9-7-32.4-8.8-49.5-5.1c-11.7,2.5-22.5,7.1-32.9,12.9c-3.2,1.8-4.6,4.8-5.1,8.3c-0.1,0.7,0.1,1.6,0.4,2.3
					c1.3,3,3.9,5.9,8.2,5.1c1.3-0.2,2.5-0.5,3.7-0.9c7.1-2.5,14.2-5,21.3-7.5c7-2.5,14.2-4.3,21.7-4.6c11.4-0.4,22,2.4,31.8,8.2
					c8.6,5,15.8,11.7,22.3,19.1c12,13.6,21.1,29.1,28.6,45.6c5.4,12,9.8,24.5,13.8,37c0.6,1.9,1.4,3.8,2.5,5.4
					c2.5,3.7,7.7,4.2,10.6,1.1c3-3.1,4.3-7,3.1-11.3c-5.3-18.2-11.7-35.9-20.5-52.6c-7.9-15.1-17.5-29-29.5-41.2
					c-2.3-2.3-4.6-4.6-6.9-7c-1.2-1.2-2-2.7-2.3-4.4c-0.5-2.9-1.1-5.8-1.6-8.7c-2-12.7-2-25.3,0.7-37.9
					c3.6-16.7,11.6-30.9,24.5-42.2c6.1-5.3,12.8-9.5,20.1-13c1.5-0.7,3-1.6,4.3-2.6c3.3-2.6,4-6.3,2.2-10.1s-5.2-5.7-9.2-4.8
					c-1.6,0.3-3.2,0.9-4.7,1.7c-11.4,5.5-21.5,12.9-30.1,22.2c-9.9,10.7-17.1,22.8-21.4,36.8c-4.3,13.9-5.1,28.1-4.1,42.5
					C889,731.2,889.1,733.4,889.3,735.9z M924.8,457.9c-1.6,3.1-3.3,6-4.8,9.1c-0.7,1.4-0.7,2.9-0.5,4.5c0.7,4.7,1.5,9.3,1.9,14
					c0.7,7.8,0.2,15.5-2,23c-4.8,16.9-15.1,29.4-30.3,37.9c-9.9,5.6-20.7,8.7-31.8,11c-3.4,0.7-6.9,1.4-10.2,2.4
					c-3.3,1-4.8,3.3-4.6,6.7c0.1,2.1,0.4,4.1,0.8,6.2c2.1,9.5,2.8,19.1,1.1,28.8c-2.3,12.9-8,23.9-18,32.5
					c-12.1,10.4-26.5,15.6-42.3,16.7c-8.8,0.6-16.6-2.2-22.9-8.4c-2.7-2.6-5.8-2.7-9.2-2c-2.1,0.5-3.6,1.9-4.1,4
					c-0.4,1.7-0.5,3.5-0.6,5.2c-0.1,1.5,0.6,2.8,1.8,3.8c2.5,2.1,5,4.3,7.6,6.3s5.4,3.7,8.6,4.7c13.1,4.1,26.4,4.6,39.7,0.9
					c12.4-3.4,23.1-10,32.8-18.3c14.9-12.8,22.5-29.1,23.9-48.5c0.5-7,0.3-13.9-0.5-20.8c-0.1-0.9-0.1-1.9-0.2-2.9
					c3.8-1,7.3-1.8,10.9-2.8c12.2-3.3,23.8-8.1,34.1-15.5c19.4-14,30.4-32.9,32.3-56.8c0.8-10.7-0.2-21.4-2.3-32
					c-0.3-1.7-1.3-3.1-2.7-4.1C930.6,461.6,927.7,459.8,924.8,457.9z"/>
			</g>
		</g>
		<g id="Capa_5_2_">
			<g>
				
					<ellipse transform="matrix(0.1602 -0.9871 0.9871 0.1602 292.8415 1153.4009)" class="st4 R1" cx="824.3" cy="404.6" rx="53.8" ry="53.8"/>
			</g>
			<g>
				<circle class="st5 A1" cx="447" cy="401.5" r="54"/>
			</g>
			<g>
				<circle class="st5 A2" cx="293.5" cy="609" r="54"/>
			</g>
			<g>
				<circle class="st5 A3" cx="338.5" cy="838.5" r="54"/>
			</g>
			<g>
				<circle class="st5 A4" cx="482" cy="976.4" r="54"/>
			</g>
			<g>
				<circle class="st4 R2" cx="979.3" cy="612.1" r="53.8"/>
			</g>
			<g>
				<circle class="st4 R3" cx="937.3" cy="844.6" r="53.8"/>
			</g>
			<g>
				
					<ellipse transform="matrix(0.1602 -0.9871 0.9871 0.1602 -302.0279 1604.2158)" class="st4 R4" cx="791.8" cy="979.6" rx="53.8" ry="53.8"/>
			</g>
		</g>
		<g id="Capa_3_3_">
			<g>
				<path class="st6" d="M447.9,343.9c-31.5,0-57,25.5-57,57s25.5,57,57,57s57-25.5,57-57S479.4,343.9,447.9,343.9z M447.9,430.9
					c-16.6,0-30-13.4-30-30s13.4-30,30-30s30,13.4,30,30S464.5,430.9,447.9,430.9z"/>
				<ellipse class="st7" cx="447.9" cy="400.9" rx="24" ry="23"/>
			</g>
			<g>
				<path class="st6" d="M479.9,919.9c-31.5,0-57,25.5-57,57s25.5,57,57,57s57-25.5,57-57S511.4,919.9,479.9,919.9z M479.9,1006.9
					c-16.6,0-30-13.4-30-30s13.4-30,30-30s30,13.4,30,30S496.5,1006.9,479.9,1006.9z"/>
				<ellipse class="st7" cx="479.9" cy="976.9" rx="24" ry="23"/>
			</g>
			<g>
				<path class="st6" d="M978.6,555.9c-31.5,0-57,25.5-57,57s25.5,57,57,57s57-25.5,57-57S1010,555.9,978.6,555.9z M978.6,642.9
					c-16.6,0-30-13.4-30-30s13.4-30,30-30s30,13.4,30,30S995.1,642.9,978.6,642.9z"/>
				<ellipse class="st7" cx="978.6" cy="612.9" rx="24" ry="23"/>
			</g>
			<g>
				<path class="st6" d="M935.9,786.9c-31.5,0-57,25.5-57,57s25.5,57,57,57s57-25.5,57-57S967.4,786.9,935.9,786.9z M935.9,873.9
					c-16.6,0-30-13.4-30-30s13.4-30,30-30s30,13.4,30,30S952.5,873.9,935.9,873.9z"/>
				<ellipse class="st7" cx="935.9" cy="843.9" rx="24" ry="23"/>
			</g>
			<g>
				<path class="st6" d="M792.6,923.9c-31.5,0-57,25.5-57,57s25.5,57,57,57c31.5,0,57-25.5,57-57S824,923.9,792.6,923.9z
					 M792.6,1010.9c-16.6,0-30-13.4-30-30s13.4-30,30-30c16.6,0,30,13.4,30,30S809.1,1010.9,792.6,1010.9z"/>
				<ellipse class="st7" cx="792.6" cy="980.9" rx="24" ry="23"/>
			</g>
			<path class="st8" d="M986.6,612.9c0,0-40.7,47-100.7,3s-72-16-72-16"/>
			<path class="st8" d="M815,750.1c0,0,82.9-70.2,136.9-2.2s-16,96-16,96"/>
			<g>
				<path class="st6" d="M293.9,551.9c-31.5,0-57,25.5-57,57s25.5,57,57,57s57-25.5,57-57S325.4,551.9,293.9,551.9z M293.9,638.9
					c-16.6,0-30-13.4-30-30s13.4-30,30-30c16.6,0,30,13.4,30,30S310.5,638.9,293.9,638.9z"/>
				<ellipse class="st7" cx="293.9" cy="608.9" rx="24" ry="23"/>
			</g>
			<path class="st8" d="M285.9,608.9c0,0,40.7,47,100.7,3s72-16,72-16"/>
			<path class="st8" d="M459,521c0,0-122.4,24.9-116.4-45.1s105.3-75,105.3-75"/>
			<g>
				<path class="st6" d="M336.6,782.9c-31.5,0-57,25.5-57,57s25.5,57,57,57s57-25.5,57-57S368,782.9,336.6,782.9z M336.6,869.9
					c-16.6,0-30-13.4-30-30s13.4-30,30-30s30,13.4,30,30S353.1,869.9,336.6,869.9z"/>
				<ellipse class="st7" cx="336.6" cy="839.9" rx="24" ry="23"/>
			</g>
			<path class="st8" d="M457.5,746.1c10.6,6.4-80.1-68.5-136.9-2.2c-56.5,65.9,16,96,16,96"/>
			<path class="st8" d="M457.2,821.6c0,0-54.6,8.3-62.6,56.3s84,106,84,106"/>
			<rect x="808.6" y="731.6" class="st9" width="12.8" height="37.1"/>
			<rect x="808.3" y="580.3" class="st9" width="12.8" height="37.1"/>
			<path class="st8" d="M815.3,825.6c0,0,54.6,8.3,62.6,56.3s-84,106-84,106"/>
			<rect x="468.6" y="504.3" class="st10" width="341.2" height="339.8"/>
			<path class="st11" d="M734.5,525.5H544c-29.5,0-53.4,23.9-53.4,53.4v190.5c0,29.5,23.9,53.4,53.4,53.4h61.7v-19.3h65h0.1v19.4
				h63.7c29.5,0,53.4-23.9,53.4-53.4V579C787.9,549.5,764,525.5,734.5,525.5z"/>
			
				<rect x="468.2" y="491.4" transform="matrix(1 -6.648769e-03 6.648769e-03 1 -3.2991 3.2471)" class="st9" width="37.1" height="12.8"/>
			
				<rect x="543.7" y="491.7" transform="matrix(1 -6.648769e-03 6.648769e-03 1 -3.2994 3.7491)" class="st9" width="37.1" height="12.8"/>
			
				<rect x="694" y="491.5" transform="matrix(1 -6.648769e-03 6.648769e-03 1 -3.2948 4.7484)" class="st9" width="37.1" height="12.8"/>
			
				<rect x="772.3" y="491.9" transform="matrix(1 -6.648769e-03 6.648769e-03 1 -3.2957 5.269)" class="st9" width="37.1" height="12.8"/>
			<rect x="456.6" y="806.8" class="st9" width="12.8" height="37.1"/>
			<rect x="456.4" y="731.3" class="st9" width="12.8" height="37.1"/>
			<rect x="456.1" y="580" class="st9" width="12.8" height="37.1"/>
			<rect x="455.8" y="504.3" class="st9" width="12.8" height="37.1"/>
			<rect x="468.9" y="844.8" class="st9" width="37.1" height="12.8"/>
			<rect x="544.5" y="844.5" class="st9" width="37.1" height="12.8"/>
			<rect x="695.7" y="844.2" class="st9" width="37.1" height="12.8"/>
			<rect x="771.5" y="843.8" class="st9" width="37.1" height="12.8"/>
			<g>
				<path class="st6" d="M824.6,347.9c-31.5,0-57,25.5-57,57s25.5,57,57,57s57-25.5,57-57S856,347.9,824.6,347.9z M824.6,434.9
					c-16.6,0-30-13.4-30-30s13.4-30,30-30s30,13.4,30,30S841.1,434.9,824.6,434.9z"/>
				<ellipse class="st7" cx="824.6" cy="404.9" rx="24" ry="23"/>
			</g>
			<path class="st8" d="M813.5,525c0,0,122.4,24.9,116.4-45.1s-105.3-75-105.3-75"/>
			<rect x="809.6" y="504" class="st9" width="12.8" height="37.1"/>
			<rect x="808.8" y="807.1" class="st9" width="12.8" height="37.1"/>
		</g>
	</g>
</g>
</svg>
