<?xml version="1.0" encoding="utf-8"?>
<!-- Generator: Adobe Illustrator 22.1.0, SVG Export Plug-In . SVG Version: 6.00 Build 0)  -->
<svg version="1.1" id="Capa_1" xmlns="http://www.w3.org/2000/svg" xmlns:xlink="http://www.w3.org/1999/xlink" x="0px" y="0px"
	 viewBox="0 0 332.5 665" style="enable-background:new 0 0 332.5 665;" xml:space="preserve">
<style type="text/css">
	.st0{fill:#474747;stroke:#474747;stroke-width:14;stroke-miterlimit:10;}
	.st1{fill:#474747;stroke:#474747;stroke-width:11.4105;stroke-miterlimit:10;}
</style>
<g>
	<path class="st0" d="M322.7,171.5c0,74.2-47.6,131.8-142.8,172.7L169,422.1h-40.2l-19.1-109.8C193.3,295.4,235,253.8,235,187.5
		c0-74.6-72.7-111.9-218.1-111.9l12.9-65C225.1,10.6,322.7,64.3,322.7,171.5z"/>
</g>
<path class="st1" d="M161.5,644.8c-0.2,4.5-0.4,8.5-0.6,13c-7.3,0-14.2,0-21.8,0c-0.3-4.3-0.6-8.5-0.9-12.9
	c-7.8-2.1-15.4-4.1-23.6-6.4c-2.1,3.4-4.4,7.1-7,11.4c-6.5-3.8-12.9-7.5-19.6-11.4c2.3-4.3,4.3-8,6.1-11.2
	c-6.2-5.8-11.9-11.2-18.3-17.2c-2.5,1.3-6.2,3.4-10.6,5.7c-3.7-6.4-7.3-12.6-10.9-18.7c0.4-0.7,0.5-1.3,0.8-1.5
	c9.9-6.7,9.9-6.7,6.9-18c-1-3.7-1.8-7.5-2.8-11.9c-4.2,0-8.5,0-13.3,0c0-8,0-15.4,0-23.2c4.4,0,8.5,0,12.8,0c2.1-7.2,4.3-14,6-21
	c0.3-1.3-0.8-3.5-2-4.5c-2.4-1.9-5.3-3.3-8.9-5.4c3.7-6.5,7.4-12.9,11.3-19.7c4.2,2.3,8,4.3,11.6,6.3c5.4-6,10.6-11.9,15.9-17.7
	c0.7,0.4,1.4,0.7,2.1,1.1c-2.2-3.9-4.3-7.8-6.8-12.3c6.6-3.8,12.8-7.4,19.5-11.3c2.6,4.1,5,7.8,7.5,11.7c7.9-2.1,15.5-4.1,23.4-6.2
	c0.2-4.4,0.4-8.7,0.6-13.4c7.4,0,14.5,0,22,0c0.2,4.6,0.4,8.9,0.6,13.4c7.8,2.1,15.4,4.2,23.4,6.4c2.4-3.8,4.9-7.6,7.5-11.7
	c6.6,3.8,12.9,7.4,19.4,11.1c-2.3,4.5-4.4,8.5-6.2,11.9c5.8,5.8,11.3,11.3,17.3,17.2c3.3-1.8,7.3-3.9,11.8-6.2
	c3.8,6.5,7.4,12.7,11.3,19.5c-4.1,2.5-7.9,4.9-11.7,7.2c1.8,7.1,3.2,13.9,5.3,20.6c0.4,1.4,2.9,2.7,4.7,3c3,0.5,6.2,0.1,9.6,0.1
	c0,7.9,0,15,0,21.6c-4.4,4.3-13.3-3.5-14.5,5.9c-1.2,9.3-12.1,21.1,6.7,26c-4.1,7.1-7.6,13.3-11.4,20c-4.2-2.3-7.9-4.3-10.9-5.9
	c-5.8,6-11.3,11.7-17.5,18.1c1.2,2.3,3.2,6.3,5.4,10.7c-6.6,3.8-12.8,7.4-19.4,11.2c-2.5-4-4.8-7.6-7.2-11.4
	C177.4,640.6,169.7,642.6,161.5,644.8z M212.9,523.7c-13.2,7.6-25.8,14.8-38.3,22.1c-3.4,2-3.9,14.5-0.5,16.5
	c12.6,7.5,25.4,14.7,38.7,22.3C222,564.2,222.2,544.5,212.9,523.7z M207.5,514.4c-13.6-18.3-30.5-28-52.9-30.2
	c0,15.6-0.1,30.2,0.1,44.9c0,1.3,1.4,2.9,2.6,3.7c3,1.9,6.2,3.5,9.4,5.2C180.2,530.2,193.5,522.5,207.5,514.4z M154.7,623.9
	c22.5-2.2,39.4-12,52.6-30.1c-13.3-7.7-25.7-15.7-39-21.8c-2.9-1.3-12.8,3.9-13,6.7C154,593.4,154.7,608.4,154.7,623.9z M87.1,524.4
	c-9.9,17.4-9.7,44.7,0.4,59.2c12.6-7.3,25.4-14.5,38-22c3.8-2.3,3-13.3-1-15.6C112.2,538.8,99.8,531.8,87.1,524.4z M143.9,484.7
	c-20.9,1.2-42.6,14.2-51.4,30.5c12.7,7.3,25.3,14.7,38.1,21.9c3.5,2,13.2-4.2,13.2-8.5C144,514.2,143.9,499.7,143.9,484.7z
	 M143.9,623.5c0-15.1,0.1-29.7-0.1-44.4c0-3.8-9.7-9.8-12.9-8c-12.9,7.3-25.7,14.8-38.6,22.2C103.5,610.6,123.3,622.3,143.9,623.5z
	 M162.5,554c-0.1-7-6-12.9-13-12.8c-6.9,0.1-12.7,6.3-12.5,13.3c0.2,6.7,6,12.4,12.6,12.4C156.7,567,162.6,561,162.5,554z"/>
</svg>
