<?xml version="1.0" encoding="utf-8"?>
<!-- Generator: Adobe Illustrator 22.1.0, SVG Export Plug-In . SVG Version: 6.00 Build 0)  -->
<svg version="1.1" id="Capa_1" xmlns="http://www.w3.org/2000/svg" xmlns:xlink="http://www.w3.org/1999/xlink" x="0px" y="0px"
	 viewBox="0 0 768.5 169" style="enable-background:new 0 0 768.5 169;" xml:space="preserve">
<style type="text/css">
	.st0{fill:#F64747;}
</style>
<g>
	<path class="st0" d="M360.3,164.7c-8.8-39.1-28.3-58.6-58.6-58.6c-11.6,0-38,3.6-79.2,10.8c-41.2,7.2-70.2,10.8-87.1,10.8
		C63.9,127.6,21.1,91.7,7.3,19.9l46.9-9.4c9.6,51.7,44.2,77.5,103.9,77.5c13.1,0,37.8-3.6,74.1-10.7c36.3-7.1,59-10.7,68-10.7
		c27.2,0,48.1,6.5,62.6,19.5c14.5,13,21.7,25,21.7,36h3.4c0-10.8,7.1-22.8,21.4-35.8c14.2-13.1,35.5-19.6,63.7-19.6
		c10.1,0,34.1,3.5,72,10.7c37.9,7.1,62.6,10.7,73.9,10.7C666,87.9,699.4,61.3,719,8l48.4,15c-22.7,69.7-62.9,104.6-120.6,104.6
		c-18.7,0-49.4-3.3-92.2-9.8c-42.8-6.5-70.1-9.8-81.6-9.8c-31.2,0-50,18.9-56.3,56.7L360.3,164.7z"/>
</g>
</svg>
