<?xml version="1.0" encoding="utf-8"?>
<!-- Generator: Adobe Illustrator 22.1.0, SVG Export Plug-In . SVG Version: 6.00 Build 0)  -->
<svg version="1.1" xmlns="http://www.w3.org/2000/svg" xmlns:xlink="http://www.w3.org/1999/xlink" x="0px" y="0px"
	 viewBox="0 0 1920 1080" style="enable-background:new 0 0 1920 1080;" xml:space="preserve">
<style type="text/css">
	.st0{fill:none;stroke:#AAAAAA;stroke-width:40;stroke-miterlimit:10;}
	.st1{fill:#AAAAAA;}
	.st2{fill:#0071BC;stroke:#0071BC;stroke-width:3;stroke-miterlimit:10;}
	.st3{fill:#0071BC;}
	.st4{fill:#282828;}
	.st5{fill:#F7F7F7;}
	.st6{fill:#1E1E1E;}
	.st7{fill:none;stroke:#F7CA18;stroke-width:13.1868;stroke-miterlimit:10;}
	.st8{opacity:0.84;}
	.st9{fill:none;stroke:#F03434;stroke-width:16.2144;stroke-miterlimit:10;}
	.st10{fill:none;stroke:#AAAAAA;stroke-width:16.2144;stroke-miterlimit:10;}
	.st11{fill:none;stroke:#F7CA18;stroke-width:16.2144;stroke-miterlimit:10;}
	.st12{fill:none;stroke:#663399;stroke-width:16.2144;stroke-miterlimit:10;}
	.st13{fill:#F03434;}
	.st14{fill:#F7CA18;}
	.st15{fill:#663399;}
	.st16{fill:none;stroke:#0071BC;stroke-width:16.2144;stroke-miterlimit:10;}
	.st17{fill:#EB9532;}
	#Capa_7
	{
		opacity:0;
	}
	#Capa_5:hover ~ #Capa_7
	{
		animation :  Opacity 0.5s linear 1;
		animation-fill-mode: forwards;
	}
	#Capa_8
	{
		opacity:0;
	}
	#Capa_1:hover ~ #Capa_8
	{
		animation :  Opacity 0.5s linear 1;
		animation-fill-mode: forwards;
	}
	@keyframes Opacity {
   		0% {
    		opacity:0;
  		}
  		100% {
    		opacity:1;
  		}
	}
	#Capa_1:hover
	{
		animation :  Scale 2s linear infinite;
		transform-origin: 20% 50% 0;
	}
	#Capa_5:hover
	{
		animation :  Scale 2s linear infinite;
		transform-origin: 80% 50% 0;
	}
	#Capa_3
	{
		animation :  Genet 2s linear infinite;
		transform-origin: 80% 50% 0;
	}
	#Capa_4
	{
		animation :  Genet 5s linear infinite;
		transform-origin: 85% 51% 0;
	}
	#Capa_1
	{
		animation :  Genet 5s linear infinite;
		transform-origin: 20% 50% 0;
	}
	@keyframes Genet {
   		0% {
    		transform:Scale(1);
			transform: rotateX(0);
  		}
		25%
		{
			transform: rotateX(15deg);
		}
  		50% {
    		transform:Scale(1.02);
  		}
		75%
		{
			transform: rotateX(-15deg);
		}
		100% {
    		transform:Scale(1);
			transform: rotateX(0);
  		}
	}
	
	@keyframes Scale {
   		0% {
    		transform:Scale(1);
  		}
  		50% {
    		transform:Scale(1.07);
  		}
		100% {
    		transform:Scale(1);
  		}
	}
</style>
<g id="Capa_6">
	<line class="st0" x1="503.6" y1="861.4" x2="988" y2="955.4"/>
	<line class="st0" x1="1459.5" y1="858.7" x2="985.1" y2="963.3"/>
	<circle class="st1" cx="1459.5" cy="858.7" r="75"/>
	<circle class="st1" cx="510.5" cy="862.2" r="75"/>
	<circle class="st2" cx="988" cy="955.4" r="75"/>
</g>
<g id="Capa_1">
	<g>
		<g>
			<path class="st4" d="M663.5,569.7c-11.7,48.6-24.3,96.3-30.6,104.5c-0.5,0.7-1.2,1.4-1.9,2.2c12.1-4.9,21.2-9.9,24.8-14.7
				c7.3-9.7,21.7-64.5,35.3-121.6C682.7,550.7,673.5,560.6,663.5,569.7z"/>
			<path class="st5" d="M504.3,150.3c-3.5,0-6.9,0-10.3,0.1v244.1c0.5,0,1.1,0,1.6,0c5.5,0,11.1-0.5,16.6-0.7
				c17.8-0.8,35.7-1.5,53.5-2.3c13.9-0.6,27.7-1.2,41.6-1.8c2.4-0.1,4.8-0.3,7.2-0.5c2.3,0,4.6,0,6.8,0.1c1,0.2,2.1,0.4,3.1,0.6
				c17.8,2.8,32.2,18.6,33.1,36.5c0.8,16.1,1.4,32.2,2.1,48.3c0.1,2.7,0.4,5.3,0.5,8c0,1.1,0,2.3,0,3.4c-0.3,2-0.6,4.1-1,6.1
				c-3.3,16.6-17.8,29.9-34.6,31.5c-7.1,0.7-14.3,0.8-21.4,1.1c-17.2,0.8-34.4,1.5-51.7,2.2c-13.1,0.6-26.2,1.1-39.3,1.7
				c-5.8,0.2-11.7,0.7-17.5,0.6c-0.3,0-0.6,0-0.8,0v201.2c1.1,0.1,2.2,0.1,3.3,0.2c28,0.6,114.9-35.8,133.6-54.3
				c0.8-0.7,1.4-1.5,1.9-2.2c6.3-8.2,18.9-55.9,30.6-104.5c10-9.1,19.2-19,27.5-29.7c31.5-40.1,50.5-90.5,51.3-145.5
				C744,261.4,637.5,152,504.3,150.3z"/>
			<path class="st4" d="M494.9,529.3c5.8,0.1,11.7-0.4,17.5-0.6c13.1-0.5,26.2-1.1,39.3-1.7c17.2-0.7,34.4-1.5,51.7-2.2
				c7.1-0.3,14.3-0.4,21.4-1.1c16.8-1.6,31.2-14.9,34.6-31.5c0.4-2,0.7-4,1-6.1c0-1.1,0-2.3,0-3.4c-0.2-2.7-0.4-5.3-0.5-8
				c-0.7-16.1-1.2-32.2-2.1-48.3c-0.9-17.9-15.4-33.7-33.1-36.5c-1.1-0.2-2.1-0.4-3.1-0.6c-2.3,0-4.6,0-6.8-0.1
				c-2.4,0.2-4.8,0.4-7.2,0.5c-13.9,0.6-27.7,1.2-41.6,1.8c-17.8,0.8-35.7,1.5-53.5,2.3c-5.5,0.2-11.1,0.7-16.6,0.7
				c-0.5,0-1.1,0-1.6,0v134.8C494.3,529.2,494.6,529.3,494.9,529.3z"/>
		</g>
		
			<ellipse transform="matrix(1.324501e-02 -0.9999 0.9999 1.324501e-02 106.5916 1036.729)" class="st3" cx="578.6" cy="464.4" rx="42.1" ry="21.4"/>
		<g>
			<path class="st6" d="M359.4,610.8c-0.3-0.9-0.6-1.8-0.9-2.7c-2.5-8.2-3.1-16.6-3.1-25.2c0-5.5,0.2-11,0.2-16.5
				c0-5.2-0.2-10.5,0.1-15.7c0.4-8.4,1.9-16.5,5-24.1c0.6-1.6,1.7-2.9,2.5-4.4c0.2-0.5,0.3-1,0.5-1.6c0.1-0.4,0.1-1,0.3-1.3
				c1.1-1.7,2.2-3.3,3.4-4.9c1.4-1.8,3-3.4,4.5-5.1c-6.1-1.5-10.4-6.3-15.6-9.4c-0.2,0.6-0.3,1.2-0.5,1.7c-0.5-0.3-1.1-0.5-1.6-0.8
				c-0.3-0.3-0.7-0.7-0.8-1.1c-0.6-1.7-1.2-3.4-1.8-5c-0.3-0.7-0.6-1.5-1.1-1.9c-1.1-0.8-2.6-0.9-3.3-2.5c0-0.1-0.3-0.1-0.4-0.2
				c-1.9-1-3.8-1.8-5.6-3c-1-0.7-2-1.7-2.7-2.8c-3.6-5.7-5.6-12.1-6.8-18.9c-0.4-2.1-0.6-4.2-1-6.3c-0.1-3-0.3-6-0.4-9
				c0.1-0.5,0.2-1,0.2-1.5c0-3.3,0-6.6,0-9.9c0-4.1,0.1-8.3,0.3-12.4c0.4-8.7,2-17.2,5.4-25.1c1.8-4.2,4.1-8.1,6.1-12.1
				c0.4-0.7,1-1.3,1.5-2c0.3-0.5,0.6-1.1,0.8-1.6c0.2-0.4,0.2-1.1,0.5-1.4c1.7-1.9,3.4-3.9,5.3-5.7c2.3-2.1,4.7-4,7-6.1
				c2.7-2.4,5.2-5.1,8-7.3c7-5.5,14.7-9.2,22.7-12.5c0.9-0.4,2.1-0.5,3-0.3c2.4,0.5,4.6,0.4,6.9-0.6c5-2.1,10.3-3.4,15.6-4.1
				c1.3-0.2,2.7-0.4,4-0.7c2.9-0.1,5.7-0.3,8.6-0.4c0.4,0.1,0.7,0.2,1.1,0.2c5.5,0.1,10.9,0.8,16.2,2.4c7.9,2.3,15.3,5.9,22.6,9.8
				c0.4,0.2,1.1,0.4,1.5,0.2c8.4-2.9,17-4.4,25.9-4.6c0.6,0,1.1,0,1.7,0V192.1c-10.2,4.3-19.2,8.7-19.2,8.7s-27.4,9.1-48.8,16.6
				c-26.7-31.3-85.4-92.2-137.2-89.1c-3,41.5,2.4,39.2-0.5,69.2c-2.1,22.2,11.8,70,19.1,93.1c-8.1,7.7-14.1,14.6-14.1,14.6l18.4-1.5
				L291,334.1c-4.2-8.7-87.7,45.7-87.7,54.4c0,8.7,25,26.1,48,30.4c-45.9,17.4-75.1,78.3-73,84.8c2.1,6.5,62.6,6.5,62.6,6.5
				s-54.3,56.5-43.8,71.7c10.4,15.2,75.1-6.5,75.1-6.5s-18.8,39.1-14.6,45.7c4.2,6.5,58.4-17.4,58.4-17.4s0,30.4,4.2,32.6
				c2.8,1.4,30.2-7.6,48.5-13.9C364.3,619.9,360.9,616.4,359.4,610.8z"/>
			<path class="st5" d="M495.3,593.1c-6.2,1.7-12.9,0.4-18.2-3.8c-10.9-8.7-22.9-19.3-29.6-32.9c-5.7-11.7-0.4-25.9,11.4-30.4
				c9.5-3.6,22.3-6.6,36.3-4.8V354.4c-0.6,0-1.1,0-1.7,0c-8.8,0.2-17.5,1.6-25.9,4.6c-0.5,0.2-1.1,0-1.5-0.2
				c-7.3-3.9-14.8-7.5-22.6-9.8c-5.3-1.6-10.8-2.3-16.2-2.4c-0.4,0-0.7-0.1-1.1-0.2c-2.9,0.1-5.7,0.3-8.6,0.4
				c-1.3,0.2-2.7,0.5-4,0.7c-5.3,0.8-10.6,2-15.6,4.1c-2.3,1-4.6,1.1-6.9,0.6c-1-0.2-2.1-0.1-3,0.3c-7.9,3.3-15.7,7-22.7,12.5
				c-2.8,2.2-5.3,4.9-8,7.3c-2.3,2.1-4.7,4-7,6.1c-1.9,1.8-3.6,3.8-5.3,5.7c-0.3,0.3-0.3,0.9-0.5,1.4c-0.2,0.6-0.5,1.1-0.8,1.6
				c-0.5,0.7-1.1,1.3-1.5,2c-2.1,4-4.3,7.9-6.1,12.1c-3.4,7.9-5,16.3-5.4,25.1c-0.2,4.1-0.2,8.3-0.3,12.4c0,3.3,0,6.6,0,9.9
				c0,0.5-0.1,1-0.2,1.5c0.1,3,0.3,6,0.4,9c0.3,2.1,0.6,4.2,1,6.3c1.2,6.8,3.1,13.2,6.8,18.9c0.7,1.1,1.7,2.1,2.7,2.8
				c1.8,1.2,3.7,2,5.6,3c0.1,0.1,0.4,0.1,0.4,0.2c0.6,1.7,2.1,1.7,3.3,2.5c0.5,0.4,0.8,1.2,1.1,1.9c0.6,1.6,1.2,3.3,1.8,5
				c0.2,0.4,0.5,0.8,0.8,1.1c0.5,0.4,1.1,0.6,1.6,0.8c0.1-0.6,0.3-1.1,0.5-1.7c5.1,3,9.5,7.9,15.6,9.4c-1.6,1.8-3.1,3.4-4.5,5.1
				c-1.2,1.5-2.3,3.2-3.4,4.9c-0.2,0.3-0.2,0.9-0.3,1.3c-0.1,0.5-0.2,1.1-0.5,1.6c-0.8,1.5-1.8,2.8-2.5,4.4
				c-3.1,7.6-4.6,15.8-5,24.1c-0.2,5.2,0,10.5-0.1,15.7c0,5.5-0.2,11-0.2,16.5c0,8.5,0.6,17,3.1,25.2c0.3,0.9,0.6,1.8,0.9,2.7
				c1.5,5.6,4.9,9.1,9.4,11.6c0.2,0.1,0.4,0.2,0.6,0.3c0.4,0.2,0.7,0.8,1.1,1.2c0.5,0.5,0.9,1.1,1.5,1.4c1.5,0.7,2.1,1.8,2.4,3.6
				c0.3,1.9,1.2,3.8,1.8,5.7c0.2,0.4,0.5,0.8,0.9,1.1c0.3,0.2,0.7,0.4,1.1,0.3c0.2-0.1,0.2-0.7,0.3-1c0-0.2,0-0.4,0-0.9
				c2,1.8,3.9,3.4,5.7,5.1c3.8,3.7,8,6.6,12.9,8.1c1.2,0.4,2,1.3,2.5,2.6c0.2,0.5,0.6,0.9,1.1,1.2c1.2,0.8,2.5,1.5,3.6,2.5
				c2.8,2.6,5.9,4.1,9.6,4c1.9-0.1,3.7,0,5.6,0c1.5,0,2.9,0.6,3.9,1.6c3.7,3.8,7.9,6.4,12.4,8.7c1.5,0.8,2.7,1.9,3.3,3.7
				c0.1,0.4,0.5,0.7,0.9,0.9c1.6,1.1,3.3,2.1,4.7,3.4c4,4,8.8,5.7,14,6.1c1.9,0.1,3.9,0.3,5.8,0.6c0.9,0.1,1.7,0.6,2.5,1
				c2.8,1.4,5.6,2.6,8.3,4.1c4.9,2.7,10.1,3.2,15.3,3.4c0.5,0,1.1,0.1,1.6,0.2c1.2-0.1,2.4-0.1,3.7-0.2V593.1z M448,424.6
				c11.8,0.2,21.1,18.3,20.8,40.6c-0.3,22.2-10.1,40.2-21.9,40c-11.8-0.2-21.1-18.3-20.8-40.6C426.4,442.3,436.2,424.4,448,424.6z"
				/>
			<path class="st6" d="M459,525.9c-11.8,4.5-17.2,18.7-11.4,30.4c6.7,13.6,18.7,24.2,29.6,32.9c5.3,4.2,12,5.5,18.2,3.8v-71.9
				C481.3,519.3,468.5,522.3,459,525.9z"/>
			
				<ellipse transform="matrix(1.324633e-02 -0.9999 0.9999 1.324633e-02 -23.2445 906.1835)" class="st6" cx="447.5" cy="464.9" rx="40.3" ry="21.4"/>
		</g>
	</g>
</g>
<g id="Capa_8">
	<g>
		<path class="st3" d="M575.9,896.6c6.2-12.4,8.7-25.4,7.9-39.2c111.8,21.7,223.6,43.3,335.4,65c-3,6.2-5.2,12.5-6.5,19.1
			c-1.3,6.6-1.5,13.3-1.2,20.2C799.7,940,687.9,918.3,575.9,896.6z"/>
	</g>
	<circle class="st2" cx="510" cy="861.9" r="75"/>
</g>
<g id="Capa_4">
	<line class="st7" x1="1545.1" y1="676.2" x2="1366.5" y2="673.6"/>
	<g class="st8">
		<line class="st9" x1="1191.3" y1="278.3" x2="1355.6" y2="185.3"/>
		<line class="st10" x1="1353.4" y1="348.6" x2="1191.3" y2="278.3"/>
		<line class="st10" x1="1353.4" y1="506.8" x2="1191.3" y2="278.3"/>
		<line class="st10" x1="1353.4" y1="664.5" x2="1191.3" y2="278.3"/>
		<line class="st10" x1="1355.6" y1="185.3" x2="1192" y2="435.7"/>
		<line class="st10" x1="1353.4" y1="506.8" x2="1198" y2="435.9"/>
		<line class="st10" x1="1353.4" y1="664.5" x2="1198" y2="440.9"/>
		<line class="st10" x1="1193.9" y1="598.5" x2="1355.6" y2="185.3"/>
		<line class="st10" x1="1353.4" y1="348.6" x2="1187.1" y2="601.8"/>
		<line class="st10" x1="1353.4" y1="506.8" x2="1187.1" y2="601.8"/>
		<line class="st11" x1="1353.4" y1="664.5" x2="1187.1" y2="601.8"/>
		<line class="st10" x1="1353.4" y1="191.1" x2="1575.6" y2="190.3"/>
		<line class="st10" x1="1348.8" y1="513.9" x2="1567.4" y2="510.6"/>
		<line class="st10" x1="1353.4" y1="348.6" x2="1573" y2="510.9"/>
		<line class="st10" x1="1347.4" y1="503.9" x2="1582.4" y2="669.9"/>
		<line class="st10" x1="1348.8" y1="673.2" x2="1577" y2="517.2"/>
		<line class="st10" x1="1347.4" y1="508.9" x2="1566.1" y2="351.3"/>
		<line class="st10" x1="1353.4" y1="348.6" x2="1582.4" y2="188.6"/>
		<line class="st10" x1="1353.4" y1="348.6" x2="1573" y2="667.7"/>
		<line class="st10" x1="1352.8" y1="502.3" x2="1572.3" y2="195.2"/>
		<line class="st10" x1="1346" y1="668.2" x2="1572.3" y2="353.6"/>
		<line class="st10" x1="1351.5" y1="185.3" x2="1572.9" y2="673.2"/>
		<line class="st10" x1="1353.4" y1="664.5" x2="1564.7" y2="188.6"/>
		<line class="st10" x1="1735.4" y1="357.7" x2="1568.8" y2="183.6"/>
		<line class="st12" x1="1566.1" y1="351.3" x2="1735.4" y2="357.7"/>
		<line class="st10" x1="1571.5" y1="518.9" x2="1737.2" y2="367.8"/>
		<line class="st10" x1="1572.9" y1="673.2" x2="1735.4" y2="357.7"/>
		<line class="st10" x1="1566.1" y1="351.3" x2="1735.4" y2="514.4"/>
		<line class="st11" x1="1572.9" y1="673.2" x2="1739.9" y2="517.2"/>
		<ellipse class="st13" cx="1353.4" cy="191.1" rx="45.5" ry="55.6"/>
		<ellipse class="st3" cx="1353.4" cy="348.6" rx="45.5" ry="55.6"/>
		<ellipse class="st1" cx="1353.4" cy="506.8" rx="45.5" ry="55.6"/>
		<ellipse class="st14" cx="1353.4" cy="664.5" rx="45.5" ry="55.6"/>
		<ellipse class="st1" cx="1572.3" cy="195.2" rx="45.5" ry="55.6"/>
		<ellipse class="st13" cx="1573" cy="510.9" rx="45.5" ry="55.6"/>
		<ellipse class="st14" cx="1573" cy="667.7" rx="45.5" ry="55.6"/>
		<ellipse class="st13" cx="1191.3" cy="278.3" rx="45.5" ry="55.6"/>
		<ellipse class="st3" cx="1192" cy="435.7" rx="45.5" ry="55.6"/>
		<ellipse class="st14" cx="1192" cy="592.4" rx="45.5" ry="55.6"/>
		<ellipse class="st15" cx="1735.4" cy="357.7" rx="45.5" ry="55.6"/>
		<line class="st16" x1="1353.4" y1="348.6" x2="1192" y2="435.7"/>
		<line class="st9" x1="1353.4" y1="191.1" x2="1577" y2="356.2"/>
		<line class="st9" x1="1353.4" y1="191.1" x2="1581" y2="515.5"/>
		<line class="st16" x1="1353.4" y1="348.6" x2="1586.5" y2="349.6"/>
		<line class="st9" x1="1577" y1="517.2" x2="1735.4" y2="514.4"/>
		<ellipse class="st17" cx="1735.4" cy="514.4" rx="45.5" ry="55.6"/>
		<ellipse class="st15" cx="1572.3" cy="353.6" rx="45.5" ry="55.6"/>
	</g>
</g>
<g id="Capa_5">
	<g>
		<path class="st4" d="M1272.7,413c0,0,20.1,205.3,54.8,248.5s124.9,47.4,140.2,49.6c15.3,2.2,132.8-23.4,147.6-43.5
			c14.8-20.1,61.2-247,61.2-247l-79.3-111.5l-235.8-21.2L1272.7,413z"/>
		<path class="st5" d="M1694.4,417c1.6-125-95.7-227.7-217.4-229.4C1355.2,186,1255.2,286,1253.6,411
			c-0.9,66.1,25.9,125.9,69.4,167.9c7.6,40.4,17.8,80.2,30.3,95.5c29,35.6,90.6,57.5,117.2,58.1c26.6,0.6,111.5-36.4,123.9-53
			c5.8-7.7,17.3-52.5,28-98.1C1665.9,540.7,1693.5,482.2,1694.4,417z"/>
		<g>
			<path class="st4" d="M1577.6,412c2.1,0,4.2,0,6.3,0.1c1,0.2,1.9,0.4,2.9,0.6c16.2,2.7,29.4,17.4,30.3,34.3
				c0.8,15.1,1.3,30.2,1.9,45.3c0.1,2.5,0.3,5,0.5,7.5c0,1.1,0,2.1,0,3.2c-0.3,1.9-0.5,3.8-0.9,5.7c-3,15.6-16.3,28.1-31.6,29.6
				c-6.5,0.6-13,0.7-19.6,1c-15.7,0.7-31.5,1.4-47.2,2.1c-12,0.5-23.9,1.1-35.9,1.6c-5.3,0.2-10.7,0.7-16,0.6
				c-12.3-0.2-24.6-0.7-36.9-1.1c-9.3-0.3-18.5-0.6-27.8-0.9c-15.9-0.5-31.9-1-47.8-1.4c-17.7-0.4-32.1-12.4-35.8-29.8
				c-0.4-2.1-0.7-4.2-1-6.3c0-1.7,0-3.3,0-5c0.1-0.3,0.2-0.6,0.2-0.9c0.4-13.8,0.7-27.6,1.2-41.4c0.1-4.2,0.2-8.4,0.9-12.5
				c2.9-17.5,18.6-30.8,35.9-30.6c4.3,0,8.6,0.2,12.9,0.4c7.3,0.2,14.7,0.4,22,0.6c15,0.5,30.1,0.9,45.1,1.4
				c5.2,0.2,10.5,0.4,15.7,0.5c5.3,0.2,10.7,0.4,16,0.4c5.1,0,10.1-0.4,15.2-0.6c16.3-0.7,32.6-1.4,48.9-2.2
				c12.7-0.6,25.3-1.1,38-1.7C1573.2,412.3,1575.4,412.1,1577.6,412z"/>
		</g>
		
			<ellipse transform="matrix(1.266445e-02 -0.9999 0.9999 1.266445e-02 888.0132 1867.3716)" class="st3" cx="1389.6" cy="484" rx="39.5" ry="19.5"/>
		
			<ellipse transform="matrix(1.266445e-02 -0.9999 0.9999 1.266445e-02 1042.7439 2020.9979)" class="st3" cx="1544.8" cy="482.5" rx="39.5" ry="19.5"/>
	</g>
</g>
<g id="Capa_7">
	<g>
		<path class="st3" d="M1063.2,966.8c2-13.8,0.5-27-4.7-39.9c109-24,218-48.1,327.1-72.1c-0.6,13.8,2.2,26.8,8.6,39.1
			C1283.9,918.1,1173.7,942.4,1063.2,966.8z"/>
	</g>
	<circle class="st2 circleS" cx="1460" cy="858.2" r="75"/>
</g>
<g id="Capa_3">
	<g>
		<path class="st4" d="M1330.4,331.1c-0.7,0.7-1.4,1.3-2,2c-7.7,8.5-17.3,14.5-28.1,19c-10.3,4.3-21.2,6.9-32.6,8.5
			c-17.9,2.5-36.3,2.5-55,0.4c-5.2-0.6-10.4-1.6-15.6-2.3c-4.3-0.6-8.7-0.9-13-1.4c-0.4,0-0.8,0-1.4-0.1c0.4,0.4,0.5,0.6,0.8,0.8
			c3.1,2.6,6.1,5.1,9.2,7.7c2.8,2.3,5.6,4.6,8.3,7c2.1,1.9,1.8,4.9-0.5,5.6c-1.3,0.4-2.5,0.1-3.7-0.9c-1.7-1.4-3.4-2.9-5.1-4.3
			c-3.7-3.1-7.4-6.2-11.1-9.4c-2.6-2.2-5.3-4.4-7.9-6.7c-0.4-0.4-0.8-0.6-1.3-0.6c-10-0.2-19.9,0.3-29.4,2.1c-0.1,0-0.2,0.1-0.5,0.2
			c0.5,0.4,0.8,0.7,1.2,1c13.7,11,27.5,22,41.2,33c0.3,0.3,0.7,0.5,1,0.8c1.6,1.4,1.9,3.4,0.9,4.8c-1,1.3-3,1.5-4.6,0.4
			c-0.4-0.2-0.7-0.5-1-0.8c-15.1-12.1-30.3-24.3-45.4-36.4c-0.4-0.4-0.9-0.7-1.4-1.1c-10.7,3-20.1,7.8-27.8,15.5
			c0.6,0.5,1,0.8,1.4,1.2c18.3,14.7,36.6,29.3,54.9,44c0.4,0.3,0.8,0.6,1.2,1c1.4,1.4,1.8,3.4,0.8,4.7c-1,1.3-3.1,1.4-4.8,0.2
			c-0.3-0.2-0.6-0.5-0.9-0.7c-18.4-14.8-36.9-29.5-55.3-44.3c-0.6-0.5-1.1-1.2-2-1.1c-0.1,0-0.2-0.1-0.3-0.2c-2-1.6-4-3.2-6.1-4.9
			c0.6-0.8,1-1.6,1.6-2.3c7.6-9.8,17.6-16.6,29.5-21c10.1-3.8,20.8-5.7,31.9-6.6c13.3-1,26.9-0.4,40.6,1.1c5.4,0.6,10.9,1.4,16.3,2
			c7.7,0.8,15.3,1,22.9,0.8c2.5,0,5-0.2,7.5-0.3c0.2,0,0.5-0.1,0.9-0.1c-0.7-0.6-1.3-1.2-1.9-1.6c-4.6-3.8-9.1-7.6-13.7-11.4
			c-1.6-1.3-3.2-2.6-4.7-4c-1.3-1.2-1.7-2.9-1-4.2c0.6-1.3,2.2-1.9,3.7-1.3c0.5,0.2,1,0.5,1.4,0.8c3.4,2.8,6.8,5.7,10.3,8.5
			c1.4,1.2,2.9,2.4,4.3,3.6c3.4,2.8,6.7,5.6,10,8.4c0.5,0.4,0.9,0.6,1.6,0.6c10.2-1.1,20.1-2.9,29.6-6c0.5-0.1,0.9-0.3,1.6-0.6
			c-0.7-0.6-1.3-1.2-1.9-1.7c-4-3.3-8-6.6-12-9.8c-4.5-3.7-9-7.4-13.4-11c-3.3-2.7-6.6-5.4-9.9-8.1c-1.3-1.1-2.7-2.2-4-3.4
			c-1.4-1.3-1.6-3.1-0.7-4.4c1.1-1.5,3.1-1.7,4.8-0.3c2.8,2.3,5.6,4.5,8.4,6.8c4.8,3.9,9.5,7.8,14.2,11.7c4.1,3.4,8.3,6.8,12.4,10.2
			c2.7,2.2,5.4,4.4,8.1,6.7c0.3,0.2,0.6,0.5,1,0.8c8.8-3.8,16.8-8.7,23.4-15.6c-0.5-0.4-0.9-0.7-1.3-1
			c-16.3-13.1-32.6-26.1-48.9-39.2c-0.3-0.2-0.5-0.4-0.8-0.7c-1.7-1.4-2.1-3.6-1.1-5c1.1-1.4,3.1-1.5,4.9-0.2c0.3,0.3,0.7,0.5,1,0.8
			c16.3,13,32.5,26,48.8,39.1c0.4,0.4,0.9,0.7,1.4,1.2c0.3-0.3,0.5-0.6,0.8-0.9c2.6-3.5,4.6-7.4,6.2-11.6c2-5,3.1-10.3,3.8-15.8
			c0.1-0.6,0-1-0.6-1.4c-0.3-0.2-0.5-0.4-0.7-0.6c-14.3-11.5-28.6-22.9-43-34.4c-0.3-0.3-0.7-0.5-1-0.8c-1.5-1.4-1.8-3.4-0.7-4.8
			c1.1-1.4,3-1.4,4.7-0.2c0.3,0.2,0.6,0.5,0.9,0.7c13.1,10.5,26.3,21,39.4,31.6c0.4,0.3,0.8,0.6,1.4,1.1c0-0.5,0.1-0.9,0.1-1.3
			c-0.1-6.2-0.8-12.4-2-18.6c-0.6-3.1-1.3-6.1-2-9.1c-0.2-0.8-0.6-1.3-1.3-1.8c-5.8-4.4-11.6-8.9-17.4-13.3c-2-1.5-4-3-6-4.6
			c-1.4-1-2-2.6-1.6-3.9c0.3-1.3,1.5-2.2,3-2.1c0.8,0,1.5,0.3,2.2,0.8c1.5,1.1,3,2.3,4.5,3.4c4.3,3.2,8.5,6.5,12.8,9.7
			c0.1,0.1,0.2,0.1,0.5,0.2c-0.1-0.5-0.2-0.9-0.4-1.2c-3-9-6.6-18-10.7-26.8c-3.7-8.1-7.3-16.3-10.4-24.6c-4.5-12.3-8-24.8-9.8-37.4
			c-1.4-9.9-1.6-19.6,0-29c1.1-6.8,3.1-13.2,6.2-19.2c2.1-4.1,4.6-7.8,7.5-11.2c1.4-1.7,3.1-3.2,4.6-4.8c0.1-0.1,0.3-0.2,0.5-0.3
			c0.4,0.3,0.7,0.6,1.1,0.9c21.1,16.9,42.2,33.8,63.3,50.7c1.3,1,1.4,1.7,0.6,2.8c-1,1.4-3.1,1.6-4.7,0.4c-0.4-0.3-0.7-0.5-1-0.8
			c-18.3-14.6-36.5-29.3-54.8-43.9c-0.4-0.4-0.9-0.7-1.3-1c-3.9,2.3-10.7,16.5-11.9,24.9c1.4,1.1,2.7,2.2,4.1,3.3
			c2.7,2.1,5.4,4.2,8,6.3c5.2,4.1,10.5,8.2,15.7,12.3c4.5,3.5,9,7,13.5,10.5c3.6,2.8,7.2,5.6,10.8,8.4c2,1.5,2.1,4.1,0.4,5.4
			c-1,0.7-2.1,0.8-3.4,0.2c-0.5-0.2-1-0.6-1.4-0.9c-4-3.1-7.9-6.2-11.9-9.4c-4.7-3.6-9.3-7.3-14-10.9c-3.2-2.5-6.4-5-9.7-7.6
			c-4.2-3.3-8.5-6.6-12.7-9.9c-0.1-0.1-0.3-0.2-0.6-0.4c-0.1,0.5-0.1,0.9-0.1,1.3c-0.4,7.2,0.1,14.4,1.4,21.8
			c0.7,3.7,1.6,7.5,2.3,11.2c0.2,0.8,0.5,1.3,1.2,1.9c3.8,2.9,7.6,5.8,11.4,8.8c3.4,2.6,6.8,5.3,10.2,7.9c3.2,2.4,6.3,4.9,9.5,7.3
			c1.1,0.9,1.6,2,1.5,3.3c-0.1,1.3-0.8,2.2-2,2.5c-1,0.3-2.1,0.1-3-0.6c-1.8-1.3-3.5-2.7-5.3-4c-4.9-3.8-9.9-7.6-14.8-11.4
			c-1.6-1.3-3.3-2.6-4.9-3.9c-0.1,0-0.2,0.1-0.3,0.1c0.1,0.4,0.2,0.8,0.4,1.2c2.7,7.9,5.8,15.7,9.3,23.4c2.3,5,4.7,9.9,7,14.9
			c6.3,13.6,11.6,27.4,15,41.6c2.6,10.7,4.1,21.4,3.8,31.9c-0.2,8.7-1.7,17-4.6,24.8c-1.7,4.5-3.8,8.6-6.3,12.6
			c-0.2,0.3-0.3,0.7-0.4,1C1332.9,327.7,1331.6,329.4,1330.4,331.1z"/>
	</g>
	<g>
		<path class="st15" d="M1199.5,228c-0.5,0.8-0.9,1.7-1.4,2.5c-6,9.8-9.3,20.9-10.9,32.9c-1.5,11.3-1.2,23,0.1,34.7
			c2.1,18.6,6.7,36.9,13.4,55.1c1.9,5,4.1,10,6,15c1.6,4.2,3,8.4,4.6,12.7c0.1,0.4,0.2,0.8,0.4,1.4c-0.4-0.3-0.7-0.4-1-0.6
			c-3.2-2.4-6.4-4.9-9.5-7.3c-2.9-2.2-5.7-4.4-8.7-6.5c-2.3-1.6-5-0.6-5.2,1.9c-0.1,1.4,0.6,2.5,1.8,3.5c1.8,1.3,3.5,2.7,5.3,4
			c3.8,2.9,7.7,5.8,11.5,8.8c2.7,2.1,5.5,4.2,8.2,6.2c0.4,0.3,0.8,0.7,0.9,1.2c2.7,10,4.6,20,5.3,30c0,0.1,0,0.2-0.1,0.5
			c-0.5-0.4-0.9-0.7-1.2-1c-13.7-11-27.5-22-41.2-33c-0.3-0.3-0.7-0.6-1-0.8c-1.7-1.2-3.7-1.1-4.7,0.3c-1,1.3-0.7,3.3,0.8,4.7
			c0.3,0.3,0.7,0.6,1,0.8c15.1,12.1,30.3,24.3,45.4,36.4c0.4,0.4,0.9,0.7,1.4,1.1c-0.2,11.4-2.3,22.1-7.6,31.7
			c-0.6-0.5-1-0.8-1.4-1.2c-18.3-14.7-36.6-29.3-54.9-44c-0.4-0.3-0.8-0.7-1.2-1c-1.7-1.1-3.7-0.9-4.6,0.4c-1,1.4-0.6,3.4,1,4.8
			c0.3,0.3,0.6,0.5,0.9,0.7c18.4,14.8,36.9,29.5,55.3,44.3c0.6,0.5,1.4,0.8,1.5,1.8c0,0.1,0.2,0.2,0.3,0.3c2,1.6,4,3.2,6.1,4.9
			c0.6-0.8,1.2-1.4,1.8-2.2c7.4-10,11.2-21.7,12.4-34.7c1-11,0.2-22.2-1.8-33.5c-2.4-13.6-6.3-27-11.2-40.3
			c-1.9-5.3-4.1-10.5-5.9-15.8c-2.6-7.5-4.7-15.1-6.5-22.7c-0.6-2.5-1.1-5.1-1.6-7.6c0-0.2-0.1-0.5-0.1-0.9c0.8,0.5,1.4,1,2,1.4
			c4.7,3.6,9.4,7.2,14.1,10.9c1.6,1.2,3.2,2.5,4.9,3.7c1.4,1,3.1,1,4.2,0c1-0.9,1.2-2.6,0.3-4c-0.3-0.5-0.7-0.9-1.1-1.2
			c-3.5-2.7-7-5.4-10.5-8.1c-1.5-1.1-3-2.3-4.4-3.4c-3.4-2.7-6.9-5.3-10.3-8c-0.5-0.4-0.8-0.8-0.9-1.4c-1.5-10.5-2.2-20.8-1.7-31.1
			c0-0.5,0.1-1,0.1-1.7c0.8,0.6,1.5,1,2.1,1.5c4.1,3.2,8.2,6.4,12.2,9.6c4.6,3.6,9.1,7.1,13.7,10.7c3.4,2.6,6.7,5.3,10.1,7.9
			c1.4,1.1,2.7,2.2,4.2,3.1c1.6,1.1,3.3,0.9,4.3-0.4c1.2-1.5,0.8-3.5-0.9-4.9c-2.8-2.3-5.7-4.5-8.5-6.7c-4.8-3.8-9.7-7.6-14.5-11.3
			c-4.2-3.3-8.4-6.6-12.7-9.9c-2.7-2.1-5.5-4.3-8.3-6.4c-0.3-0.2-0.6-0.5-1-0.8c1.3-9.8,3.9-19,8.8-27.3c0.5,0.4,0.9,0.7,1.3,1
			c16.3,13.1,32.6,26.1,48.9,39.2c0.3,0.2,0.5,0.4,0.8,0.7c1.8,1.3,3.9,1.3,4.9-0.2c1-1.4,0.6-3.5-1.1-4.9c-0.3-0.3-0.7-0.5-1-0.8
			c-16.3-13-32.5-26-48.8-39.1c-0.4-0.4-0.9-0.7-1.4-1.2c0.2-0.4,0.4-0.7,0.7-1c2.7-3.4,5.8-6.5,9.3-9.1c4.2-3.2,8.9-5.7,13.9-7.7
			c0.5-0.2,0.9-0.2,1.4,0.3c0.2,0.2,0.5,0.4,0.7,0.6c14.3,11.5,28.6,22.9,43,34.4c0.3,0.3,0.7,0.6,1,0.8c1.7,1.2,3.7,1,4.7-0.4
			c1-1.4,0.6-3.4-1-4.8c-0.3-0.3-0.6-0.5-0.9-0.7c-13.1-10.5-26.3-21-39.4-31.6c-0.4-0.3-0.8-0.6-1.4-1.1c0.5-0.2,0.8-0.3,1.2-0.4
			c5.8-1.4,11.8-2.3,18-2.6c3-0.2,6.1-0.2,9.1-0.3c0.8,0,1.4,0.3,2,0.8c5.6,4.7,11.2,9.4,16.8,14.1c1.9,1.6,3.8,3.3,5.8,4.9
			c1.3,1.1,2.9,1.3,4.1,0.6c1.2-0.7,1.7-2,1.3-3.5c-0.2-0.8-0.7-1.5-1.3-2c-1.4-1.2-2.9-2.4-4.3-3.6c-4.1-3.5-8.2-6.9-12.3-10.4
			c-0.1-0.1-0.1-0.2-0.3-0.4c0.5,0,0.9,0,1.2,0c9.2,0.8,18.5,2.2,27.7,4c8.6,1.7,17.1,3.3,25.7,4.2c12.7,1.5,25.2,1.9,37.5,0.5
			c9.6-1.1,18.8-3.3,27.2-7.2c6.1-2.8,11.6-6.4,16.4-10.9c3.3-3.1,6.1-6.6,8.6-10.3c1.2-1.8,2.2-3.8,3.3-5.8
			c0.1-0.2,0.1-0.4,0.2-0.6c-0.4-0.3-0.7-0.6-1.1-0.9c-21.1-16.9-42.2-33.8-63.3-50.7c-1.3-1-1.9-1-2.8,0.1
			c-1.1,1.3-0.7,3.5,0.8,4.8c0.3,0.3,0.7,0.6,1,0.8c18.3,14.6,36.5,29.3,54.8,43.9c0.4,0.4,0.9,0.7,1.3,1
			c-1.2,4.5-12.8,14.8-20.4,18.1c-1.4-1.1-2.8-2.2-4.1-3.3c-2.6-2.2-5.2-4.3-7.9-6.5c-5.2-4.2-10.3-8.4-15.5-12.7
			c-4.4-3.6-8.8-7.3-13.2-10.9c-3.5-2.9-7-5.8-10.6-8.7c-1.9-1.6-4.4-1.1-5.2,0.9c-0.4,1.1-0.2,2.3,0.7,3.4c0.3,0.4,0.8,0.8,1.2,1.2
			c3.9,3.2,7.8,6.4,11.7,9.6c4.6,3.8,9.2,7.5,13.7,11.3c3.2,2.6,6.3,5.2,9.5,7.8c4.1,3.4,8.3,6.8,12.4,10.2c0.1,0.1,0.2,0.2,0.5,0.5
			c-0.5,0.2-0.8,0.3-1.2,0.5c-6.6,2.2-13.6,3.5-20.8,4c-3.7,0.3-7.4,0.3-11.1,0.4c-0.8,0-1.4-0.2-2-0.7c-3.7-3.1-7.4-6.1-11-9.2
			c-3.3-2.8-6.6-5.5-9.9-8.3c-3.1-2.6-6.2-5.1-9.2-7.7c-1.1-0.9-2.3-1.1-3.5-0.7c-1.2,0.4-1.8,1.3-1.9,2.7c0,1.1,0.4,2.1,1.3,2.9
			c1.7,1.5,3.4,2.9,5.1,4.3c4.8,4,9.5,8,14.3,12c1.6,1.3,3.2,2.6,4.9,3.9c0,0.1,0,0.2-0.1,0.3c-0.4,0-0.8,0-1.2-0.1
			c-8.1-0.7-16.1-1.9-24.2-3.5c-5.2-1-10.5-2.2-15.7-3.3c-14.3-2.9-28.6-4.8-42.7-4.7c-10.7,0.1-21,1.2-30.9,4.2
			c-8.1,2.4-15.5,5.9-22.1,10.7c-3.8,2.8-7.2,5.9-10.2,9.4c-0.2,0.3-0.5,0.5-0.8,0.7C1202,224.7,1200.7,226.4,1199.5,228z"/>
	</g>
	<g>
		<path class="st6" d="M1678.7,697.9c-0.8,0.3-1.6,0.6-2.3,1c-9.1,4.4-18.9,6.4-29.1,6.8c-9.7,0.4-19.4-0.7-29.1-2.8
			c-15.2-3.2-30-8.5-44.3-15.7c-4-2-7.8-4.3-11.7-6.3c-3.3-1.7-6.6-3.3-9.9-4.9c-0.3-0.1-0.6-0.3-1.1-0.5c0.2,0.4,0.2,0.6,0.3,0.9
			c1.6,2.9,3.2,5.8,4.7,8.7c1.4,2.6,2.9,5.2,4.2,7.9c1,2.1-0.2,4.3-2.4,4.3c-1.2,0-2-0.7-2.6-1.8c-0.9-1.6-1.7-3.2-2.6-4.8
			c-1.9-3.5-3.8-7-5.7-10.6c-1.3-2.5-2.7-5-4-7.5c-0.2-0.4-0.4-0.7-0.9-0.9c-8-3-16.1-5.5-24.3-6.9c-0.1,0-0.2,0-0.4,0
			c0.2,0.4,0.4,0.8,0.6,1.1c7.2,12.6,14.5,25.3,21.7,37.9c0.2,0.3,0.4,0.6,0.5,0.9c0.8,1.5,0.4,3.2-0.9,4c-1.2,0.8-2.9,0.3-3.8-1
			c-0.2-0.3-0.4-0.6-0.5-0.9c-8-13.9-15.9-27.8-23.9-41.7c-0.2-0.4-0.5-0.8-0.7-1.3c-9.6-0.7-18.8,0.3-27.7,4.1
			c0.3,0.5,0.5,0.9,0.8,1.3c9.6,16.8,19.3,33.6,28.9,50.5c0.2,0.4,0.4,0.7,0.6,1.1c0.7,1.5,0.2,3.2-1,3.9c-1.3,0.7-3,0.2-3.9-1.2
			c-0.2-0.3-0.3-0.6-0.5-0.8c-9.7-16.9-19.4-33.9-29.1-50.8c-0.3-0.6-0.5-1.3-1.3-1.5c-0.1,0-0.1-0.2-0.2-0.2
			c-1.1-1.8-2.1-3.7-3.2-5.6c0.7-0.5,1.4-0.9,2.1-1.4c9.4-5.5,19.8-8,30.9-8c9.4,0,18.6,1.5,27.8,4.1c11,3.1,21.7,7.5,32.2,12.7
			c4.1,2.1,8.2,4.3,12.4,6.3c5.9,2.8,12,5.2,18.1,7.3c2,0.7,4.1,1.3,6.1,2c0.2,0.1,0.4,0.1,0.7,0.2c-0.3-0.7-0.6-1.3-0.9-1.8
			c-2.4-4.3-4.7-8.6-7.1-12.9c-0.8-1.5-1.6-3-2.4-4.5c-0.6-1.3-0.3-2.7,0.6-3.6c0.9-0.8,2.4-0.8,3.4,0c0.3,0.3,0.7,0.7,0.9,1.1
			c1.8,3.2,3.5,6.4,5.3,9.7c0.7,1.4,1.5,2.7,2.2,4.1c1.7,3.2,3.5,6.3,5.2,9.5c0.3,0.5,0.5,0.8,1.1,0.9c8.5,2.1,17.1,3.5,25.8,3.9
			c0.4,0,0.9,0,1.5,0c-0.4-0.7-0.6-1.3-1-1.9c-2.1-3.7-4.2-7.5-6.3-11.2c-2.3-4.2-4.6-8.4-7-12.6c-1.7-3.1-3.4-6.2-5.1-9.3
			c-0.7-1.3-1.4-2.5-2-3.8c-0.7-1.4-0.2-2.9,0.9-3.7c1.4-0.9,3.1-0.5,4,1.1c1.5,2.6,2.9,5.2,4.4,7.8c2.5,4.4,4.9,8.9,7.4,13.3
			c2.1,3.9,4.3,7.8,6.4,11.6c1.4,2.5,2.8,5,4.2,7.6c0.2,0.3,0.3,0.6,0.5,0.9c8.4-0.4,16.5-1.9,24.2-5.5c-0.2-0.4-0.5-0.8-0.7-1.2
			c-8.6-15-17.1-30-25.7-44.9c-0.1-0.3-0.3-0.5-0.4-0.8c-0.9-1.6-0.5-3.4,0.9-4.2c1.3-0.8,3-0.2,3.9,1.3c0.2,0.3,0.4,0.6,0.5,0.9
			c8.6,14.9,17.1,29.9,25.7,44.8c0.2,0.4,0.5,0.8,0.8,1.3c0.3-0.2,0.6-0.3,0.9-0.5c3.3-2,6.3-4.5,9-7.3c3.3-3.4,6-7.2,8.5-11.3
			c0.3-0.4,0.3-0.8,0-1.2c-0.1-0.2-0.3-0.4-0.4-0.7c-7.5-13.2-15.1-26.3-22.6-39.5c-0.2-0.3-0.4-0.6-0.5-0.9c-0.7-1.6-0.3-3.2,1-4
			c1.3-0.8,2.9-0.3,3.9,1.2c0.2,0.3,0.3,0.6,0.5,0.8c6.9,12.1,13.8,24.1,20.7,36.2c0.2,0.4,0.4,0.7,0.7,1.3c0.2-0.4,0.4-0.7,0.5-1
			c2.1-4.9,3.6-10,4.8-15.2c0.6-2.6,1-5.2,1.6-7.8c0.1-0.7,0-1.2-0.4-1.8c-3.1-5.2-6.3-10.3-9.4-15.5c-1.1-1.8-2.2-3.5-3.3-5.3
			c-0.7-1.2-0.7-2.6,0-3.6c0.7-1,2-1.3,3.1-0.8c0.6,0.2,1.1,0.7,1.5,1.3c0.8,1.3,1.6,2.6,2.4,4c2.3,3.8,4.6,7.6,6.9,11.3
			c0,0.1,0.1,0.1,0.3,0.3c0.1-0.4,0.1-0.7,0.1-1.1c0.7-8,0.9-16,0.7-24.1c-0.2-7.5-0.2-14.9,0.2-22.4c0.6-11,2.1-21.8,5-32.2
			c2.3-8.2,5.5-15.9,10-22.8c3.2-5,7.1-9.5,11.6-13.3c3.1-2.6,6.4-4.8,9.9-6.6c1.7-0.9,3.5-1.6,5.3-2.4c0.1-0.1,0.3-0.1,0.5-0.1
			c0.2,0.3,0.4,0.7,0.6,1c11.1,19.4,22.2,38.8,33.3,58.2c0.7,1.2,0.6,1.7-0.5,2.4c-1.3,0.8-3,0.3-3.9-1c-0.2-0.3-0.4-0.6-0.5-0.9
			c-9.6-16.8-19.2-33.6-28.8-50.4c-0.2-0.4-0.5-0.8-0.7-1.2c-4,0.7-14.3,9.9-18.1,16.1c0.7,1.3,1.4,2.5,2.2,3.8
			c1.4,2.4,2.9,4.8,4.3,7.2c2.8,4.7,5.6,9.5,8.4,14.2c2.4,4.1,4.8,8.1,7.2,12.2c1.9,3.3,3.9,6.5,5.8,9.8c1,1.8,0.3,3.9-1.5,4.4
			c-1,0.3-2,0-2.8-0.8c-0.3-0.3-0.6-0.7-0.8-1.1c-2.1-3.6-4.2-7.2-6.3-10.8c-2.5-4.2-5-8.4-7.5-12.6c-1.7-2.9-3.4-5.8-5.2-8.7
			c-2.3-3.8-4.5-7.6-6.8-11.4c-0.1-0.1-0.2-0.2-0.3-0.5c-0.2,0.4-0.4,0.7-0.6,1c-2.8,5.5-4.9,11.4-6.4,17.5c-0.8,3.1-1.3,6.3-2,9.5
			c-0.1,0.7,0,1.2,0.3,1.8c2.1,3.4,4.1,6.8,6.1,10.2c1.8,3.1,3.7,6.1,5.5,9.2c1.7,2.8,3.4,5.7,5.1,8.5c0.6,1,0.6,2.1,0.1,3
			c-0.5,1-1.4,1.5-2.5,1.4c-0.9-0.1-1.7-0.5-2.2-1.4c-1-1.6-1.9-3.1-2.9-4.7c-2.7-4.4-5.3-8.8-8-13.2c-0.9-1.5-1.7-3-2.6-4.5
			c-0.1,0-0.2,0-0.3,0c0,0.4-0.1,0.7-0.1,1.1c-0.6,7-0.8,14-0.6,21c0.1,4.6,0.3,9.1,0.5,13.7c0.3,12.5-0.1,24.9-2.3,37
			c-1.6,9.2-4.1,18-8,26.2c-3.2,6.8-7.2,12.9-12.2,18.1c-2.9,3-6,5.7-9.4,8.1c-0.3,0.2-0.5,0.4-0.7,0.7
			C1681.8,696,1680.3,696.9,1678.7,697.9z"/>
	</g>
	<g>
		<path class="st3" d="M1609.6,578.5c-0.7,0.5-1.3,1.1-2,1.6c-8.2,6-14.7,13.8-20,22.7c-5.1,8.5-8.9,17.7-11.9,27.3
			c-4.7,15.2-7.4,31-8.3,47.2c-0.2,4.5-0.2,9-0.4,13.5c-0.2,3.8-0.5,7.5-0.7,11.3c0,0.3-0.1,0.7-0.1,1.2c-0.3-0.3-0.4-0.5-0.6-0.7
			c-1.7-2.8-3.4-5.7-5.1-8.5c-1.6-2.6-3.1-5.1-4.7-7.6c-1.3-2-3.8-1.9-4.8,0c-0.5,1.1-0.4,2.2,0.2,3.2c1,1.6,1.9,3.1,2.9,4.7
			c2.1,3.4,4.2,6.8,6.2,10.2c1.5,2.4,2.9,4.9,4.4,7.3c0.2,0.4,0.4,0.7,0.3,1.2c-1.3,8.6-3.2,17-6.1,25.1c0,0.1-0.1,0.2-0.2,0.4
			c-0.3-0.4-0.5-0.8-0.7-1.1c-7.2-12.6-14.5-25.3-21.7-37.9c-0.2-0.3-0.3-0.6-0.5-0.9c-0.9-1.4-2.6-1.9-3.9-1.2
			c-1.2,0.7-1.7,2.4-1,3.9c0.1,0.3,0.3,0.6,0.5,0.9c8,13.9,15.9,27.8,23.9,41.7c0.2,0.4,0.5,0.8,0.7,1.3c-4.1,8.9-9.5,16.7-17,22.7
			c-0.3-0.5-0.5-0.9-0.8-1.3c-9.6-16.8-19.3-33.6-28.9-50.5c-0.2-0.4-0.4-0.8-0.7-1.1c-1-1.3-2.6-1.8-3.9-1
			c-1.3,0.8-1.6,2.5-0.9,4.1c0.1,0.3,0.3,0.6,0.5,0.8c9.7,16.9,19.4,33.9,29.1,50.9c0.3,0.6,0.9,1.1,0.6,1.8c0,0.1,0.1,0.2,0.1,0.3
			c1.1,1.8,2.1,3.7,3.2,5.6c0.8-0.4,1.5-0.8,2.2-1.2c9.3-5.7,16.5-13.8,21.9-23.7c4.6-8.3,7.8-17.4,10.1-26.9
			c2.8-11.4,4.3-23,4.9-34.9c0.3-4.7,0.4-9.4,0.7-14.1c0.5-6.7,1.4-13.2,2.6-19.7c0.4-2.2,0.9-4.3,1.3-6.4c0-0.2,0.1-0.4,0.2-0.7
			c0.4,0.7,0.8,1.2,1.1,1.7c2.5,4.2,5,8.4,7.5,12.6c0.9,1.5,1.7,2.9,2.7,4.3c0.8,1.2,2.2,1.7,3.4,1.2c1.1-0.4,1.9-1.7,1.7-3.1
			c-0.1-0.4-0.2-0.9-0.5-1.3c-1.9-3.2-3.8-6.3-5.6-9.5c-0.8-1.3-1.6-2.7-2.4-4c-1.8-3.1-3.7-6.2-5.6-9.3c-0.3-0.5-0.4-0.9-0.2-1.4
			c2.4-8.7,5.4-17,9.3-24.9c0.2-0.4,0.4-0.8,0.7-1.3c0.4,0.7,0.8,1.2,1.2,1.8c2.2,3.7,4.3,7.4,6.5,11.1c2.4,4.1,4.9,8.2,7.3,12.4
			c1.8,3,3.6,6.1,5.4,9.1c0.7,1.2,1.5,2.5,2.3,3.7c0.9,1.3,2.4,1.6,3.6,1c1.5-0.8,1.9-2.5,1-4.1c-1.5-2.6-3-5.2-4.5-7.8
			c-2.6-4.4-5.2-8.7-7.7-13.1c-2.3-3.8-4.5-7.6-6.8-11.4c-1.5-2.5-2.9-4.9-4.4-7.4c-0.2-0.3-0.3-0.6-0.5-0.9
			c4.4-7.3,9.7-13.8,16.5-18.9c0.2,0.4,0.5,0.8,0.7,1.2c8.6,15,17.1,30,25.7,44.9c0.1,0.3,0.3,0.5,0.4,0.7c0.9,1.6,2.7,2.1,4,1.3
			c1.3-0.8,1.7-2.6,0.8-4.2c-0.2-0.3-0.4-0.6-0.5-0.9c-8.6-14.9-17.1-29.9-25.7-44.8c-0.2-0.4-0.5-0.8-0.8-1.3
			c0.3-0.2,0.6-0.4,0.9-0.6c3.3-1.9,6.9-3.4,10.6-4.5c4.5-1.3,9.1-1.9,13.8-2c0.5,0,0.8,0.1,1.1,0.6c0.1,0.2,0.2,0.4,0.4,0.7
			c7.5,13.2,15.1,26.3,22.6,39.5c0.2,0.3,0.3,0.6,0.5,0.9c1,1.4,2.6,1.8,3.9,1c1.3-0.8,1.7-2.5,0.8-4c-0.1-0.3-0.3-0.6-0.5-0.8
			c-6.9-12.1-13.8-24.1-20.7-36.2c-0.2-0.4-0.4-0.7-0.7-1.3c0.5,0,0.8,0,1.1,0c5.2,0.6,10.3,1.6,15.3,3.1c2.5,0.8,4.9,1.6,7.4,2.4
			c0.6,0.2,1,0.6,1.4,1.2c2.9,5.3,5.7,10.7,8.6,16c1,1.8,2,3.7,3,5.5c0.7,1.2,1.9,1.9,3.1,1.7c1.2-0.2,2-1.1,2.2-2.4
			c0.1-0.7,0-1.3-0.4-2c-0.7-1.4-1.5-2.7-2.2-4.1c-2.1-3.9-4.2-7.8-6.3-11.7c0-0.1-0.1-0.2-0.1-0.4c0.4,0.2,0.7,0.3,1,0.4
			c7.1,3.3,14.1,7.1,20.9,11.2c6.3,3.8,12.6,7.5,19.1,10.8c9.7,4.8,19.6,8.8,29.9,11.3c8.1,1.9,16.2,2.9,24.3,2.3
			c5.9-0.4,11.5-1.7,16.9-3.8c3.7-1.5,7.2-3.4,10.5-5.6c1.6-1.1,3.1-2.4,4.7-3.6c0.1-0.1,0.2-0.3,0.3-0.4c-0.2-0.3-0.4-0.7-0.6-1
			c-11.1-19.4-22.2-38.8-33.3-58.2c-0.7-1.2-1.2-1.3-2.3-0.7c-1.3,0.7-1.8,2.5-1,4c0.2,0.3,0.4,0.6,0.5,0.9
			c9.6,16.8,19.2,33.6,28.8,50.4c0.2,0.4,0.5,0.8,0.7,1.2c-2.5,3.2-15.4,7.9-22.6,8.3c-0.7-1.3-1.5-2.5-2.2-3.8
			c-1.4-2.5-2.7-4.9-4.1-7.4c-2.7-4.8-5.4-9.6-8-14.4c-2.3-4.1-4.6-8.3-6.9-12.4c-1.8-3.3-3.6-6.6-5.5-9.9c-1-1.8-3.1-2.1-4.4-0.8
			c-0.7,0.8-1,1.8-0.7,2.9c0.1,0.4,0.3,0.9,0.6,1.3c2,3.7,4.1,7.3,6.1,10.9c2.4,4.3,4.8,8.6,7.1,12.9c1.6,3,3.3,5.9,4.9,8.9
			c2.1,3.9,4.3,7.8,6.4,11.6c0.1,0.1,0.1,0.2,0.2,0.5c-0.4,0-0.8,0-1.1,0c-6.1-0.2-12.1-1.2-18-2.9c-3-0.8-6-1.9-9-2.9
			c-0.6-0.2-1-0.5-1.4-1.2c-1.9-3.5-3.8-7-5.7-10.4c-1.7-3.1-3.4-6.3-5.1-9.4c-1.6-2.9-3.2-5.8-4.8-8.7c-0.6-1.1-1.4-1.5-2.5-1.6
			c-1.1,0-1.9,0.5-2.4,1.6c-0.4,0.9-0.4,1.8,0.1,2.7c0.8,1.6,1.7,3.2,2.6,4.9c2.5,4.5,4.9,9.1,7.4,13.6c0.8,1.5,1.7,3,2.6,4.5
			c-0.1,0.1-0.1,0.1-0.2,0.2c-0.3-0.1-0.6-0.3-1-0.4c-6.2-2.9-12.3-6.2-18.2-9.8c-3.8-2.3-7.6-4.8-11.5-7.1
			c-10.5-6.4-21.3-12-32.7-16c-8.6-3-17.3-5.1-26.2-5.7c-7.3-0.5-14.5,0.1-21.4,2c-4,1.1-7.8,2.6-11.5,4.4c-0.3,0.1-0.6,0.2-0.9,0.3
			C1612.8,576.6,1611.2,577.5,1609.6,578.5z"/>
	</g>
</g>
</svg>
